<svg width="68" height="68" viewBox="0 0 68 68" fill="none" xmlns="http://www.w3.org/2000/svg">
<circle cx="34" cy="34" r="34" fill="#DEEEEB"/>
<path d="M46.1875 27.4375V40.5625C46.1875 41.3084 45.8912 42.0238 45.3637 42.5512C44.8363 43.0787 44.1209 43.375 43.375 43.375H24.625C23.8791 43.375 23.1637 43.0787 22.6363 42.5512C22.1088 42.0238 21.8125 41.3084 21.8125 40.5625V27.4375M46.1875 27.4375C46.1875 26.6916 45.8912 25.9762 45.3637 25.4488C44.8363 24.9213 44.1209 24.625 43.375 24.625H24.625C23.8791 24.625 23.1637 24.9213 22.6363 25.4488C22.1088 25.9762 21.8125 26.6916 21.8125 27.4375M46.1875 27.4375V27.7413C46.1876 28.2214 46.0647 28.6936 45.8305 29.1129C45.5964 29.5321 45.2588 29.8844 44.85 30.1363L35.475 35.905C35.0315 36.1782 34.5209 36.3228 34 36.3228C33.4791 36.3228 32.9685 36.1782 32.525 35.905L23.15 30.1375C22.7412 29.8857 22.4036 29.5334 22.1695 29.1141C21.9353 28.6949 21.8124 28.2227 21.8125 27.7425V27.4375" stroke="#007F61" stroke-width="1.5" stroke-linecap="round" stroke-linejoin="round"/>
</svg>
