<svg width="166" height="166" viewBox="0 0 166 166" fill="none" xmlns="http://www.w3.org/2000/svg">
<path d="M78 2.88675C81.094 1.10042 84.906 1.10042 88 2.88675L149.88 38.6133C152.974 40.3996 154.88 43.7008 154.88 47.2735V118.727C154.88 122.299 152.974 125.6 149.88 127.387L88 163.113C84.906 164.9 81.094 164.9 78 163.113L16.1199 127.387C13.0259 125.6 11.1199 122.299 11.1199 118.727V47.2735C11.1199 43.7008 13.0259 40.3996 16.1199 38.6133L78 2.88675Z" fill="url(#paint0_linear_537_675)"/>
<path d="M54.2501 87.9997C53.5596 87.9997 53 87.4397 53 86.7496V58.0001C53 56.6738 53.5269 55.4023 54.4644 54.4644C55.4023 53.5269 56.6738 53 58.0001 53H77.9993C79.3256 53 80.597 53.5269 81.535 54.4644C82.4725 55.4023 82.9994 56.6738 82.9994 58.0001V62.9998H100.499C101.825 62.9998 103.097 63.5267 104.035 64.4642C104.972 65.4021 105.499 66.674 105.499 67.9999V71.7499C105.499 72.44 104.939 73 104.249 73C103.559 73 102.999 72.44 102.999 71.7499V67.9999C102.999 67.337 102.736 66.7008 102.267 66.2321C101.798 65.7633 101.162 65.5001 100.499 65.5001H81.749C81.0589 65.5001 80.4993 64.9401 80.4993 64.2499V58.0001C80.4993 57.3368 80.2357 56.701 79.7669 56.2323C79.2982 55.7635 78.6624 55.4999 77.9991 55.4999H57.9999C57.3366 55.4999 56.7008 55.7635 56.2321 56.2323C55.7633 56.701 55.4997 57.3368 55.4997 58.0001V86.7496C55.4997 87.081 55.3682 87.3991 55.1339 87.6335C54.8991 87.8679 54.5814 87.9997 54.2499 87.9997H54.2501Z" fill="white"/>
<path d="M66.7498 87.9995C66.0597 87.9995 65.5001 87.4395 65.5001 86.7494V75.4995C65.4708 74.4962 65.8563 73.5253 66.5661 72.8154C67.2759 72.1056 68.2469 71.7201 69.2501 71.7495H84.25C84.9401 71.7495 85.4997 72.309 85.4997 72.9996C85.4997 73.6897 84.9401 74.2493 84.25 74.2493H69.2501C68.9069 74.2167 68.5671 74.3401 68.3247 74.5854C68.0824 74.8306 67.9631 75.1717 68 75.5145V86.7494C68 87.0809 67.8681 87.399 67.6338 87.6333C67.3994 87.8677 67.0813 87.9995 66.7498 87.9995Z" fill="white"/>
<path d="M94.2503 112.999H91.7504C90.7556 112.999 89.8017 112.604 89.0987 111.901C88.3956 111.197 88.0005 110.244 88.0005 109.249V105.807C87.8268 105.738 87.6543 105.667 87.4807 105.589L85.0456 108.025H85.0452C84.3421 108.729 83.3883 109.123 82.3939 109.123C81.3999 109.123 80.446 108.729 79.743 108.025L77.9743 106.257C77.2711 105.554 76.8761 104.6 76.8761 103.605C76.8761 102.611 77.2711 101.658 77.9743 100.954L80.4105 98.519C80.333 98.3453 80.2619 98.1729 80.1928 97.9992H76.7505C75.7556 97.9992 74.8018 97.6041 74.0987 96.901C73.3956 96.1974 73.0005 95.2436 73.0005 94.2492V91.7494C73.0005 90.7545 73.3956 89.8007 74.0987 89.0976C74.8018 88.3945 75.7556 87.9994 76.7505 87.9994H80.1928C80.2615 87.8257 80.333 87.6533 80.4105 87.4796L77.9743 85.0446V85.0441C77.2711 84.341 76.8761 83.3872 76.8761 82.3928C76.8761 81.3988 77.2711 80.445 77.9743 79.7419L79.743 77.9732C80.4461 77.2701 81.3999 76.875 82.3939 76.875C83.3883 76.875 84.3421 77.2701 85.0452 77.9732L87.4802 80.4094C87.6539 80.332 87.8264 80.2608 88 80.1918L88.0005 76.7494C88.0005 75.7546 88.3956 74.8007 89.0987 74.0976C89.8018 73.3946 90.7556 72.9994 91.7504 72.9994H94.2503C95.2447 72.9994 96.1986 73.3945 96.9021 74.0976C97.6052 74.8007 98.0003 75.7546 98.0003 76.7494V80.1918C98.1739 80.2604 98.3464 80.332 98.5201 80.4094L100.955 77.9732C101.659 77.2701 102.612 76.875 103.606 76.875C104.601 76.875 105.555 77.2701 106.258 77.9732L108.026 79.7419C108.73 80.445 109.124 81.3989 109.124 82.3928C109.124 83.3872 108.73 84.3411 108.026 85.0441L105.59 87.4792C105.668 87.6529 105.739 87.8253 105.808 87.999L109.25 87.9994C110.245 87.9994 111.199 88.3945 111.902 89.0976C112.605 89.8007 113 90.7546 113 91.7494V94.2492C113 95.2436 112.605 96.1975 111.902 96.901C111.199 97.6041 110.245 97.9992 109.25 97.9992H105.808C105.739 98.1729 105.668 98.3453 105.59 98.519L108.026 100.954C108.73 101.658 109.124 102.611 109.124 103.605C109.124 104.6 108.73 105.554 108.026 106.257L106.258 108.025C105.555 108.729 104.601 109.123 103.606 109.123C102.612 109.123 101.659 108.729 100.955 108.025L98.5201 105.589C98.3464 105.667 98.1739 105.738 98.0003 105.807V109.249C98.0003 110.244 97.6052 111.197 96.9021 111.901C96.1985 112.604 95.2447 112.999 94.2503 112.999ZM87.2241 102.828C87.4258 102.828 87.6242 102.877 87.8029 102.97C88.3872 103.277 88.9973 103.533 89.6265 103.733C90.1476 103.897 90.5016 104.38 90.5016 104.925V109.249C90.5016 109.581 90.6335 109.899 90.8678 110.133C91.1022 110.367 91.4203 110.499 91.7518 110.499H94.2516C94.5831 110.499 94.9011 110.367 95.1355 110.133C95.3699 109.899 95.5017 109.581 95.5017 109.249V104.925C95.5017 104.38 95.8558 103.897 96.3765 103.733C97.0055 103.533 97.6157 103.277 98.2003 102.97C98.6841 102.718 99.2764 102.808 99.6626 103.194L102.725 106.257H102.725C103.213 106.745 104.004 106.745 104.493 106.257L106.26 104.489C106.748 104.001 106.748 103.21 106.26 102.722L103.198 99.6595V99.6591C102.812 99.2728 102.721 98.6806 102.974 98.1968C103.281 97.6122 103.536 97.002 103.737 96.373C103.9 95.8523 104.383 95.4982 104.929 95.4982H109.25C109.582 95.4982 109.9 95.3664 110.134 95.132C110.368 94.8977 110.5 94.5796 110.5 94.2481V91.7495C110.5 91.4181 110.368 91.1 110.134 90.8656C109.9 90.6313 109.582 90.4994 109.25 90.4994H104.926C104.381 90.4994 103.898 90.1453 103.734 89.6243C103.534 88.9952 103.278 88.3851 102.971 87.8007C102.719 87.3165 102.809 86.7243 103.195 86.338L106.258 83.2757C106.746 82.7877 106.746 81.9963 106.258 81.5083L104.49 79.7408C104.002 79.2528 103.211 79.2528 102.723 79.7408L99.6606 82.8032H99.6601C99.2738 83.1895 98.6816 83.2799 98.1979 83.0271C97.6132 82.7199 97.003 82.465 96.374 82.2645C95.8533 82.1009 95.4993 81.6179 95.4993 81.0721V76.7496C95.4993 76.4181 95.3674 76.1001 95.1331 75.8657C94.8987 75.6313 94.5806 75.4995 94.2491 75.4995H91.7506C91.06 75.4995 90.5004 76.059 90.5004 76.7496V81.0733C90.5004 81.6191 90.1464 82.1021 89.6253 82.2657C88.9963 82.4662 88.3861 82.7211 87.8017 83.0283C87.3175 83.2811 86.7253 83.1906 86.339 82.8044L83.2767 79.742C82.7887 79.254 81.9973 79.254 81.5093 79.742L79.7419 81.5094C79.2539 81.9974 79.2539 82.7888 79.7419 83.2768L82.8042 86.3392C83.1905 86.7255 83.2809 87.3177 83.0281 87.8019C82.7209 88.3861 82.466 88.9963 82.2656 89.6255C82.1019 90.1465 81.6189 90.5006 81.0732 90.5006H76.7506C76.0601 90.5006 75.5005 91.0602 75.5005 91.7507V94.2506C75.5005 94.582 75.6323 94.9001 75.8667 95.1345C76.1011 95.3689 76.4192 95.5007 76.7506 95.5007H81.0744C81.6201 95.5007 82.1031 95.8548 82.2667 96.3754C82.4672 97.0045 82.7221 97.6146 83.0293 98.1993C83.2821 98.6831 83.1917 99.2753 82.8054 99.6616L79.7431 102.724V102.724C79.2551 103.212 79.2551 104.003 79.7431 104.492L81.5105 106.259C81.9985 106.747 82.7899 106.747 83.2779 106.259L86.3402 103.197C86.5742 102.961 86.8922 102.829 87.2241 102.828Z" fill="white"/>
<path d="M92.9993 99.2496C91.3419 99.2496 89.752 98.5909 88.5801 97.419C87.4079 96.2467 86.7495 94.6572 86.7495 92.9994C86.7495 91.342 87.4078 89.752 88.5801 88.5802C89.7521 87.4079 91.3419 86.7495 92.9993 86.7495C94.6571 86.7495 96.2467 87.4079 97.4189 88.5802C98.5909 89.7521 99.2496 91.342 99.2496 92.9994C99.2475 94.6563 98.5883 96.245 97.4169 97.4168C96.245 98.5883 94.6563 99.2475 92.9994 99.2495L92.9993 99.2496ZM92.9993 89.2494C92.0049 89.2494 91.0511 89.6445 90.348 90.348C89.6445 91.0511 89.2494 92.005 89.2494 92.9994C89.2494 93.9942 89.6444 94.9481 90.348 95.6511C91.0511 96.3543 92.0049 96.7493 92.9993 96.7493C93.9942 96.7493 94.948 96.3543 95.6511 95.6511C96.3542 94.948 96.7493 93.9942 96.7493 92.9994C96.7493 92.005 96.3542 91.0511 95.6511 90.348C94.948 89.6445 93.9941 89.2494 92.9993 89.2494Z" fill="white"/>
<path d="M77.9993 112.999H61.7501C61.0596 112.999 60.5 112.44 60.5 111.749C60.5 111.059 61.0596 110.499 61.7501 110.499H77.9993C78.6899 110.499 79.2494 111.059 79.2494 111.749C79.2494 112.44 78.6899 112.999 77.9993 112.999Z" fill="white"/>
<path d="M70.5003 106.75H54.2511C53.5605 106.75 53.001 106.19 53.001 105.499C53.001 104.809 53.5605 104.249 54.2511 104.249H70.5003C71.1909 104.249 71.7504 104.809 71.7504 105.499C71.7504 106.19 71.1909 106.75 70.5003 106.75Z" fill="white"/>
<path d="M56.75 112.999H54.2501C53.5596 112.999 53 112.44 53 111.749C53 111.059 53.5596 110.499 54.2501 110.499H56.75C57.4401 110.499 58.0001 111.059 58.0001 111.749C58.0001 112.44 57.4401 112.999 56.75 112.999Z" fill="white"/>
<path d="M70.4995 100.499H67.9996C67.3095 100.499 66.7495 99.9394 66.7495 99.2492C66.7495 98.5587 67.3095 97.9991 67.9996 97.9991H70.4995C71.1901 97.9991 71.7496 98.5587 71.7496 99.2492C71.7496 99.9394 71.1901 100.499 70.4995 100.499Z" fill="white"/>
<path d="M62.9998 100.499H58.0001C56.6738 100.499 55.4023 99.9724 54.4644 99.0345C53.5269 98.097 53 96.8251 53 95.4993C53 94.1729 53.5269 92.9015 54.4644 91.9636C55.4023 91.0261 56.6738 90.4991 58.0001 90.4991C59.326 90.4991 60.5979 91.0261 61.5354 91.9636C62.4733 92.9015 62.9998 94.1729 62.9998 95.4993C62.9998 96.1894 62.4402 96.749 61.7501 96.749C61.0595 96.749 60.5 96.1894 60.5 95.4993C60.5 94.8359 60.2367 94.2002 59.7675 93.7314C59.2988 93.2627 58.663 92.999 58.0001 92.999C57.3368 92.999 56.701 93.2627 56.2323 93.7314C55.7635 94.2002 55.4999 94.8359 55.4999 95.4993C55.4999 96.1622 55.7635 96.7979 56.2323 97.2667C56.701 97.7358 57.3368 97.9991 58.0001 97.9991H62.9998C63.6904 97.9991 64.2499 98.5587 64.2499 99.2492C64.2499 99.9394 63.6904 100.499 62.9998 100.499Z" fill="white"/>
<defs>
<linearGradient id="paint0_linear_537_675" x1="0.0412371" y1="82.8949" x2="166" y2="82.8949" gradientUnits="userSpaceOnUse">
<stop stop-color="#11698E"/>
<stop offset="1" stop-color="#16C79A"/>
</linearGradient>
</defs>
</svg>
