<svg width="166" height="166" viewBox="0 0 166 166" fill="none" xmlns="http://www.w3.org/2000/svg">
<path d="M78 2.88675C81.094 1.10042 84.906 1.10042 88 2.88675L149.88 38.6133C152.974 40.3996 154.88 43.7008 154.88 47.2735V118.727C154.88 122.299 152.974 125.6 149.88 127.387L88 163.113C84.906 164.9 81.094 164.9 78 163.113L16.1199 127.387C13.0259 125.6 11.1199 122.299 11.1199 118.727V47.2735C11.1199 43.7008 13.0259 40.3996 16.1199 38.6133L78 2.88675Z" fill="url(#paint0_linear_537_810)"/>
<path fill-rule="evenodd" clip-rule="evenodd" d="M55.8008 54.201C53.0164 54.8014 50.6317 57.2687 50.1418 60.0492C50.0387 60.5845 50 67.9861 50 83.5466C50 102.54 50.0387 106.417 50.1804 107.135C50.6445 109.302 52.1785 111.274 54.1508 112.2C54.7437 112.488 55.5687 112.775 55.9812 112.853C57.064 113.049 108.936 113.049 110.019 112.853C112.803 112.344 115.227 109.955 115.819 107.135C115.961 106.417 116 102.54 116 83.5466C116 67.9861 115.961 60.5845 115.858 60.0492C115.484 57.9606 113.886 55.7936 111.991 54.8537C111.883 54.8 111.787 54.7495 111.698 54.7023C111.605 54.6535 111.519 54.6079 111.432 54.5656C110.242 53.9902 108.781 53.991 87.4694 54.0028L82.9356 54.0051C60.8925 54.0051 56.4968 54.0443 55.8008 54.201ZM109.555 56.3418C111.23 56.6681 112.597 57.7386 113.332 59.3182L113.744 60.1928L113.783 64.8531L113.821 69.5266H82.9999H52.1785L52.2172 64.8531L52.2558 60.1928L52.6683 59.3182C53.3773 57.7909 54.7696 56.6681 56.3422 56.3549C57.1543 56.1851 108.717 56.1851 109.555 56.3418ZM113.809 91.322C113.81 105.709 113.81 106.959 113.275 107.894C113.224 107.983 113.168 108.069 113.107 108.163C113.072 108.218 113.035 108.275 112.996 108.336C112.429 109.224 111.759 109.812 110.715 110.308L109.877 110.712H82.9999H56.123L55.2852 110.308C54.241 109.812 53.5707 109.224 53.0035 108.336C52.9649 108.275 52.928 108.218 52.8928 108.164C52.8318 108.069 52.7759 107.983 52.725 107.894C52.1898 106.959 52.1899 105.709 52.1913 91.3219L52.1914 88.9511V71.7457H82.9999H113.809V88.9511L113.809 91.322ZM57.3606 59.488C55.1949 59.9057 53.9961 62.3338 54.95 64.3702C55.9684 66.5502 58.8171 67.0202 60.48 65.2839C61.0215 64.7226 61.4726 63.6131 61.4726 62.8689C61.4726 62.0205 61.0215 61.0022 60.3641 60.3887C59.4746 59.5532 58.5078 59.266 57.3606 59.488ZM58.9332 62.0988C59.307 62.5035 59.3715 62.9212 59.1395 63.4433C58.9461 63.8742 58.2242 64.2135 57.7472 64.1091C56.6516 63.8611 56.4582 62.3076 57.4637 61.7985C58.0308 61.5113 58.4691 61.6028 58.9332 62.0988ZM65.2109 62.9341C65.2109 61.5504 65.9973 60.3233 67.2734 59.7489C67.6472 59.5792 68.1242 59.4748 68.6269 59.4748C71.6691 59.4748 73.1773 63.1691 71.0246 65.3491C68.8718 67.5291 65.2238 66.015 65.2109 62.9341ZM69.4777 63.7957C69.9675 63.2866 69.9805 62.6599 69.5164 62.0986C69.0652 61.5504 68.2531 61.5243 67.7375 62.0334C66.9898 62.8036 67.5571 64.1742 68.6269 64.1742C68.975 64.1742 69.1942 64.0698 69.4777 63.7957ZM77.9855 59.6966C77.6503 59.8142 77.1477 60.1666 76.8125 60.506C74.6598 62.6861 76.1551 66.3804 79.1973 66.3934C81.1051 66.3934 82.6133 64.8661 82.6133 62.9341C82.6133 60.5191 80.2543 58.8873 77.9855 59.6966ZM80.048 62.0725C80.5508 62.5947 80.5765 63.3388 80.0867 63.8348C79.3262 64.592 77.9726 64.0175 77.9726 62.9341C77.9726 62.2684 78.5399 61.6939 79.1973 61.6939C79.5453 61.6939 79.7644 61.7984 80.048 62.0725ZM81.6335 89.5904C83.7476 79.4213 83.9152 78.7164 84.2246 78.4292C84.5984 78.1159 84.8949 78.0767 85.359 78.2856C85.6812 78.4292 85.9648 78.8991 85.9648 79.2777C85.9648 79.3952 84.9722 84.2514 83.7606 90.0734C82.3297 96.9529 81.4918 100.778 81.3371 100.974C80.8602 101.666 79.9063 101.574 79.5453 100.817C79.3907 100.491 79.5839 99.4464 81.6335 89.5904ZM75.3945 82.8026C74.6856 83.3117 68.1628 89.0164 68.0469 89.2382C67.802 89.6952 67.9051 90.126 68.3434 90.5698C69.0394 91.2747 75.2657 96.6007 75.6137 96.7836C76.0004 96.9925 76.748 96.7836 76.9414 96.418C77.1735 95.9742 77.0832 95.3999 76.7222 94.9951C76.516 94.7863 75.1109 93.5461 73.5898 92.2407C72.0687 90.9222 70.8055 89.8127 70.7797 89.7604C70.7668 89.7082 72.0559 88.5334 73.6542 87.1626C75.2527 85.7789 76.6836 84.5257 76.8125 84.369C77.1735 83.9775 77.1477 83.2986 76.748 82.907C76.3742 82.5284 75.8457 82.4893 75.3945 82.8026ZM89.1875 84.369C88.8265 83.9775 88.8523 83.2986 89.252 82.907C89.6258 82.5284 90.1543 82.4893 90.6054 82.8026C91.3144 83.3117 97.837 89.0164 97.9531 89.2382C98.198 89.6952 98.0949 90.126 97.6566 90.5698C96.9606 91.2747 90.7343 96.6007 90.3863 96.7836C89.9996 96.9925 89.252 96.7836 89.0586 96.418C88.8265 95.9742 88.9168 95.3999 89.2906 94.9951C89.484 94.7863 90.8891 93.5461 92.4101 92.2407C93.9313 90.9222 95.1945 89.8127 95.2203 89.7604C95.2332 89.7082 93.9441 88.5334 92.3456 87.1626C90.7473 85.7789 89.3164 84.5257 89.1875 84.369Z" fill="white"/>
<defs>
<linearGradient id="paint0_linear_537_810" x1="0.0412371" y1="82.8949" x2="166" y2="82.8949" gradientUnits="userSpaceOnUse">
<stop stop-color="#11698E"/>
<stop offset="1" stop-color="#16C79A"/>
</linearGradient>
</defs>
</svg>
