<svg width="166" height="166" viewBox="0 0 166 166" fill="none" xmlns="http://www.w3.org/2000/svg">
<path d="M78 2.88675C81.094 1.10042 84.906 1.10042 88 2.88675L149.88 38.6133C152.974 40.3996 154.88 43.7008 154.88 47.2735V118.727C154.88 122.299 152.974 125.6 149.88 127.387L88 163.113C84.906 164.9 81.094 164.9 78 163.113L16.1199 127.387C13.0259 125.6 11.1199 122.299 11.1199 118.727V47.2735C11.1199 43.7008 13.0259 40.3996 16.1199 38.6133L78 2.88675Z" fill="url(#paint0_linear_537_782)"/>
<path d="M65.9496 78.666C69.1059 78.666 71.6737 76.0987 71.6737 72.9424C71.6737 69.7823 69.1059 67.2112 65.9496 67.2112C62.79 67.2112 60.2188 69.7818 60.2188 72.9424C60.2188 76.0987 62.7899 78.666 65.9496 78.666ZM65.9496 69.6848C67.7423 69.6848 69.2 71.1466 69.2 72.9424C69.2 74.7345 67.7418 76.1928 65.9496 76.1928C64.1532 76.1928 62.6921 74.7345 62.6921 72.9424C62.6921 71.146 64.1533 69.6848 65.9496 69.6848Z" fill="white"/>
<path d="M57.7193 81.6615L59.5312 80.7708C60.3865 81.4694 61.3501 82.0235 62.377 82.4082L62.5114 84.4263C62.6094 85.939 63.8775 87.1237 65.3989 87.1237H66.5011C68.0094 87.1237 69.2774 85.9434 69.3886 84.4288L69.5239 82.4068C70.548 82.0216 71.509 81.4671 72.3629 80.77L74.1817 81.6616C75.5351 82.3263 77.1934 81.8246 77.9619 80.5104L78.5081 79.5586C79.2761 78.2449 78.886 76.5542 77.6194 75.7081L75.9379 74.5773C76.0301 74.0262 76.0767 73.4789 76.0767 72.9414C76.0767 72.4048 76.0301 71.8557 75.9374 71.3007L77.6247 70.1708C78.8802 69.3214 79.2693 67.6307 78.5115 66.3228L77.9595 65.3676C77.1949 64.047 75.5314 63.5449 74.1832 64.2198L72.3659 65.1105C71.5135 64.4109 70.5516 63.8545 69.525 63.4678L69.3892 61.438C69.2795 59.9311 68.0114 58.7513 66.5027 58.7513H65.4004C63.8791 58.7513 62.6109 59.936 62.513 61.4457L62.3776 63.4667C61.3486 63.8528 60.3847 64.4093 59.5304 65.1102L57.7242 64.222C56.3566 63.5433 54.6936 64.0502 53.9417 65.3683L53.3915 66.3211C52.6328 67.63 53.0218 69.3206 54.2822 70.1736L55.9603 71.2972C55.8662 71.8483 55.8187 72.3984 55.8187 72.9407C55.8187 73.4802 55.8662 74.0289 55.9603 74.5795L54.2842 75.7069C53.0171 76.552 52.626 78.2442 53.3891 79.5487L53.9412 80.5112C54.6932 81.8206 56.3508 82.327 57.7194 81.6614L57.7193 81.6615ZM55.6589 77.7625L58.0336 76.1655C58.4692 75.8725 58.6725 75.3359 58.5401 74.8279C58.3746 74.1905 58.2902 73.5559 58.2902 72.9417C58.2902 72.3227 58.3746 71.6857 58.5401 71.0482C58.6725 70.5388 58.4688 70.0018 58.0317 69.7093L55.6623 68.123C55.4784 67.9983 55.4202 67.7523 55.5313 67.5607L56.0853 66.6007C56.1925 66.4134 56.4298 66.3426 56.6282 66.4406L59.1863 67.698C59.6564 67.9299 60.2226 67.8387 60.597 67.4715C61.5178 66.5701 62.6539 65.9142 63.8833 65.5755C64.3907 65.4358 64.7536 64.9905 64.7886 64.466L64.9797 61.6086C64.9938 61.3903 65.1738 61.2253 65.3989 61.2253H66.5011C66.7242 61.2253 66.9047 61.3947 66.9207 61.6115L67.1114 64.4665C67.1468 64.9904 67.5087 65.4358 68.0152 65.576C69.2416 65.9156 70.3758 66.5714 71.2951 67.4724C71.6696 67.8396 72.2348 67.9294 72.7053 67.6994L75.2795 66.4371C75.4706 66.342 75.7074 66.4168 75.8175 66.6069L76.3696 67.5621C76.4797 67.7518 76.4215 67.9983 76.2425 68.1196L73.8683 69.7094C73.435 69.9995 73.2298 70.5307 73.3564 71.0367C73.5219 71.698 73.6019 72.3209 73.6019 72.9419C73.6019 73.5555 73.5194 74.193 73.3569 74.8368C73.2293 75.3428 73.4326 75.8745 73.8658 76.1655L76.24 77.7625C76.2415 77.7635 76.2429 77.764 76.2439 77.7655C76.421 77.8833 76.4777 78.1278 76.3662 78.319L75.8199 79.2713C75.7088 79.4595 75.4624 79.5357 75.2698 79.4421L72.7044 78.1846C72.2343 77.9542 71.6721 78.0439 71.2976 78.4087C70.3739 79.3077 69.2387 79.9617 68.0147 80.3007C67.5082 80.4409 67.1453 80.8853 67.1104 81.4102L66.9202 84.2574C66.9042 84.4782 66.7194 84.6514 66.5001 84.6514H65.3979C65.1728 84.6514 64.9928 84.4864 64.9782 84.2647L64.7876 81.4098C64.7522 80.8849 64.3888 80.4395 63.8818 80.2998C62.6549 79.9621 61.5178 79.3082 60.5932 78.4083C60.357 78.1784 60.0455 78.0581 59.7302 78.0581C59.5453 78.0581 59.3585 78.0993 59.1849 78.1852L56.6312 79.4401C56.4304 79.5381 56.1897 79.4659 56.0825 79.28L55.5261 78.3098C55.4208 78.1274 55.478 77.8833 55.6589 77.7625Z" fill="white"/>
<path d="M109.643 62.0133H98.9846V61.8367C98.9846 61.1536 98.4306 60.6001 97.748 60.6001C97.0649 60.6001 96.5114 61.1541 96.5114 61.8367V62.0133H85.8532C84.0024 62.0133 82.4966 63.5191 82.4966 65.3698V100.171C82.4966 102.022 84.0024 103.528 85.8532 103.528H109.644C111.494 103.528 113 102.022 113 100.171L113 65.3698C113 63.5191 111.494 62.0133 109.644 62.0133H109.643ZM110.526 100.172C110.526 100.659 110.13 101.055 109.643 101.055L85.8537 101.055C85.3666 101.055 84.9702 100.658 84.9702 100.171V65.3697C84.9702 64.8826 85.3661 64.4863 85.8537 64.4863H109.644C110.131 64.4863 110.528 64.8826 110.528 65.3697L110.526 100.172Z" fill="white"/>
<path d="M106.845 69.0784H88.6511C87.9681 69.0784 87.4146 69.6324 87.4146 70.315C87.4146 70.9981 87.9686 71.5516 88.6511 71.5516H106.845C107.529 71.5516 108.082 70.9976 108.082 70.315C108.082 69.6324 107.529 69.0784 106.845 69.0784Z" fill="white"/>
<path d="M88.6511 79.855H96.487C97.1701 79.855 97.7236 79.3009 97.7236 78.6184C97.7236 77.9353 97.1696 77.3818 96.487 77.3818H88.6511C87.9681 77.3818 87.4146 77.9358 87.4146 78.6184C87.4146 79.3014 87.9686 79.855 88.6511 79.855Z" fill="white"/>
<path d="M102.678 79.855H106.462C107.145 79.855 107.699 79.3009 107.699 78.6184C107.699 77.9353 107.145 77.3818 106.462 77.3818H102.678C101.995 77.3818 101.441 77.9358 101.441 78.6184C101.441 79.3014 101.995 79.855 102.678 79.855Z" fill="white"/>
<path d="M88.6511 88.1583H100.5C101.183 88.1583 101.737 87.6043 101.737 86.9217C101.737 86.2386 101.182 85.6851 100.5 85.6851H88.6511C87.9681 85.6851 87.4146 86.2391 87.4146 86.9217C87.4146 87.6048 87.9686 88.1583 88.6511 88.1583Z" fill="white"/>
<path d="M106.845 93.9877H88.6511C87.9681 93.9877 87.4146 94.5417 87.4146 95.2243C87.4146 95.9074 87.9686 96.4609 88.6511 96.4609H106.845C107.529 96.4609 108.082 95.9069 108.082 95.2243C108.082 94.5417 107.529 93.9877 106.845 93.9877Z" fill="white"/>
<path d="M65.9497 88.3496C59.4883 88.3496 54.2314 93.6065 54.2314 100.068C54.2314 106.112 58.8304 111.102 64.7131 111.722V113.376C64.7131 114.059 65.2671 114.613 65.9497 114.613C66.6328 114.613 67.1863 114.059 67.1863 113.376V111.722C73.069 111.102 77.668 106.112 77.668 100.068C77.6684 93.6065 72.4111 88.3496 65.9497 88.3496ZM65.9497 109.313C60.8519 109.313 56.7046 105.166 56.7046 100.068C56.7046 94.9706 60.8521 90.8233 65.9497 90.8233C71.0473 90.8233 75.1948 94.9707 75.1948 100.068C75.1948 105.166 71.0473 109.313 65.9497 109.313Z" fill="white"/>
<path d="M72.3013 95.6908C71.8181 95.2076 71.0357 95.2076 70.5529 95.6908L64.4199 101.823L61.3486 98.7524C60.8654 98.2692 60.0829 98.2692 59.5997 98.7524C59.1165 99.2351 59.1165 100.019 59.5997 100.501L63.5453 104.447C63.7869 104.689 64.1032 104.809 64.4195 104.809C64.7358 104.809 65.0521 104.689 65.2937 104.447L72.301 97.4397C72.7846 96.9565 72.7846 96.1736 72.3014 95.6908H72.3013Z" fill="white"/>
<path d="M65.9461 58.6032C66.6291 58.6032 67.1827 58.0492 67.1827 57.3666V55.9534C67.1827 55.2703 66.6286 54.7168 65.9461 54.7168C65.263 54.7168 64.7095 55.2708 64.7095 55.9534V57.3666C64.7095 58.0492 65.263 58.6032 65.9461 58.6032Z" fill="white"/>
<path d="M65.9461 53.8864C66.6291 53.8864 67.1827 53.3324 67.1827 52.6498V52.4732H67.3593C68.0423 52.4732 68.5959 51.9192 68.5959 51.2366C68.5959 50.554 68.0423 50 67.3593 50H65.9461C65.263 50 64.7095 50.554 64.7095 51.2366V52.6498C64.7095 53.3328 65.263 53.8864 65.9461 53.8864Z" fill="white"/>
<path d="M88.4324 52.4732H91.0667C91.7497 52.4732 92.3033 51.9192 92.3033 51.2366C92.3037 50.554 91.7497 50 91.0671 50H88.4329C87.7498 50 87.1963 50.554 87.1963 51.2366C87.1958 51.9197 87.7498 52.4732 88.4324 52.4732Z" fill="white"/>
<path d="M72.6277 52.4732H75.262C75.945 52.4732 76.4986 51.9192 76.4986 51.2366C76.4981 50.554 75.9445 50 75.2615 50H72.6272C71.9442 50 71.3906 50.554 71.3906 51.2366C71.3911 51.9197 71.9446 52.4732 72.6277 52.4732Z" fill="white"/>
<path d="M80.5296 52.4732H83.1638C83.8469 52.4732 84.4004 51.9192 84.4004 51.2366C84.4004 50.554 83.8469 50 83.1638 50H80.5296C79.8465 50 79.293 50.554 79.293 51.2366C79.293 51.9197 79.847 52.4732 80.5296 52.4732Z" fill="white"/>
<path d="M96.3347 52.4732H96.5113V52.6498C96.5113 53.3328 97.0654 53.8864 97.7479 53.8864C98.431 53.8864 98.9845 53.3324 98.9845 52.6498V51.2366C98.9845 50.554 98.431 50 97.7479 50H96.3347C95.6517 50 95.0981 50.554 95.0981 51.2366C95.0981 51.9197 95.6517 52.4732 96.3347 52.4732Z" fill="white"/>
<path d="M97.7478 55.0884C97.0648 55.0884 96.5112 55.6424 96.5112 56.325V58.1622C96.5112 58.8453 97.0652 59.3988 97.7478 59.3988C98.4309 59.3988 98.9844 58.8448 98.9844 58.1622V56.325C98.9844 55.6419 98.4309 55.0884 97.7478 55.0884Z" fill="white"/>
<path d="M97.7479 112.935C97.272 112.935 96.8592 113.204 96.6525 113.598H95.5838C94.9007 113.598 94.3472 114.152 94.3472 114.834C94.3472 115.517 94.9012 116.071 95.5838 116.071H97.748C98.431 116.071 98.9845 115.517 98.9845 114.834V114.172C98.9845 113.489 98.431 112.935 97.7479 112.935Z" fill="white"/>
<path d="M89.9316 113.598H87.1052C86.4222 113.598 85.8687 114.152 85.8687 114.835C85.8687 115.517 86.4222 116.071 87.1052 116.071H89.9316C90.6147 116.071 91.1682 115.517 91.1682 114.835C91.1682 114.152 90.6147 113.598 89.9316 113.598Z" fill="white"/>
<path d="M72.9722 113.598H70.1458C69.4627 113.598 68.9092 114.152 68.9092 114.835C68.9087 115.517 69.4627 116.071 70.1458 116.071H72.9722C73.6552 116.071 74.2088 115.517 74.2088 114.835C74.2088 114.152 73.6552 113.598 72.9722 113.598Z" fill="white"/>
<path d="M97.7478 104.455C97.0648 104.455 96.5112 105.009 96.5112 105.692V108.518C96.5112 109.201 97.0652 109.755 97.7478 109.755C98.4309 109.755 98.9844 109.201 98.9844 108.518V105.692C98.9844 105.009 98.4309 104.455 97.7478 104.455Z" fill="white"/>
<path d="M81.4512 113.598H78.6248C77.9417 113.598 77.3882 114.152 77.3882 114.835C77.3882 115.517 77.9417 116.071 78.6248 116.071H81.4512C82.1342 116.071 82.6878 115.517 82.6878 114.835C82.6878 114.152 82.1342 113.598 81.4512 113.598Z" fill="white"/>
<defs>
<linearGradient id="paint0_linear_537_782" x1="0.0412371" y1="82.8949" x2="166" y2="82.8949" gradientUnits="userSpaceOnUse">
<stop stop-color="#11698E"/>
<stop offset="1" stop-color="#16C79A"/>
</linearGradient>
</defs>
</svg>
