<svg width="166" height="166" viewBox="0 0 166 166" fill="none" xmlns="http://www.w3.org/2000/svg">
<path d="M78 2.88675C81.094 1.10042 84.906 1.10042 88 2.88675L149.88 38.6133C152.974 40.3996 154.88 43.7008 154.88 47.2735V118.727C154.88 122.299 152.974 125.6 149.88 127.387L88 163.113C84.906 164.9 81.094 164.9 78 163.113L16.1199 127.387C13.0259 125.6 11.1199 122.299 11.1199 118.727V47.2735C11.1199 43.7008 13.0259 40.3996 16.1199 38.6133L78 2.88675Z" fill="url(#paint0_linear_537_785)"/>
<path d="M109.684 114.382H64.1463C63.527 114.382 63.0244 113.879 63.0244 113.26V106.471C63.0244 105.852 63.527 105.349 64.1463 105.349C64.7656 105.349 65.2682 105.852 65.2682 106.471L65.2687 112.138H108.561V106.472C108.561 105.853 109.064 105.35 109.683 105.35C110.303 105.35 110.805 105.853 110.805 106.472V113.26C110.805 113.879 110.303 114.382 109.683 114.382L109.684 114.382Z" fill="white"/>
<path d="M109.684 90.2777C109.065 90.2777 108.562 89.7751 108.562 89.1558L108.562 63.6086H97.1085C96.4892 63.6086 95.9866 63.1061 95.9866 62.4867V51.2467H65.2687V89.1544C65.2687 89.7737 64.7661 90.2763 64.1468 90.2763C63.5275 90.2763 63.0249 89.7737 63.0249 89.1544L63.0244 50.1256C63.0244 49.5062 63.527 49.0037 64.1463 49.0037H97.1078C97.7271 49.0037 98.2297 49.5062 98.2297 50.1256V61.3636H109.683C110.302 61.3636 110.805 61.8662 110.805 62.4855V89.155C110.805 89.7764 110.302 90.2789 109.683 90.2789L109.684 90.2777Z" fill="white"/>
<path d="M109.683 63.6081C109.4 63.6081 109.116 63.5004 108.897 63.2854L96.3224 50.9235C95.8809 50.4896 95.8734 49.779 96.3094 49.3356C96.7433 48.8941 97.4538 48.8866 97.8973 49.3225L110.472 61.6845C110.914 62.1184 110.921 62.829 110.485 63.2724C110.264 63.4949 109.975 63.6081 109.683 63.6081Z" fill="white"/>
<path d="M113.062 107.592H60.7658C59.4751 107.592 58.4253 106.542 58.4253 105.252V90.3718C58.4253 89.0811 59.475 88.0313 60.7658 88.0313H113.062C114.353 88.0313 115.403 89.0811 115.403 90.3718V105.252C115.401 106.542 114.351 107.592 113.062 107.592ZM60.7658 90.2777C60.7137 90.2777 60.6711 90.3202 60.6711 90.3724V105.252C60.6711 105.304 60.7137 105.347 60.7658 105.347H113.062C113.114 105.347 113.157 105.304 113.157 105.252V90.3724C113.157 90.3202 113.114 90.2777 113.062 90.2777H60.7658Z" fill="white"/>
<path d="M95.8301 81.564C95.552 81.564 95.2739 81.4618 95.0549 81.2543C94.6059 80.8259 94.5894 80.1154 95.0178 79.6664L98.6867 75.8197L95.0178 71.973C94.5894 71.5241 94.6059 70.814 95.0549 70.3851C95.5039 69.9567 96.2139 69.9732 96.6428 70.4222L101.052 75.0441C101.465 75.478 101.465 76.1604 101.052 76.5928L96.6423 81.2152C96.4218 81.4467 96.1267 81.564 95.8301 81.564Z" fill="white"/>
<path d="M78 81.564C77.7033 81.564 77.4082 81.4473 77.1877 81.2173L72.7788 76.5954C72.3654 76.1615 72.3654 75.4791 72.7788 75.0467L77.1877 70.4243C77.6161 69.9753 78.3267 69.9588 78.7756 70.3872C79.2246 70.8156 79.2411 71.5261 78.8127 71.9751L75.1434 75.8218L78.8123 79.6685C79.2407 80.1175 79.2242 80.8275 78.7752 81.2564C78.5563 81.4598 78.2782 81.5641 78.0001 81.5641L78 81.564Z" fill="white"/>
<path d="M84.9689 82.5671C84.8467 82.5671 84.7239 82.5466 84.6016 82.506C84.0154 82.3041 83.7057 81.6642 83.9082 81.0779L87.7995 69.8289C88.0014 69.2426 88.6413 68.933 89.2276 69.1354C89.8138 69.3373 90.1235 69.9772 89.9211 70.5635L86.0297 81.8125C85.8684 82.276 85.4344 82.5671 84.9689 82.5671Z" fill="white"/>
<path d="M93.3582 103.387C92.7389 103.387 92.2363 102.885 92.2363 102.265V93.3609C92.2363 92.7416 92.7389 92.239 93.3582 92.239C93.9776 92.239 94.4801 92.7416 94.4801 93.3609V102.265C94.4806 102.885 93.9776 103.387 93.3582 103.387Z" fill="white"/>
<path d="M96.6432 99.0799H93.3587C92.7394 99.0799 92.2368 98.5773 92.2368 97.958C92.2368 97.3387 92.7394 96.8361 93.3587 96.8361L96.6432 96.8356C97.2926 96.8356 97.8192 96.307 97.8192 95.6596C97.8192 95.0102 97.2906 94.4835 96.6432 94.4835H93.3587C92.7394 94.4835 92.2368 93.981 92.2368 93.3616C92.2368 92.7423 92.7394 92.2397 93.3587 92.2397H96.6432C98.5292 92.2397 100.065 93.7756 100.065 95.6616C100.064 97.5461 98.5297 99.0799 96.6432 99.0799Z" fill="white"/>
<path d="M74.8895 103.387C74.2702 103.387 73.7676 102.885 73.7676 102.265V93.3609C73.7676 92.7416 74.2702 92.239 74.8895 92.239C75.5088 92.239 76.0114 92.7416 76.0114 93.3609V102.265C76.0119 102.885 75.5093 103.387 74.8895 103.387Z" fill="white"/>
<path d="M78.172 99.0799H74.8875C74.2682 99.0799 73.7656 98.5773 73.7656 97.958C73.7656 97.3387 74.2682 96.8361 74.8875 96.8361H78.172C78.8214 96.8361 79.348 96.3075 79.348 95.6601C79.348 95.0107 78.8194 94.4841 78.172 94.4841L74.8875 94.4835C74.2682 94.4835 73.7656 93.981 73.7656 93.3616C73.7656 92.7423 74.2682 92.2397 74.8875 92.2397H78.172C80.058 92.2397 81.5938 93.7756 81.5938 95.6616C81.5938 97.5461 80.058 99.0799 78.172 99.0799Z" fill="white"/>
<path d="M83.9271 102.822C83.3078 102.822 82.8052 102.319 82.8052 101.7L82.8047 93.9246C82.8047 93.3053 83.3073 92.8027 83.9266 92.8027C84.5459 92.8027 85.0485 93.3053 85.0485 93.9246V101.7C85.049 102.319 84.5464 102.822 83.9271 102.822Z" fill="white"/>
<path d="M89.4369 98.9362H83.9266C83.3073 98.9362 82.8047 98.4337 82.8047 97.8143C82.8047 97.195 83.3073 96.6924 83.9266 96.6924H89.4369C90.0562 96.6924 90.5588 97.195 90.5588 97.8143C90.5588 98.4337 90.0562 98.9362 89.4369 98.9362Z" fill="white"/>
<path d="M89.4368 102.822C88.8175 102.822 88.3149 102.319 88.3149 101.7V93.9246C88.3149 93.3053 88.8175 92.8027 89.4368 92.8027C90.0562 92.8027 90.5587 93.3053 90.5587 93.9246V101.7C90.5587 102.319 90.0562 102.822 89.4368 102.822Z" fill="white"/>
<path d="M51.0601 117.883C51.0571 117.885 51.0541 117.886 51.0501 117.887C51.046 117.888 51.042 117.889 51.038 117.889C51.027 117.889 51.0185 117.886 51.012 117.879C51.005 117.873 51.002 117.864 51.002 117.853C51.002 117.843 51.005 117.834 51.012 117.827C51.0185 117.821 51.027 117.817 51.038 117.817C51.042 117.817 51.046 117.818 51.0501 117.819C51.0541 117.821 51.0571 117.822 51.0601 117.823V117.837C51.0571 117.835 51.0541 117.833 51.0501 117.833C51.047 117.832 51.044 117.831 51.04 117.831C51.0345 117.831 51.03 117.833 51.026 117.837C51.023 117.841 51.022 117.847 51.022 117.853C51.022 117.86 51.023 117.865 51.026 117.869C51.03 117.873 51.0345 117.875 51.04 117.875H51.0501C51.0541 117.874 51.0571 117.872 51.0601 117.869V117.883Z" fill="white"/>
<path d="M51.1103 117.851C51.1103 117.85 51.1093 117.849 51.1083 117.849C51.1068 117.848 51.1053 117.847 51.1043 117.847C51.0988 117.847 51.0948 117.849 51.0923 117.853C51.0908 117.856 51.0903 117.859 51.0903 117.863V117.887H51.0742V117.837H51.0903V117.845C51.0928 117.841 51.0948 117.839 51.0963 117.837C51.0988 117.836 51.1023 117.835 51.1063 117.835H51.1083H51.1103V117.851Z" fill="white"/>
<path d="M51.1698 117.861V117.867H51.1318C51.1328 117.871 51.1343 117.874 51.1358 117.875C51.1383 117.877 51.1418 117.877 51.1458 117.877C51.1498 117.877 51.1528 117.877 51.1558 117.875C51.1598 117.874 51.1638 117.873 51.1678 117.871V117.885C51.1638 117.885 51.1598 117.886 51.1558 117.887C51.1528 117.888 51.1498 117.889 51.1458 117.889C51.1348 117.889 51.1267 117.887 51.1217 117.881C51.1177 117.876 51.1157 117.87 51.1157 117.863C51.1157 117.854 51.1177 117.847 51.1217 117.843C51.1267 117.838 51.1343 117.835 51.1438 117.835C51.1518 117.835 51.1578 117.838 51.1618 117.843C51.1668 117.847 51.1698 117.853 51.1698 117.861ZM51.1538 117.857C51.1538 117.853 51.1523 117.851 51.1498 117.849C51.1483 117.848 51.1463 117.847 51.1438 117.847C51.1408 117.847 51.1383 117.848 51.1358 117.849C51.1343 117.851 51.1328 117.853 51.1318 117.857H51.1538Z" fill="white"/>
<path d="M51.2048 117.863C51.2018 117.863 51.1993 117.865 51.1968 117.867C51.1952 117.869 51.1947 117.87 51.1947 117.871C51.1947 117.873 51.1952 117.874 51.1968 117.875C51.1978 117.877 51.1998 117.877 51.2028 117.877C51.2068 117.877 51.2093 117.877 51.2108 117.875C51.2133 117.873 51.2148 117.87 51.2148 117.867V117.863H51.2048ZM51.2288 117.859V117.887H51.2148V117.879C51.2118 117.883 51.2093 117.886 51.2068 117.887C51.2038 117.888 51.2008 117.889 51.1968 117.889C51.1912 117.889 51.1867 117.888 51.1827 117.885C51.1797 117.881 51.1787 117.877 51.1787 117.871C51.1787 117.866 51.1807 117.862 51.1847 117.859C51.1887 117.857 51.1947 117.855 51.2028 117.855H51.2148V117.853C51.2148 117.851 51.2133 117.849 51.2108 117.849C51.2093 117.848 51.2058 117.847 51.2008 117.847H51.1907C51.1877 117.847 51.1852 117.848 51.1827 117.849V117.837H51.1927C51.1967 117.836 51.1998 117.835 51.2028 117.835C51.2133 117.835 51.2198 117.837 51.2228 117.841C51.2268 117.845 51.2288 117.851 51.2288 117.859Z" fill="white"/>
<path d="M51.2638 117.821V117.837H51.2798V117.847H51.2638V117.869V117.875H51.2698H51.2778V117.887H51.2658C51.2588 117.887 51.2538 117.886 51.2498 117.883C51.2468 117.881 51.2458 117.876 51.2458 117.869V117.847H51.2397V117.837H51.2458V117.821L51.2638 117.821Z" fill="white"/>
<path d="M51.3398 117.861V117.867H51.3017C51.3027 117.871 51.3042 117.874 51.3057 117.875C51.3082 117.877 51.3117 117.877 51.3157 117.877C51.3197 117.877 51.3227 117.877 51.3257 117.875C51.3297 117.874 51.3337 117.873 51.3378 117.871V117.885C51.3337 117.885 51.3297 117.886 51.3257 117.887C51.3227 117.888 51.3197 117.889 51.3157 117.889C51.3047 117.889 51.2967 117.887 51.2917 117.881C51.2876 117.876 51.2856 117.87 51.2856 117.863C51.2856 117.854 51.2876 117.847 51.2917 117.843C51.2967 117.838 51.3042 117.835 51.3137 117.835C51.3217 117.835 51.3277 117.838 51.3317 117.843C51.3368 117.847 51.3398 117.853 51.3398 117.861ZM51.3237 117.857C51.3237 117.853 51.3222 117.851 51.3197 117.849C51.3182 117.848 51.3162 117.847 51.3137 117.847C51.3107 117.847 51.3082 117.848 51.3057 117.849C51.3042 117.851 51.3027 117.853 51.3017 117.857H51.3237Z" fill="white"/>
<path d="M51.3867 117.843V117.817H51.4027V117.887H51.3867V117.879C51.3852 117.883 51.3827 117.886 51.3787 117.887C51.3757 117.888 51.3732 117.889 51.3707 117.889C51.3637 117.889 51.3587 117.887 51.3546 117.881C51.3506 117.876 51.3486 117.87 51.3486 117.863C51.3486 117.854 51.3506 117.847 51.3546 117.843C51.3587 117.838 51.3637 117.835 51.3707 117.835C51.3732 117.835 51.3757 117.836 51.3787 117.837C51.3827 117.839 51.3852 117.841 51.3867 117.843ZM51.3767 117.877C51.3792 117.877 51.3812 117.876 51.3827 117.873C51.3852 117.871 51.3867 117.867 51.3867 117.863C51.3867 117.858 51.3852 117.854 51.3827 117.851C51.3812 117.849 51.3792 117.847 51.3767 117.847C51.3727 117.847 51.3692 117.849 51.3667 117.851C51.3652 117.854 51.3647 117.858 51.3647 117.863C51.3647 117.867 51.3652 117.871 51.3667 117.873C51.3692 117.876 51.3727 117.877 51.3767 117.877Z" fill="white"/>
<path d="M51.4772 117.877C51.4812 117.877 51.4837 117.876 51.4852 117.873C51.4862 117.871 51.4872 117.867 51.4872 117.863C51.4872 117.858 51.4862 117.854 51.4852 117.851C51.4837 117.849 51.4812 117.847 51.4772 117.847C51.4732 117.847 51.4702 117.849 51.4692 117.851C51.4677 117.854 51.4672 117.858 51.4672 117.863C51.4672 117.867 51.4677 117.871 51.4692 117.873C51.4702 117.876 51.4732 117.877 51.4772 117.877ZM51.4672 117.843C51.4697 117.841 51.4722 117.839 51.4752 117.837C51.4777 117.836 51.4802 117.835 51.4832 117.835C51.4898 117.835 51.4953 117.838 51.4993 117.843C51.5033 117.847 51.5053 117.854 51.5053 117.863C51.5053 117.87 51.5033 117.876 51.4993 117.881C51.4953 117.887 51.4898 117.889 51.4832 117.889C51.4802 117.889 51.4777 117.888 51.4752 117.887C51.4722 117.886 51.4697 117.883 51.4672 117.879V117.887H51.4512V117.817H51.4672V117.843Z" fill="white"/>
<path d="M51.5117 117.837H51.5278L51.5398 117.871L51.5518 117.837H51.5698L51.5478 117.891C51.5448 117.898 51.5423 117.902 51.5398 117.903C51.5368 117.906 51.5328 117.907 51.5278 117.907H51.5177V117.895H51.5237H51.5298C51.5308 117.895 51.5323 117.893 51.5338 117.889L51.5117 117.837Z" fill="white"/>
<path d="M51.6726 117.883C51.6671 117.885 51.6626 117.886 51.6586 117.887C51.6545 117.888 51.649 117.889 51.6425 117.889C51.6315 117.889 51.623 117.886 51.6165 117.879C51.6095 117.873 51.6064 117.864 51.6064 117.853C51.6064 117.843 51.6095 117.834 51.6165 117.827C51.623 117.821 51.6325 117.817 51.6445 117.817C51.6495 117.817 51.6535 117.818 51.6566 117.819C51.6606 117.821 51.6646 117.822 51.6686 117.823V117.837C51.6646 117.835 51.6606 117.833 51.6566 117.833C51.6535 117.832 51.6505 117.831 51.6465 117.831C51.6395 117.831 51.6345 117.833 51.6305 117.837C51.6275 117.841 51.6265 117.847 51.6265 117.853C51.6265 117.86 51.6275 117.865 51.6305 117.869C51.6345 117.873 51.6395 117.875 51.6465 117.875H51.6505C51.6515 117.875 51.653 117.875 51.6545 117.873V117.861H51.6445V117.849H51.6726V117.883Z" fill="white"/>
<path d="M51.7226 117.851C51.7226 117.85 51.7216 117.849 51.7206 117.849C51.7191 117.848 51.7176 117.847 51.7166 117.847C51.7111 117.847 51.7071 117.849 51.7046 117.853C51.7031 117.856 51.7026 117.859 51.7026 117.863V117.887H51.6865V117.837H51.7026V117.845C51.7051 117.841 51.7071 117.839 51.7086 117.837C51.7111 117.836 51.7146 117.835 51.7186 117.835H51.7206H51.7226V117.851Z" fill="white"/>
<path d="M51.7541 117.863C51.7511 117.863 51.7486 117.865 51.7461 117.867C51.7446 117.869 51.7441 117.87 51.7441 117.871C51.7441 117.873 51.7446 117.874 51.7461 117.875C51.7471 117.877 51.7491 117.877 51.7521 117.877C51.7561 117.877 51.7586 117.877 51.7601 117.875C51.7626 117.873 51.7641 117.87 51.7641 117.867V117.863H51.7541ZM51.7781 117.859V117.887H51.7641V117.879C51.7611 117.883 51.7586 117.886 51.7561 117.887C51.7531 117.888 51.7501 117.889 51.7461 117.889C51.7406 117.889 51.736 117.888 51.732 117.885C51.729 117.881 51.728 117.877 51.728 117.871C51.728 117.866 51.73 117.862 51.734 117.859C51.738 117.857 51.7441 117.855 51.7521 117.855H51.7641V117.853C51.7641 117.851 51.7626 117.849 51.7601 117.849C51.7586 117.848 51.7551 117.847 51.7501 117.847H51.7401C51.737 117.847 51.7345 117.848 51.732 117.849V117.837H51.7421C51.7461 117.836 51.7491 117.835 51.7521 117.835C51.7626 117.835 51.7691 117.837 51.7721 117.841C51.7761 117.845 51.7781 117.851 51.7781 117.859Z" fill="white"/>
<path d="M51.8105 117.879V117.905H51.7944V117.837H51.8105V117.843C51.813 117.841 51.8155 117.839 51.8185 117.837C51.821 117.836 51.8235 117.835 51.8265 117.835C51.833 117.835 51.8385 117.838 51.8425 117.843C51.8465 117.847 51.8485 117.854 51.8485 117.863C51.8485 117.87 51.8465 117.876 51.8425 117.881C51.8385 117.887 51.833 117.889 51.8265 117.889C51.8235 117.889 51.821 117.888 51.8185 117.887C51.8155 117.886 51.813 117.883 51.8105 117.879ZM51.8205 117.847C51.8165 117.847 51.8135 117.849 51.8125 117.851C51.811 117.854 51.8105 117.858 51.8105 117.863C51.8105 117.867 51.811 117.871 51.8125 117.873C51.8135 117.876 51.8165 117.877 51.8205 117.877C51.8245 117.877 51.827 117.876 51.8285 117.873C51.8295 117.871 51.8305 117.867 51.8305 117.863C51.8305 117.858 51.8295 117.854 51.8285 117.851C51.827 117.849 51.8245 117.847 51.8205 117.847Z" fill="white"/>
<path d="M51.9134 117.857V117.887H51.8954V117.863V117.855C51.8954 117.854 51.8944 117.853 51.8934 117.851C51.8934 117.85 51.8924 117.849 51.8914 117.849C51.8914 117.848 51.8899 117.847 51.8874 117.847C51.8844 117.847 51.8819 117.849 51.8794 117.851C51.8779 117.854 51.8774 117.858 51.8774 117.863V117.887H51.8613V117.817H51.8774V117.843C51.8799 117.841 51.8824 117.839 51.8854 117.837C51.8879 117.836 51.8904 117.835 51.8934 117.835C51.8999 117.835 51.9044 117.837 51.9074 117.841C51.9114 117.845 51.9134 117.851 51.9134 117.857Z" fill="white"/>
<path d="M51.9272 117.837H51.9433V117.887H51.9272V117.837ZM51.9272 117.817H51.9433V117.829H51.9272V117.817Z" fill="white"/>
<path d="M51.9712 117.861L51.9531 117.837H51.9692L51.9812 117.851L51.9912 117.837H52.0092L51.9912 117.861L52.0092 117.887H51.9912L51.9812 117.871L51.9692 117.887H51.9531L51.9712 117.861Z" fill="white"/>
<path d="M52.0587 117.837V117.851C52.0547 117.849 52.0507 117.847 52.0467 117.847H52.0387H52.0307C52.0292 117.847 52.0287 117.849 52.0287 117.851C52.0287 117.853 52.0292 117.854 52.0307 117.855H52.0387H52.0407C52.0487 117.857 52.0537 117.859 52.0567 117.861C52.0592 117.863 52.0607 117.867 52.0607 117.873C52.0607 117.877 52.0587 117.881 52.0547 117.885C52.0517 117.888 52.0467 117.889 52.0387 117.889C52.0347 117.889 52.0307 117.888 52.0267 117.887C52.0237 117.887 52.0207 117.887 52.0167 117.885V117.873C52.0192 117.875 52.0217 117.876 52.0247 117.877H52.0367H52.0427C52.0437 117.876 52.0447 117.875 52.0447 117.873C52.0447 117.871 52.0437 117.869 52.0427 117.869C52.0427 117.869 52.0412 117.869 52.0387 117.867H52.0347C52.0277 117.866 52.0227 117.865 52.0187 117.863C52.0157 117.861 52.0146 117.857 52.0146 117.851C52.0146 117.846 52.0167 117.842 52.0207 117.839C52.0247 117.837 52.0307 117.835 52.0387 117.835C52.0412 117.835 52.0437 117.836 52.0467 117.837L52.0587 117.837Z" fill="white"/>
<path d="M52.112 117.901V117.909H52.0659V117.901H52.112Z" fill="white"/>
<path d="M52.1624 117.873H52.1344L52.1303 117.887H52.1123L52.1384 117.819H52.1584L52.1825 117.887H52.1664L52.1624 117.873ZM52.1384 117.863H52.1564L52.1484 117.835L52.1384 117.863Z" fill="white"/>
<path d="M52.228 117.851C52.228 117.85 52.227 117.849 52.226 117.849C52.2245 117.848 52.223 117.847 52.222 117.847C52.2164 117.847 52.2124 117.849 52.2099 117.853C52.2084 117.856 52.2079 117.859 52.2079 117.863V117.887H52.1919V117.837H52.2079V117.845C52.2104 117.841 52.2124 117.839 52.2139 117.837C52.2164 117.836 52.22 117.835 52.224 117.835H52.226H52.228V117.851Z" fill="white"/>
<path d="M52.256 117.821V117.837H52.272V117.847H52.256V117.869V117.875H52.262H52.27V117.887H52.258C52.251 117.887 52.246 117.886 52.242 117.883C52.2389 117.881 52.2379 117.876 52.2379 117.869V117.847H52.2319V117.837H52.2379V117.821L52.256 117.821Z" fill="white"/>
<path d="M51.0381 117.91V117.92H51.0301C51.0271 117.92 51.0251 117.921 51.0241 117.922V117.926V117.93H51.0381V117.94H51.0241V117.98H51.008V117.94H51V117.93H51.008V117.926C51.008 117.921 51.009 117.917 51.012 117.914C51.0145 117.911 51.019 117.91 51.0261 117.91H51.0381Z" fill="white"/>
<path d="M51.083 117.944C51.083 117.943 51.082 117.942 51.0809 117.942C51.0794 117.941 51.0779 117.94 51.0769 117.94C51.0714 117.94 51.0674 117.942 51.0649 117.946C51.0634 117.949 51.0629 117.952 51.0629 117.956V117.98H51.0469V117.93H51.0629V117.938C51.0654 117.934 51.0674 117.931 51.0689 117.93C51.0714 117.929 51.0749 117.928 51.0789 117.928H51.0809H51.083V117.944Z" fill="white"/>
<path d="M51.1164 117.94C51.1124 117.94 51.1089 117.941 51.1064 117.944C51.1049 117.945 51.1044 117.949 51.1044 117.956C51.1044 117.96 51.1049 117.963 51.1064 117.966C51.1089 117.969 51.1124 117.97 51.1164 117.97C51.1204 117.97 51.123 117.969 51.1245 117.966C51.127 117.963 51.1285 117.96 51.1285 117.956C51.1285 117.949 51.127 117.945 51.1245 117.944C51.123 117.941 51.1204 117.94 51.1164 117.94ZM51.1164 117.928C51.1245 117.928 51.131 117.931 51.1365 117.936C51.1415 117.94 51.1445 117.947 51.1445 117.956C51.1445 117.963 51.1415 117.969 51.1365 117.974C51.131 117.979 51.1245 117.982 51.1164 117.982C51.1069 117.982 51.0994 117.979 51.0944 117.974C51.0904 117.969 51.0884 117.963 51.0884 117.956C51.0884 117.947 51.0904 117.94 51.0944 117.936C51.0994 117.931 51.1069 117.928 51.1164 117.928Z" fill="white"/>
<path d="M51.2019 117.938C51.2044 117.935 51.2069 117.933 51.2099 117.932C51.2124 117.929 51.2149 117.928 51.2179 117.928C51.2244 117.928 51.2289 117.93 51.2319 117.934C51.2359 117.938 51.2379 117.943 51.2379 117.95V117.98H51.2199V117.954V117.952C51.2199 117.948 51.2189 117.945 51.2179 117.944C51.2179 117.941 51.2164 117.94 51.2139 117.94C51.2109 117.94 51.2084 117.941 51.2059 117.944C51.2044 117.947 51.2039 117.951 51.2039 117.956V117.98H51.1878V117.954C51.1878 117.949 51.1868 117.945 51.1858 117.944C51.1858 117.941 51.1843 117.94 51.1818 117.94C51.1778 117.94 51.1748 117.941 51.1738 117.944C51.1723 117.947 51.1718 117.951 51.1718 117.956V117.98H51.1558V117.93H51.1718V117.936L51.1778 117.93C51.1803 117.929 51.1838 117.928 51.1878 117.928C51.1903 117.928 51.1928 117.929 51.1958 117.932C51.1984 117.933 51.2004 117.935 51.2019 117.938Z" fill="white"/>
<path d="M51.3029 117.914V117.93H51.3189V117.94H51.3029V117.962V117.968H51.3089H51.3169V117.98H51.3049C51.2978 117.98 51.2928 117.979 51.2888 117.976C51.2858 117.973 51.2848 117.969 51.2848 117.962V117.94H51.2788V117.93H51.2848V117.914L51.3029 117.914Z" fill="white"/>
<path d="M51.3812 117.95V117.98H51.3632V117.956V117.948C51.3632 117.947 51.3622 117.945 51.3612 117.944C51.3612 117.943 51.3602 117.942 51.3592 117.942C51.3592 117.941 51.3577 117.94 51.3552 117.94C51.3522 117.94 51.3496 117.941 51.3471 117.944C51.3456 117.947 51.3451 117.951 51.3451 117.956V117.98H51.3291V117.91H51.3451V117.936C51.3476 117.933 51.3501 117.931 51.3532 117.93C51.3557 117.929 51.3582 117.928 51.3612 117.928C51.3677 117.928 51.3722 117.93 51.3752 117.934C51.3792 117.938 51.3812 117.943 51.3812 117.95Z" fill="white"/>
<path d="M51.4447 117.954V117.96H51.4067C51.4077 117.964 51.4092 117.967 51.4107 117.968C51.4132 117.969 51.4167 117.97 51.4207 117.97C51.4247 117.97 51.4277 117.969 51.4307 117.968C51.4347 117.967 51.4387 117.965 51.4427 117.964V117.978C51.4387 117.978 51.4347 117.979 51.4307 117.98C51.4277 117.981 51.4247 117.982 51.4207 117.982C51.4097 117.982 51.4016 117.979 51.3966 117.974C51.3926 117.969 51.3906 117.963 51.3906 117.956C51.3906 117.947 51.3926 117.94 51.3966 117.936C51.4016 117.931 51.4092 117.928 51.4187 117.928C51.4267 117.928 51.4327 117.931 51.4367 117.936C51.4417 117.94 51.4447 117.946 51.4447 117.954ZM51.4287 117.95C51.4287 117.946 51.4272 117.943 51.4247 117.942C51.4232 117.941 51.4212 117.94 51.4187 117.94C51.4157 117.94 51.4132 117.941 51.4107 117.942C51.4092 117.943 51.4077 117.946 51.4067 117.95H51.4287Z" fill="white"/>
<path d="M51.4897 117.912H51.5098L51.5338 117.958V117.912H51.5519V117.98H51.5318L51.5058 117.934V117.98H51.4897V117.912Z" fill="white"/>
<path d="M51.5915 117.94C51.5875 117.94 51.584 117.941 51.5815 117.944C51.58 117.945 51.5795 117.949 51.5795 117.956C51.5795 117.96 51.58 117.963 51.5815 117.966C51.584 117.969 51.5875 117.97 51.5915 117.97C51.5955 117.97 51.5981 117.969 51.5996 117.966C51.6021 117.963 51.6036 117.96 51.6036 117.956C51.6036 117.949 51.6021 117.945 51.5996 117.944C51.5981 117.941 51.5955 117.94 51.5915 117.94ZM51.5915 117.928C51.5996 117.928 51.6061 117.931 51.6116 117.936C51.6166 117.94 51.6196 117.947 51.6196 117.956C51.6196 117.963 51.6166 117.969 51.6116 117.974C51.6061 117.979 51.5996 117.982 51.5915 117.982C51.582 117.982 51.5745 117.979 51.5695 117.974C51.5655 117.969 51.5635 117.963 51.5635 117.956C51.5635 117.947 51.5655 117.94 51.5695 117.936C51.5745 117.931 51.582 117.928 51.5915 117.928Z" fill="white"/>
<path d="M51.6313 117.96V117.93H51.6474V117.934V117.946V117.952V117.962V117.966C51.6484 117.966 51.6494 117.967 51.6494 117.968H51.6554C51.6579 117.968 51.6599 117.967 51.6614 117.966C51.6639 117.963 51.6654 117.959 51.6654 117.954V117.93H51.6815V117.98H51.6654V117.972C51.6624 117.976 51.6599 117.979 51.6574 117.98C51.6544 117.981 51.6514 117.982 51.6474 117.982C51.6419 117.982 51.6379 117.98 51.6354 117.976C51.6323 117.972 51.6313 117.967 51.6313 117.96Z" fill="white"/>
<path d="M51.7494 117.95V117.98H51.7313V117.956V117.948C51.7313 117.947 51.7303 117.945 51.7293 117.944C51.7293 117.943 51.7283 117.942 51.7273 117.942C51.7273 117.941 51.7258 117.94 51.7233 117.94C51.7203 117.94 51.7178 117.941 51.7153 117.944C51.7138 117.947 51.7133 117.951 51.7133 117.956V117.98H51.6973V117.93H51.7133V117.936C51.7158 117.933 51.7183 117.931 51.7213 117.93C51.7238 117.929 51.7263 117.928 51.7293 117.928C51.7358 117.928 51.7404 117.93 51.7434 117.934C51.7474 117.938 51.7494 117.943 51.7494 117.95Z" fill="white"/>
<path d="M51.7954 117.912H51.8255C51.8335 117.912 51.8395 117.914 51.8435 117.918C51.8485 117.922 51.8515 117.928 51.8515 117.936C51.8515 117.943 51.8485 117.948 51.8435 117.952C51.8395 117.955 51.8335 117.956 51.8255 117.956H51.8134V117.98H51.7954L51.7954 117.912ZM51.8134 117.926V117.944H51.8235C51.826 117.944 51.828 117.943 51.8295 117.942C51.832 117.941 51.8335 117.939 51.8335 117.936C51.8335 117.932 51.832 117.929 51.8295 117.928C51.828 117.927 51.826 117.926 51.8235 117.926L51.8134 117.926Z" fill="white"/>
<path d="M51.8998 117.944C51.8998 117.943 51.8988 117.942 51.8978 117.942C51.8963 117.941 51.8948 117.94 51.8938 117.94C51.8883 117.94 51.8843 117.942 51.8818 117.946C51.8803 117.949 51.8798 117.952 51.8798 117.956V117.98H51.8638V117.93H51.8798V117.938C51.8823 117.934 51.8843 117.931 51.8858 117.93C51.8883 117.929 51.8918 117.928 51.8958 117.928H51.8978H51.8998V117.944Z" fill="white"/>
<path d="M51.9338 117.94C51.9298 117.94 51.9263 117.941 51.9238 117.944C51.9223 117.945 51.9218 117.949 51.9218 117.956C51.9218 117.96 51.9223 117.963 51.9238 117.966C51.9263 117.969 51.9298 117.97 51.9338 117.97C51.9378 117.97 51.9403 117.969 51.9418 117.966C51.9443 117.963 51.9458 117.96 51.9458 117.956C51.9458 117.949 51.9443 117.945 51.9418 117.944C51.9403 117.941 51.9378 117.94 51.9338 117.94ZM51.9338 117.928C51.9418 117.928 51.9484 117.931 51.9539 117.936C51.9589 117.94 51.9619 117.947 51.9619 117.956C51.9619 117.963 51.9589 117.969 51.9539 117.974C51.9484 117.979 51.9418 117.982 51.9338 117.982C51.9243 117.982 51.9168 117.979 51.9118 117.974C51.9078 117.969 51.9058 117.963 51.9058 117.956C51.9058 117.947 51.9078 117.94 51.9118 117.936C51.9168 117.931 51.9243 117.928 51.9338 117.928Z" fill="white"/>
<path d="M51.9734 117.93H51.9894V117.978C51.9894 117.984 51.9874 117.99 51.9834 117.994C51.9804 117.998 51.9759 118 51.9694 118H51.9634V117.988H51.9654C51.9679 117.988 51.9699 117.987 51.9714 117.986C51.9724 117.986 51.9734 117.983 51.9734 117.978L51.9734 117.93ZM51.9734 117.91H51.9894V117.922H51.9734V117.91Z" fill="white"/>
<path d="M52.0551 117.954V117.96H52.017C52.018 117.964 52.0195 117.967 52.021 117.968C52.0235 117.969 52.027 117.97 52.031 117.97C52.035 117.97 52.0381 117.969 52.0411 117.968C52.0451 117.967 52.0491 117.965 52.0531 117.964V117.978C52.0491 117.978 52.0451 117.979 52.0411 117.98C52.0381 117.981 52.035 117.982 52.031 117.982C52.02 117.982 52.012 117.979 52.007 117.974C52.003 117.969 52.001 117.963 52.001 117.956C52.001 117.947 52.003 117.94 52.007 117.936C52.012 117.931 52.0195 117.928 52.029 117.928C52.0371 117.928 52.0431 117.931 52.0471 117.936C52.0521 117.94 52.0551 117.946 52.0551 117.954ZM52.0391 117.95C52.0391 117.946 52.0376 117.943 52.0351 117.942C52.0335 117.941 52.0315 117.94 52.029 117.94C52.026 117.94 52.0235 117.941 52.021 117.942C52.0195 117.943 52.018 117.946 52.017 117.95H52.0391Z" fill="white"/>
<path d="M52.1101 117.93V117.944C52.1061 117.943 52.103 117.942 52.102 117.942C52.1005 117.941 52.098 117.94 52.094 117.94C52.09 117.94 52.0865 117.941 52.084 117.944C52.081 117.947 52.08 117.951 52.08 117.956C52.08 117.96 52.081 117.963 52.084 117.966C52.0865 117.969 52.09 117.97 52.094 117.97C52.098 117.97 52.1005 117.969 52.102 117.968C52.1046 117.967 52.1071 117.966 52.1101 117.966V117.978C52.1061 117.979 52.1025 117.98 52.1 117.98C52.0985 117.981 52.0965 117.982 52.094 117.982C52.083 117.982 52.075 117.979 52.07 117.974C52.066 117.969 52.064 117.963 52.064 117.956C52.064 117.947 52.066 117.94 52.07 117.936C52.075 117.931 52.083 117.928 52.094 117.928C52.0965 117.928 52.0985 117.929 52.1 117.93L52.1101 117.93Z" fill="white"/>
<path d="M52.1408 117.914V117.93H52.1568V117.94H52.1408V117.962V117.968H52.1468H52.1548V117.98H52.1428C52.1357 117.98 52.1307 117.979 52.1267 117.976C52.1237 117.973 52.1227 117.969 52.1227 117.962V117.94H52.1167V117.93H52.1227V117.914L52.1408 117.914Z" fill="white"/>
<defs>
<linearGradient id="paint0_linear_537_785" x1="0.0412371" y1="82.8949" x2="166" y2="82.8949" gradientUnits="userSpaceOnUse">
<stop stop-color="#11698E"/>
<stop offset="1" stop-color="#16C79A"/>
</linearGradient>
</defs>
</svg>
