<svg width="166" height="166" viewBox="0 0 166 166" fill="none" xmlns="http://www.w3.org/2000/svg">
<path d="M78 2.88675C81.094 1.10042 84.906 1.10042 88 2.88675L149.88 38.6133C152.974 40.3996 154.88 43.7008 154.88 47.2735V118.727C154.88 122.299 152.974 125.6 149.88 127.387L88 163.113C84.906 164.9 81.094 164.9 78 163.113L16.1199 127.387C13.0259 125.6 11.1199 122.299 11.1199 118.727V47.2735C11.1199 43.7008 13.0259 40.3996 16.1199 38.6133L78 2.88675Z" fill="url(#paint0_linear_537_831)"/>
<path d="M101.462 60.9545H101.712V60.7045V57.3523C101.712 56.0568 100.55 55.0908 99.1538 55.0908H66.8464C66.8463 55.0908 66.8462 55.0908 66.8462 55.0908C65.4494 55.0909 64.2886 56.0575 64.2886 57.3523V60.7045V60.9545H64.5386H101.462ZM64.5383 61.7953H64.2883V62.0453V102.273V102.523H64.5383H101.461H101.711V102.273V62.0453V61.7953H101.461H64.5383ZM86.0265 74.341L86.0265 74.3409C86.2019 74.3253 86.3769 74.4126 86.4876 74.5512C86.5996 74.6915 86.6112 74.834 86.5553 74.9327L86.5552 74.9326L86.5512 74.9402L78.8589 89.6902L78.8589 89.6902L78.8563 89.6953C78.8122 89.7849 78.7099 89.872 78.5645 89.9205C78.4206 89.9684 78.2654 89.9676 78.1428 89.918C77.8884 89.8146 77.8063 89.5326 77.9031 89.3649L77.9033 89.365L77.9082 89.3556L85.6005 74.6056L85.6006 74.6056L85.6022 74.6022C85.6667 74.4739 85.8319 74.3586 86.0265 74.341ZM74.9159 77.1924C74.9922 77.1076 75.1142 77.0425 75.2507 77.0236L75.2548 77.0232C75.4456 77.0077 75.6253 77.1192 75.7232 77.2867C75.8216 77.4548 75.8045 77.6109 75.7078 77.7067L75.7078 77.7067L75.7051 77.7094L71.5225 81.9835L71.351 82.1588L71.5229 82.3336L75.7055 86.5866L75.7197 86.601L75.7361 86.613C75.9421 86.7638 75.9429 87.0833 75.7398 87.2345C75.635 87.3125 75.4731 87.3486 75.3037 87.3246C75.1331 87.3004 75.0004 87.2221 74.9361 87.1287L74.9237 87.1107L74.9083 87.0951L70.2949 82.4044C70.2946 82.404 70.2943 82.4037 70.294 82.4033C70.1594 82.2618 70.1594 82.0337 70.294 81.8922C70.2943 81.8919 70.2946 81.8915 70.2949 81.8912L74.9083 77.2005L74.9085 77.2006L74.9159 77.1924ZM90.6218 77.0221L90.6292 77.0213C90.8079 77.0116 90.9844 77.0843 91.0826 77.1926L91.0824 77.1927L91.0895 77.2L95.7029 81.8907C95.7033 81.8911 95.7037 81.8914 95.704 81.8918C95.8385 82.0333 95.8385 82.2612 95.704 82.4027C95.7037 82.4031 95.7033 82.4035 95.7029 82.4039L91.0895 87.0946L91.0742 87.1102L91.0618 87.1282C90.9975 87.2216 90.8648 87.2999 90.6942 87.3241C90.5247 87.3481 90.3628 87.312 90.2581 87.234C90.0548 87.0827 90.056 86.7628 90.2616 86.6127L90.2781 86.6006L90.2924 86.5861L94.4749 82.3331L94.6469 82.1583L94.4754 81.983L90.2928 77.7089L90.2929 77.7089L90.2894 77.7055C90.1949 77.6127 90.1715 77.4674 90.2379 77.3142C90.3043 77.1608 90.4463 77.0411 90.6218 77.0221ZM64.5372 103.363H64.2872L64.2872 103.613L64.287 109.647C64.287 110.943 65.4486 111.909 66.8448 111.909H99.1525C100.549 111.909 101.71 110.942 101.71 109.647V103.613V103.363H101.46H64.5372ZM63.25 57.3523C63.25 55.6761 64.8335 54.25 66.8462 54.25H99.1538C101.166 54.25 102.75 55.6761 102.75 57.3523V109.648C102.75 111.324 101.166 112.75 99.1538 112.75H66.8462C64.8335 112.75 63.25 111.324 63.25 109.648V57.3523ZM80.9409 107.636C80.9409 106.695 81.8291 105.875 82.9988 105.875C84.1685 105.875 85.0566 106.695 85.0566 107.636C85.0566 108.578 84.1685 109.398 82.9988 109.398C81.8291 109.398 80.9409 108.578 80.9409 107.636Z" fill="white" stroke="white" stroke-width="0.5"/>
<defs>
<linearGradient id="paint0_linear_537_831" x1="0.0412371" y1="82.8949" x2="166" y2="82.8949" gradientUnits="userSpaceOnUse">
<stop stop-color="#11698E"/>
<stop offset="1" stop-color="#16C79A"/>
</linearGradient>
</defs>
</svg>
