<svg width="166" height="166" viewBox="0 0 166 166" fill="none" xmlns="http://www.w3.org/2000/svg">
<path d="M78 2.88675C81.094 1.10042 84.906 1.10042 88 2.88675L149.88 38.6133C152.974 40.3996 154.88 43.7008 154.88 47.2735V118.727C154.88 122.299 152.974 125.6 149.88 127.387L88 163.113C84.906 164.9 81.094 164.9 78 163.113L16.1199 127.387C13.0259 125.6 11.1199 122.299 11.1199 118.727V47.2735C11.1199 43.7008 13.0259 40.3996 16.1199 38.6133L78 2.88675Z" fill="url(#paint0_linear_540_947)"/>
<path d="M108.245 55.8162L98.939 50H64.0484C62.2609 50 60.8065 51.4545 60.8065 53.2419V75.9355H53.2419C51.4545 75.9355 50 77.39 50 79.1774V92.1452C50 93.9326 51.4545 95.3871 53.2419 95.3871H60.8065V113.758C60.8065 115.546 62.2609 117 64.0484 117H113.758C115.546 117 117 115.546 117 113.758V71.6129C117 65.1473 113.728 59.2417 108.245 55.8157L108.245 55.8162ZM112.179 62.6228C110.464 61.4775 108.405 60.8065 106.193 60.8065C105.003 60.8065 103.924 61.2908 103.141 62.0709L100.515 53.5338L107.099 57.6489C109.177 58.9476 110.893 60.652 112.179 62.6227L112.179 62.6228ZM108.355 63.2413V65.129C108.355 66.3211 107.385 67.2903 106.193 67.2903C105.001 67.2903 104.032 66.3211 104.032 65.129C104.032 63.9369 105.001 62.9677 106.193 62.9677C106.939 62.9677 107.663 63.0628 108.355 63.2413ZM52.161 92.1458V79.178C52.161 78.5827 52.6454 78.0974 53.2417 78.0974H85.661C86.2573 78.0974 86.7417 78.5827 86.7417 79.178V92.1458C86.7417 92.7411 86.2573 93.2264 85.661 93.2264H70.532V97.1018C70.532 97.467 70.025 97.6754 69.7678 97.4183L65.576 93.2265H53.2418C52.6455 93.2265 52.161 92.7411 52.161 92.1458ZM114.838 113.759C114.838 114.354 114.354 114.839 113.758 114.839H64.0481C63.4519 114.839 62.9675 114.354 62.9675 113.759V95.3877H64.6816L68.2391 98.9452C68.7239 99.4315 69.3964 99.7103 70.0848 99.7103C71.523 99.7103 72.6933 98.5399 72.6933 97.1018V95.3877H85.661C87.4485 95.3877 88.903 93.9332 88.903 92.1458V79.178C88.903 77.3906 87.4485 75.9361 85.661 75.9361H62.9675V53.2426C62.9675 52.6472 63.4519 52.1619 64.0481 52.1619H97.831L101.896 65.373C102.025 67.6413 103.893 69.4524 106.194 69.4524C108.578 69.4524 110.516 67.5135 110.516 65.1298V64.1292C113.099 65.6257 114.839 68.4204 114.839 71.6137L114.838 113.759Z" fill="white"/>
<path d="M70.625 88.8H68.375C67.7542 88.8 67.25 88.306 67.25 87.7H65C65 89.5195 66.5142 91 68.375 91H70.625C72.4858 91 74 89.5195 74 87.7C74 85.8805 72.4858 84.4 70.625 84.4H68.375C67.7542 84.4 67.25 83.906 67.25 83.3C67.25 82.694 67.7542 82.2 68.375 82.2H70.625C71.2458 82.2 71.75 82.694 71.75 83.3H74C74 81.4805 72.4858 80 70.625 80H68.375C66.5142 80 65 81.4805 65 83.3C65 85.1195 66.5142 86.6 68.375 86.6H70.625C71.2458 86.6 71.75 87.094 71.75 87.7C71.75 88.306 71.2458 88.8 70.625 88.8Z" fill="white"/>
<path d="M81.625 88.8H79.375C78.7542 88.8 78.25 88.306 78.25 87.7H76C76 89.5195 77.5142 91 79.375 91H81.625C83.4858 91 85 89.5195 85 87.7C85 85.8805 83.4858 84.4 81.625 84.4H79.375C78.7542 84.4 78.25 83.906 78.25 83.3C78.25 82.694 78.7542 82.2 79.375 82.2H81.625C82.2458 82.2 82.75 82.694 82.75 83.3H85C85 81.4805 83.4858 80 81.625 80H79.375C77.5142 80 76 81.4805 76 83.3C76 85.1195 77.5142 86.6 79.375 86.6H81.625C82.2458 86.6 82.75 87.094 82.75 87.7C82.75 88.306 82.2458 88.8 81.625 88.8Z" fill="white"/>
<path d="M59.625 80H57.375C55.5142 80 54 81.4805 54 83.3V87.7C54 89.5195 55.5142 91 57.375 91H59.625C61.4858 91 63 89.5195 63 87.7V86.6H60.75V87.7C60.75 88.306 60.2458 88.8 59.625 88.8H57.375C56.7542 88.8 56.25 88.306 56.25 87.7V83.3C56.25 82.694 56.7542 82.2 57.375 82.2H59.625C60.2458 82.2 60.75 82.694 60.75 83.3V84.4H63V83.3C63 81.4805 61.4858 80 59.625 80Z" fill="white"/>
<path d="M74 102.286C74 103.468 73.1031 104.429 72 104.429V106.571C73.1031 106.571 74 107.532 74 108.714C74 111.078 75.7942 113 78 113H80V110.857H78C76.8969 110.857 76 109.896 76 108.714C76 107.429 75.458 106.286 74.6178 105.5C75.458 104.714 76 103.571 76 102.286C76 101.104 76.8969 100.143 78 100.143H80V98H78C75.7942 98 74 99.9223 74 102.286Z" fill="white"/>
<path d="M110.75 102.286C110.75 99.9223 108.732 98 106.25 98H104V100.143H106.25C107.491 100.143 108.5 101.104 108.5 102.286C108.5 103.571 109.11 104.714 110.055 105.5C109.11 106.286 108.5 107.429 108.5 108.714C108.5 109.896 107.491 110.857 106.25 110.857H104V113H106.25C108.732 113 110.75 111.078 110.75 108.714C110.75 107.532 111.759 106.571 113 106.571V104.429C111.759 104.429 110.75 103.468 110.75 102.286Z" fill="white"/>
<path d="M85 111H87V113H85V111Z" fill="white"/>
<path d="M98 111H100V113H98V111Z" fill="white"/>
<path d="M89 111H91V113H89V111Z" fill="white"/>
<path d="M93 111H95V113H93V111Z" fill="white"/>
<path d="M74 54H65V65H74V54ZM71.75 62.8H67.25V56.2H71.75V62.8Z" fill="white"/>
<path d="M93 59H95V61H93V59Z" fill="white"/>
<path d="M76 59H91V61H76V59Z" fill="white"/>
<path d="M76 54H95V56H76V54Z" fill="white"/>
<path d="M76 63H95V65H76V63Z" fill="white"/>
<path d="M65 67H67V69H65V67Z" fill="white"/>
<path d="M69 67H95V69H69V67Z" fill="white"/>
<path d="M93 72H95V74H93V72Z" fill="white"/>
<path d="M65 72H91V74H65V72Z" fill="white"/>
<defs>
<linearGradient id="paint0_linear_540_947" x1="0.0412371" y1="82.8949" x2="166" y2="82.8949" gradientUnits="userSpaceOnUse">
<stop stop-color="#11698E"/>
<stop offset="1" stop-color="#16C79A"/>
</linearGradient>
</defs>
</svg>
