<svg width="166" height="166" viewBox="0 0 166 166" fill="none" xmlns="http://www.w3.org/2000/svg">
<path d="M78 2.88675C81.094 1.10042 84.906 1.10042 88 2.88675L149.88 38.6133C152.974 40.3996 154.88 43.7008 154.88 47.2735V118.727C154.88 122.299 152.974 125.6 149.88 127.387L88 163.113C84.906 164.9 81.094 164.9 78 163.113L16.1199 127.387C13.0259 125.6 11.1199 122.299 11.1199 118.727V47.2735C11.1199 43.7008 13.0259 40.3996 16.1199 38.6133L78 2.88675Z" fill="url(#paint0_linear_537_810)"/>
<path d="M58.6352 93.0926C56.2223 99.145 56.1497 104.232 58.9587 107.042C60.3987 108.482 62.435 109.166 64.8948 109.166V109.166C67.6545 109.069 70.3718 108.459 72.908 107.367C75.4812 113.352 79.0273 117 83.0001 117C86.973 117 90.5191 113.352 93.0922 107.366C95.6285 108.458 98.3459 109.068 101.105 109.165C103.564 109.165 105.602 108.481 107.042 107.042C109.851 104.232 109.778 99.1451 107.365 93.0921C113.351 90.5193 117 86.9733 117 83C117 79.0267 113.351 75.4805 107.365 72.9074C109.778 66.855 109.851 61.768 107.042 58.9579C104.232 56.149 99.1446 56.2211 93.0921 58.634C90.519 52.6485 86.9728 49 83 49C79.0266 49 75.4806 52.6485 72.9074 58.6345C66.8555 56.2211 61.7685 56.1485 58.9579 58.9579C56.149 61.7674 56.2211 66.8544 58.6345 72.9074C52.6485 75.4806 49 79.0267 49 83C49 86.9733 52.6485 90.5195 58.6345 93.0926L58.6352 93.0926ZM60.4613 105.539C58.2724 103.349 58.4981 99.0634 60.6065 93.8714C63.5781 94.9325 66.638 95.7284 69.7495 96.2506C70.2717 99.3622 71.0676 102.422 72.1287 105.394C66.9373 107.502 62.6512 107.727 60.4613 105.539ZM68.6917 85.3189C68.0718 84.5452 67.477 83.7726 66.9087 83.0004C67.4769 82.2286 68.0713 81.4559 68.6922 80.6818C68.6709 81.4483 68.6566 82.2191 68.6566 83.0004C68.6566 83.7816 68.6708 84.5523 68.6917 85.3189ZM65.602 81.1675C64.0424 78.9169 62.6612 76.5481 61.4711 74.0826C64.0561 73.1813 66.7076 72.4826 69.4013 71.9941C69.1689 73.6543 68.9901 75.3709 68.8634 77.1448C67.6995 78.4857 66.6123 79.8266 65.602 81.1675ZM68.8639 88.8558C68.9886 90.6269 69.1679 92.344 69.4018 94.0064H69.4013C66.7076 93.5179 64.0561 92.8192 61.4711 91.918C62.6611 89.4525 64.0424 87.0838 65.602 84.833C66.6114 86.1712 67.6986 87.5119 68.8639 88.8558ZM74.3604 74.3599C75.5581 73.1622 76.7723 72.0224 78.0022 70.9405C79.6353 70.8366 81.3011 70.784 83.0001 70.7812C84.6963 70.7812 86.3622 70.8343 87.998 70.9405C89.2247 72.021 90.4385 73.1608 91.6399 74.3599C92.8385 75.5585 93.9783 76.7732 95.0592 78.0041C95.1631 79.6362 95.2157 81.3016 95.2186 82.9997C95.2186 84.695 95.1655 86.3603 95.0597 87.9953C93.9787 89.2224 92.8389 90.4371 91.6403 91.6396C90.4417 92.8382 89.227 93.978 87.9961 95.059C86.3635 95.1628 84.6981 95.2155 83 95.2183C81.3048 95.2183 79.6394 95.1652 78.0044 95.0594C76.7774 93.9785 75.5626 92.8387 74.3601 91.6401C73.1615 90.4415 72.0217 89.2267 70.9408 87.9958C70.8369 86.3632 70.7842 84.6979 70.7814 82.9997C70.7814 81.3045 70.8345 79.6391 70.9403 78.0041C72.0213 76.7771 73.1615 75.5624 74.3601 74.3599L74.3604 74.3599ZM71.2436 74.5216C71.3518 73.536 71.4779 72.5693 71.6221 71.6216C72.5694 71.4779 73.536 71.3517 74.5222 71.2431C73.9658 71.7701 73.4103 72.3051 72.8582 72.8577C72.3057 73.4093 71.7706 73.9648 71.2436 74.5216ZM80.676 68.6917C81.4515 68.0699 82.2261 67.4747 83.0002 66.9069C83.7739 67.4765 84.5484 68.0713 85.3245 68.6917C84.5561 68.6704 83.7834 68.6561 83.0002 68.6561C82.217 68.6561 81.444 68.6704 80.676 68.6917ZM91.4782 71.2431C92.4639 71.3513 93.4305 71.4774 94.3783 71.6216C94.522 72.5689 94.6482 73.5356 94.7568 74.5217C94.2298 73.9653 93.6948 73.4099 93.1422 72.8573C92.5905 72.3052 92.0351 71.7701 91.4782 71.2431ZM94.7567 91.4776C94.6486 92.4633 94.5224 93.4299 94.3782 94.3776C93.432 94.5214 92.4663 94.6475 91.4816 94.7557C92.037 94.2297 92.5906 93.6913 93.1427 93.1416C93.6948 92.5894 94.2299 92.034 94.7568 91.4772L94.7567 91.4776ZM85.3186 97.3075C84.545 97.928 83.7724 98.5223 83.0001 99.091C82.2284 98.5228 81.4557 97.9285 80.6816 97.3075C81.4481 97.3284 82.2189 97.3426 83.0001 97.3426C83.7814 97.3426 84.5521 97.3284 85.3186 97.3075ZM74.5188 94.7556C73.5346 94.6475 72.5689 94.5213 71.6222 94.3776C71.4785 93.4304 71.3523 92.4637 71.2437 91.4776C71.7707 92.034 72.3057 92.5894 72.8583 93.142C73.409 93.6927 73.9629 94.2306 74.5188 94.7556ZM71.994 96.5979C73.6532 96.8299 75.3693 97.0092 77.1419 97.1353C78.4828 98.2998 79.8237 99.3874 81.1651 100.399V100.399C78.9155 101.958 76.5476 103.338 74.0826 104.528C73.1814 101.943 72.4826 99.2916 71.9942 96.5979L71.994 96.5979ZM83.0002 114.874C79.9048 114.874 77.0342 111.684 74.8542 106.523C77.705 105.171 80.4313 103.569 83.0002 101.737C85.5696 103.569 88.2955 105.171 91.1467 106.523C88.9663 111.684 86.0956 114.874 83.0002 114.874ZM91.9175 104.529C89.453 103.339 87.0851 101.958 84.8355 100.399C86.1736 99.3896 87.5149 98.3015 88.8587 97.1356C90.6289 97.0109 92.345 96.8316 94.0066 96.5982C93.518 99.2919 92.8193 101.944 91.9177 104.529L91.9175 104.529ZM105.539 105.538C103.35 107.728 99.0637 107.502 93.8718 105.394C94.9328 102.421 95.7288 99.3621 96.251 96.25C99.3626 95.7278 102.422 94.932 105.394 93.8708C107.502 99.0628 107.728 103.349 105.539 105.538ZM97.3088 80.681C97.9287 81.4547 98.5235 82.2273 99.0918 82.9996C98.5235 83.7713 97.9292 84.544 97.3083 85.3181C97.3296 84.5516 97.3438 83.7808 97.3438 82.9996C97.3438 82.2183 97.3296 81.4476 97.3088 80.681ZM97.1366 77.144C97.0118 75.3729 96.8325 73.6558 96.5987 71.9934H96.5992C99.2929 72.4819 101.944 73.1806 104.529 74.0818C103.339 76.5473 101.958 78.916 100.398 81.1668C99.3891 79.8286 98.3019 78.4878 97.1366 77.144ZM97.1366 88.8545C98.3006 87.5141 99.3882 86.1732 100.398 84.8322C101.958 87.0829 103.339 89.4517 104.529 91.9172C101.944 92.8185 99.2929 93.5172 96.5991 94.0056C96.8311 92.3455 97.0104 90.6285 97.1366 88.855L97.1366 88.8545ZM114.875 82.9994C114.875 86.0953 111.684 88.9665 106.522 91.1469C105.171 88.2953 103.57 85.5688 101.739 82.9994C103.57 80.4301 105.171 77.7037 106.522 74.852C111.684 77.0324 114.875 79.9036 114.875 82.9994ZM101.085 58.9182C102.963 58.9182 104.491 59.4129 105.539 60.4606C107.728 62.6501 107.502 66.9361 105.394 72.128C102.422 71.067 99.3622 70.271 96.2506 69.7488C95.7284 66.6367 94.9325 63.5774 93.8714 60.6057C96.1491 59.5964 98.5966 59.0244 101.085 58.9182ZM94.0061 69.4007C92.3459 69.1682 90.629 68.9894 88.8549 68.8628C87.515 67.6988 86.1746 66.6121 84.8341 65.6019V65.6023C87.0843 64.0427 89.4521 62.661 91.9172 61.4701C92.8189 64.0551 93.5176 66.7071 94.0061 69.4007ZM82.9999 51.1248C86.0958 51.1248 88.9669 54.315 91.1469 59.4771C88.2958 60.828 85.5693 62.4288 82.9994 64.2602C80.43 62.4288 77.7041 60.8284 74.8524 59.4776C77.0329 54.3155 79.904 51.1248 82.9999 51.1248ZM74.0826 61.4697C76.5472 62.6607 78.9155 64.0425 81.1651 65.602C79.8275 66.6113 78.4871 67.6985 77.1443 68.8629C75.3732 68.9876 73.6561 69.1669 71.9937 69.4007V69.4003C72.4822 66.7065 73.1809 64.0551 74.0826 61.4697ZM60.461 60.4603C61.5087 59.4126 63.036 58.9179 64.9144 58.9179C67.4031 59.0241 69.8506 59.5966 72.1283 60.6054C71.0673 63.5771 70.2714 66.6364 69.7491 69.7485C66.6375 70.2707 63.5777 71.0666 60.6061 72.1277C58.4977 66.9358 58.2719 62.6498 60.461 60.4603ZM59.4782 74.8518C60.829 77.7034 62.4294 80.4299 64.2608 82.9993C62.4294 85.5686 60.829 88.295 59.4782 91.1467C54.3161 88.9663 51.1254 86.0951 51.1254 82.9993C51.1254 79.9034 54.3161 77.0322 59.4782 74.8518Z" fill="white"/>
<path d="M83.0008 92.0313C85.3962 92.0313 87.6933 91.0798 89.3866 89.386C91.0804 87.6927 92.0319 85.3956 92.0319 83.0002C92.0319 80.6048 91.0804 78.3077 89.3866 76.6144C87.6933 74.9206 85.3962 73.9691 83.0008 73.9691C80.6054 73.9691 78.3083 74.9206 76.615 76.6144C74.9212 78.3077 73.9697 80.6048 73.9697 83.0002C73.9726 85.3946 74.9245 87.6903 76.6179 89.3831C78.3107 91.0764 80.6065 92.0284 83.0008 92.0313ZM83.0008 76.0941C84.8327 76.0941 86.5891 76.8217 87.884 78.117C89.1794 79.4119 89.9069 81.1684 89.9069 83.0002C89.9069 84.832 89.1793 86.5885 87.884 87.8834C86.5891 89.1787 84.8327 89.9063 83.0008 89.9063C81.169 89.9063 79.4125 89.1787 78.1177 87.8834C76.8223 86.5885 76.0947 84.832 76.0947 83.0002C76.0966 81.1693 76.8251 79.4139 78.1196 78.119C79.4145 76.8246 81.1699 76.096 83.0008 76.0941Z" fill="white"/>
<path d="M83.0004 87.2495C84.1274 87.2495 85.2084 86.8018 86.0057 86.0049C86.8026 85.2076 87.2503 84.1266 87.2503 82.9996C87.2503 81.8727 86.8026 80.7916 86.0057 79.9943C85.2084 79.1975 84.1274 78.7497 83.0004 78.7497C81.8735 78.7497 80.7924 79.1975 79.9951 79.9943C79.1982 80.7916 78.7505 81.8727 78.7505 82.9996C78.7519 84.1266 79.2001 85.2067 79.9966 86.0035C80.7934 86.7999 81.8735 87.2481 83.0004 87.2495ZM83.0004 80.8747C83.5639 80.8747 84.1046 81.0985 84.5031 81.497C84.9015 81.8954 85.1254 82.4361 85.1254 82.9996C85.1254 83.5631 84.9015 84.1038 84.5031 84.5023C84.1046 84.9007 83.5639 85.1246 83.0004 85.1246C82.4369 85.1246 81.8962 84.9007 81.4978 84.5023C81.0993 84.1038 80.8755 83.5631 80.8755 82.9996C80.8759 82.4361 81.1003 81.8959 81.4982 81.4975C81.8967 81.0995 82.4369 80.8751 83.0004 80.8747Z" fill="white"/>
<defs>
<linearGradient id="paint0_linear_537_810" x1="0.0412371" y1="82.8949" x2="166" y2="82.8949" gradientUnits="userSpaceOnUse">
<stop stop-color="#11698E"/>
<stop offset="1" stop-color="#16C79A"/>
</linearGradient>
</defs>
</svg>
