<svg width="166" height="166" viewBox="0 0 166 166" fill="none" xmlns="http://www.w3.org/2000/svg">
<path d="M78 2.88675C81.094 1.10042 84.906 1.10042 88 2.88675L149.88 38.6133C152.974 40.3996 154.88 43.7008 154.88 47.2735V118.727C154.88 122.299 152.974 125.6 149.88 127.387L88 163.113C84.906 164.9 81.094 164.9 78 163.113L16.1199 127.387C13.0259 125.6 11.1199 122.299 11.1199 118.727V47.2735C11.1199 43.7008 13.0259 40.3996 16.1199 38.6133L78 2.88675Z" fill="url(#paint0_linear_540_1892)"/>
<path d="M105.037 111.813C105.963 110.801 106.458 109.468 106.417 108.097C106.377 106.726 105.803 105.425 104.819 104.469C103.835 103.514 102.517 102.98 101.146 102.98C99.7742 102.98 98.4564 103.514 97.4723 104.469C96.4881 105.425 95.9148 106.726 95.8743 108.097C95.8337 109.468 96.3287 110.801 97.2546 111.813C95.6635 112.551 94.3169 113.728 93.3715 115.205C92.4261 116.682 91.9212 118.397 91.9165 120.151C91.9165 120.501 92.0554 120.837 92.3026 121.084C92.5498 121.331 92.8853 121.47 93.235 121.47H109.056C109.406 121.47 109.742 121.331 109.989 121.084C110.236 120.837 110.375 120.501 110.375 120.151C110.37 118.397 109.865 116.682 108.92 115.205C107.975 113.728 106.628 112.551 105.037 111.813ZM98.5088 108.285C98.5088 107.585 98.7866 106.915 99.281 106.421C99.7754 105.926 100.446 105.648 101.146 105.648C101.845 105.648 102.516 105.926 103.01 106.421C103.505 106.915 103.783 107.585 103.783 108.285C103.783 108.985 103.505 109.655 103.01 110.149C102.516 110.644 101.845 110.922 101.146 110.922C100.446 110.922 99.776 110.643 99.2816 110.149C98.7872 109.654 98.5094 108.984 98.5088 108.285ZM94.6846 118.833C95.0937 116.832 96.4063 115.134 98.2392 114.234C100.073 113.334 102.219 113.334 104.052 114.234C105.885 115.134 107.198 116.832 107.607 118.833H94.6846Z" fill="white"/>
<path d="M58.9554 108.284C58.9596 109.591 59.4528 110.85 60.3381 111.812C58.747 112.55 57.4004 113.727 56.455 115.204C55.5096 116.68 55.0047 118.396 55 120.15C55 120.5 55.1389 120.835 55.3861 121.083C55.6333 121.33 55.9688 121.469 56.3185 121.469H72.14C72.4896 121.469 72.8251 121.33 73.0723 121.083C73.3195 120.835 73.4584 120.5 73.4584 120.15C73.4537 118.396 72.9487 116.68 72.0034 115.204C71.0581 113.727 69.7114 112.55 68.1204 111.812C69.287 110.525 69.7443 108.747 69.3429 107.057C68.9409 105.368 67.7324 103.985 66.1121 103.362C64.4911 102.738 62.6677 102.953 61.2369 103.937C59.806 104.921 58.9526 106.547 58.9554 108.284ZM70.6903 118.832H57.7682C58.1773 116.831 59.4899 115.132 61.3228 114.233C63.1563 113.333 65.3023 113.333 67.1358 114.233C68.9687 115.133 70.2812 116.831 70.6903 118.832ZM66.8662 108.284C66.8662 108.983 66.5884 109.654 66.094 110.148C65.5995 110.643 64.9285 110.921 64.2293 110.921C63.53 110.921 62.859 110.643 62.3646 110.148C61.8702 109.654 61.5924 108.983 61.5924 108.284C61.5924 107.584 61.8702 106.914 62.3646 106.419C62.859 105.925 63.53 105.647 64.2293 105.647C64.9285 105.647 65.5989 105.926 66.0934 106.42C66.5878 106.914 66.8656 107.585 66.8662 108.284Z" fill="white"/>
<path d="M82.6875 97.7361C82.3379 97.7355 82.0024 97.8744 81.7552 98.1216C81.508 98.3688 81.3691 98.7043 81.3691 99.0545V110.921H77.4137C76.6856 110.921 76.0952 111.51 76.0952 112.239C76.0952 112.967 76.6856 113.558 77.4137 113.558H87.9614C88.6894 113.558 89.2798 112.967 89.2798 112.239C89.2798 111.51 88.6894 110.921 87.9614 110.921H84.006V99.0545C84.006 98.7043 83.8671 98.3688 83.6199 98.1216C83.3726 97.8744 83.0371 97.7355 82.6875 97.7361Z" fill="white"/>
<path d="M109.057 45H56.3185C55.9688 44.9994 55.6333 45.1383 55.3861 45.3861C55.1389 45.6333 55 45.9688 55 46.3185V70.0522C55 70.7803 55.5904 71.3707 56.3185 71.3707C57.0466 71.3707 57.6369 70.7803 57.6369 70.0522V58.1861H107.738V84.5553H103.783C103.055 84.5553 102.465 85.1457 102.465 85.8738C102.465 86.6018 103.055 87.1922 103.783 87.1922H109.057C109.406 87.1922 109.742 87.0533 109.989 86.8061C110.236 86.5589 110.375 86.2234 110.375 85.8738V46.3185C110.375 45.9688 110.236 45.6333 109.989 45.3861C109.742 45.1383 109.406 44.9994 109.057 45ZM57.6369 47.6369H107.738V55.5477H57.6369V47.6369Z" fill="white"/>
<path d="M72.1399 50.274H64.2291C63.501 50.274 62.9106 50.8644 62.9106 51.5925C62.9106 52.3206 63.501 52.911 64.2291 52.911H72.1399C72.868 52.911 73.4583 52.3206 73.4583 51.5925C73.4583 50.8644 72.868 50.274 72.1399 50.274Z" fill="white"/>
<path d="M102.465 51.5916C102.465 52.3197 101.875 52.9101 101.147 52.9101C100.418 52.9101 99.8281 52.3197 99.8281 51.5916C99.8281 50.8635 100.418 50.2732 101.147 50.2732C101.875 50.2732 102.465 50.8635 102.465 51.5916Z" fill="white"/>
<path d="M97.1911 51.5916C97.1911 52.3197 96.6007 52.9101 95.8727 52.9101C95.1446 52.9101 94.5542 52.3197 94.5542 51.5916C94.5542 50.8635 95.1446 50.2732 95.8727 50.2732C96.6007 50.2732 97.1911 50.8635 97.1911 51.5916Z" fill="white"/>
<path d="M94.4519 82.0278C94.5201 81.554 94.5543 81.076 94.5549 80.5975C94.5566 76.7458 92.6878 73.1329 89.5429 70.9086C86.398 68.6842 82.3691 68.1256 78.738 69.41C75.1063 70.6949 72.3252 73.6627 71.2781 77.3696C68.6199 78.4532 66.6199 80.7151 65.869 83.4857C65.1179 86.2569 65.703 89.2193 67.4499 91.4965C69.1975 93.7744 71.9074 95.1064 74.778 95.0993H93.2364C95.4466 95.0987 97.5096 93.9916 98.7304 92.1493C99.9517 90.3069 100.168 87.9756 99.3078 85.9402C98.4473 83.9042 96.6239 82.4357 94.4519 82.0278ZM93.2364 92.4625H74.778C72.665 92.4695 70.6772 91.4601 69.4365 89.749C68.1963 88.038 67.8543 85.8348 68.5183 83.8289C69.1828 81.8224 70.7714 80.2585 72.7874 79.6252C73.2382 79.481 73.5778 79.1078 73.6785 78.6452C74.3248 75.651 76.4161 73.173 79.259 72.0316C82.1019 70.8909 85.3263 71.2359 87.8632 72.9528C90.4006 74.6692 91.9198 77.5338 91.918 80.5974C91.9068 81.3885 91.7914 82.1755 91.5754 82.9365C91.4671 83.3497 91.5648 83.7894 91.838 84.1172C92.1134 84.4433 92.5278 84.6181 92.9533 84.5875L93.2365 84.5528C94.2883 84.548 95.299 84.9624 96.0441 85.7046C96.7898 86.4469 97.2089 87.4551 97.2089 88.5076C97.2089 89.5594 96.7899 90.5677 96.0441 91.31C95.2989 92.0522 94.2883 92.4672 93.2364 92.4625Z" fill="white"/>
<path d="M61.5923 84.5547H57.6369V80.5993C57.6369 79.8713 57.0466 79.2809 56.3185 79.2809C55.5904 79.2809 55 79.8713 55 80.5993V85.8732C55 86.2228 55.1389 86.5583 55.3861 86.8055C55.6333 87.0527 55.9688 87.1916 56.3185 87.1916H61.5923C62.3204 87.1916 62.9108 86.6013 62.9108 85.8732C62.9108 85.1451 62.3204 84.5547 61.5923 84.5547Z" fill="white"/>
<path d="M57.6369 75.3253C57.6369 76.0534 57.0466 76.6438 56.3185 76.6438C55.5904 76.6438 55 76.0534 55 75.3253C55 74.5972 55.5904 74.0068 56.3185 74.0068C57.0466 74.0068 57.6369 74.5972 57.6369 75.3253Z" fill="white"/>
<defs>
<linearGradient id="paint0_linear_540_1892" x1="0.0412371" y1="82.8949" x2="166" y2="82.8949" gradientUnits="userSpaceOnUse">
<stop stop-color="#11698E"/>
<stop offset="1" stop-color="#16C79A"/>
</linearGradient>
</defs>
</svg>
