<svg width="166" height="166" viewBox="0 0 166 166" fill="none" xmlns="http://www.w3.org/2000/svg">
<path d="M78 2.88675C81.094 1.10042 84.906 1.10042 88 2.88675L149.88 38.6133C152.974 40.3996 154.88 43.7008 154.88 47.2735V118.727C154.88 122.299 152.974 125.6 149.88 127.387L88 163.113C84.906 164.9 81.094 164.9 78 163.113L16.1199 127.387C13.0259 125.6 11.1199 122.299 11.1199 118.726V47.2735C11.1199 43.7008 13.0259 40.3996 16.1199 38.6132L78 2.88675Z" fill="url(#paint0_linear_537_842)"/>
<path d="M50 53.75H49.75V54V113V113.25H50H116H116.25V113V54V53.75H116H50ZM51.6249 55.8812H114.375V65.4415H51.6249V55.8812ZM114.375 111.119H51.6249V67.5728H114.375V111.119Z" fill="white" stroke="white" stroke-width="0.5"/>
<path d="M100.988 59.5958H100.738V59.8458V61.477V61.727H100.988H110.041H110.291V61.477V59.8458V59.5958H110.041H100.988Z" fill="white" stroke="white" stroke-width="0.5"/>
<path d="M55.957 59.5958H55.707V59.8458V61.477V61.727H55.957H57.9045H58.1545V61.477V59.8458V59.5958H57.9045H55.957Z" fill="white" stroke="white" stroke-width="0.5"/>
<path d="M61.3457 59.5958H61.0957V59.8458V61.477V61.727H61.3457H63.2932H63.5432V61.477V59.8458V59.5958H63.2932H61.3457Z" fill="white" stroke="white" stroke-width="0.5"/>
<path d="M66.7285 59.5958H66.4785V59.8458V61.477V61.727H66.7285H68.676H68.926V61.477V59.8458V59.5958H68.676H66.7285Z" fill="white" stroke="white" stroke-width="0.5"/>
<path d="M66.0627 71.2657V71.0157H65.8127H54.8125H54.5625V71.2657V84.3166V84.5666H54.8125H65.8127H66.0627V84.3166V71.2657ZM64.1874 82.4347H56.4375V73.1469H64.1874V82.4347Z" fill="white" stroke="white" stroke-width="0.5"/>
<path d="M81.1881 71.2657V71.0157H80.9381H69.9375H69.6875V71.2657V84.3166V84.5666H69.9375H80.9381H81.1881V84.3166V71.2657ZM79.3132 82.4347H71.5624V73.1469H79.3132V82.4347Z" fill="white" stroke="white" stroke-width="0.5"/>
<path d="M96.3136 71.2657V71.0157H96.0636H85.0625H84.8125V71.2657V84.3166V84.5666H85.0625H96.0636H96.3136V84.3166V71.2657ZM94.4387 82.4347H86.6874V73.1469H94.4387V82.4347Z" fill="white" stroke="white" stroke-width="0.5"/>
<path d="M111.438 71.2657V71.0157H111.188H100.188H99.9375V71.2657V84.3166V84.5666H100.188H111.188H111.438V84.3166V71.2657ZM109.563 82.4347H101.813V73.1469H109.563V82.4347Z" fill="white" stroke="white" stroke-width="0.5"/>
<path d="M110.729 107.405H110.979V107.155V88.6667V88.4167H110.729H54.8105H54.5605V88.6667V107.155V107.405H54.8105H110.729ZM56.4355 90.5481H109.103L109.103 105.273H56.4348L56.4355 90.5481Z" fill="white" stroke="white" stroke-width="0.5"/>
<defs>
<linearGradient id="paint0_linear_537_842" x1="0.0412371" y1="82.8949" x2="166" y2="82.8949" gradientUnits="userSpaceOnUse">
<stop stop-color="#11698E"/>
<stop offset="1" stop-color="#16C79A"/>
</linearGradient>
</defs>
</svg>
