<svg width="166" height="166" viewBox="0 0 166 166" fill="none" xmlns="http://www.w3.org/2000/svg">
<path d="M78 2.88675C81.094 1.10042 84.906 1.10042 88 2.88675L149.88 38.6133C152.974 40.3996 154.88 43.7008 154.88 47.2735V118.727C154.88 122.299 152.974 125.6 149.88 127.387L88 163.113C84.906 164.9 81.094 164.9 78 163.113L16.1199 127.387C13.0259 125.6 11.1199 122.299 11.1199 118.727V47.2735C11.1199 43.7008 13.0259 40.3996 16.1199 38.6133L78 2.88675Z" fill="url(#paint0_linear_537_854)"/>
<path d="M105.177 64.512H61.1687C60.5477 64.512 60.0444 64.0088 60.0444 63.3878C60.0444 62.7668 60.5477 62.2636 61.1687 62.2636H105.177C105.798 62.2636 106.302 62.7668 106.302 63.3878C106.302 64.0088 105.798 64.512 105.177 64.512Z" fill="white"/>
<path d="M115.697 108H50.6489C49.1885 108 48 106.813 48 105.353V64.9114C48 63.4516 49.1885 62.2642 50.6489 62.2642H55.8309C56.4519 62.2642 56.9551 62.7674 56.9551 63.3884C56.9551 64.0094 56.4519 64.5127 55.8309 64.5127H50.6489C50.432 64.5127 50.2484 64.6952 50.2484 64.9115V105.353C50.2484 105.569 50.4315 105.752 50.6489 105.752H115.697C115.914 105.752 116.098 105.569 116.098 105.353V64.9115C116.098 64.6952 115.914 64.5127 115.697 64.5127H110.515C109.894 64.5127 109.391 64.0094 109.391 63.3884C109.391 62.7674 109.894 62.2642 110.515 62.2642H115.697C117.158 62.2642 118.346 63.4516 118.346 64.9114V105.353C118.345 106.813 117.158 108 115.697 108H115.697Z" fill="white"/>
<path d="M105.177 64.512H61.1687C60.5477 64.512 60.0444 64.0088 60.0444 63.3878C60.0444 62.7668 60.5477 62.2636 61.1687 62.2636H105.177C105.798 62.2636 106.302 62.7668 106.302 63.3878C106.302 64.0088 105.798 64.512 105.177 64.512Z" fill="white"/>
<path d="M115.697 108H50.6489C49.1885 108 48 106.813 48 105.353V64.9114C48 63.4516 49.1885 62.2642 50.6489 62.2642H55.8309C56.4519 62.2642 56.9551 62.7674 56.9551 63.3884C56.9551 64.0094 56.4519 64.5127 55.8309 64.5127H50.6489C50.432 64.5127 50.2484 64.6952 50.2484 64.9115V105.353C50.2484 105.569 50.4315 105.752 50.6489 105.752H115.697C115.914 105.752 116.098 105.569 116.098 105.353V64.9115C116.098 64.6952 115.914 64.5127 115.697 64.5127H110.515C109.894 64.5127 109.391 64.0094 109.391 63.3884C109.391 62.7674 109.894 62.2642 110.515 62.2642H115.697C117.158 62.2642 118.346 63.4516 118.346 64.9114V105.353C118.345 106.813 117.158 108 115.697 108H115.697Z" fill="white"/>
<path d="M105.177 64.512H61.1687C60.5477 64.512 60.0444 64.0088 60.0444 63.3878C60.0444 62.7668 60.5477 62.2636 61.1687 62.2636H105.177C105.798 62.2636 106.302 62.7668 106.302 63.3878C106.302 64.0088 105.798 64.512 105.177 64.512Z" fill="white"/>
<path d="M117.222 72.7048H49.1247C48.5037 72.7048 48.0005 72.2015 48.0005 71.5805V64.9118C48.0005 63.452 49.189 62.2646 50.6493 62.2646H55.8314C56.4524 62.2646 56.9556 62.7678 56.9556 63.3888C56.9556 64.0098 56.4524 64.513 55.8314 64.513H50.6493C50.4325 64.513 50.2489 64.6956 50.2489 64.9119V70.4564H116.098V64.9119C116.098 64.6956 115.914 64.513 115.697 64.513H110.515C109.894 64.513 109.391 64.0098 109.391 63.3888C109.391 62.7678 109.894 62.2646 110.515 62.2646H115.697C117.157 62.2646 118.346 63.452 118.346 64.9118V71.5805C118.346 72.2015 117.843 72.7048 117.222 72.7048H117.222Z" fill="white"/>
<path d="M60.4193 59H56.5798C55.5466 59 54.7061 59.8405 54.7061 60.8737V67.0569C54.7061 68.0901 55.5465 68.9306 56.5798 68.9306H60.4193C61.4525 68.9306 62.293 68.0901 62.293 67.0569V60.8737C62.293 59.8405 61.4525 59 60.4193 59ZM60.0446 61.2484V66.6821H56.9545V61.2484H60.0446Z" fill="white"/>
<path d="M109.765 59H105.926C104.893 59 104.052 59.8405 104.052 60.8737V67.0569C104.052 68.0901 104.893 68.9306 105.926 68.9306H109.765C110.799 68.9306 111.639 68.0901 111.639 67.0569V60.8737C111.639 59.8405 110.799 59 109.765 59ZM109.391 61.2484V66.6821H106.301V61.2484H109.391Z" fill="white"/>
<path d="M82.4852 87.595C81.9697 87.595 81.505 87.2379 81.3888 86.7138C81.2861 86.2497 81.1977 85.7373 81.126 85.1914C81.1249 85.1849 81.1244 85.1785 81.1238 85.1721C80.9777 84.0682 80.9038 82.8728 80.9038 81.6184C80.9038 79.6291 81.1174 73.1386 83.8675 73.1386C86.6175 73.1386 86.8311 79.6291 86.8311 81.6184C86.8311 82.8733 86.7567 84.0704 86.6106 85.1758C86.5452 85.7347 86.0704 86.1683 85.4944 86.1683C84.8734 86.1683 84.3702 85.6656 84.3702 85.0446C84.3702 84.9948 84.3734 84.944 84.3798 84.8947C84.5126 83.8969 84.5827 82.764 84.5827 81.6179C84.5827 78.8685 84.2117 76.9384 83.8675 75.961C83.5232 76.9385 83.1522 78.8685 83.1522 81.6179C83.1522 82.7641 83.2224 83.8974 83.3551 84.8947C83.3562 84.9022 83.3573 84.9097 83.3578 84.9167C83.4204 85.391 83.497 85.8316 83.5843 86.2267C83.7186 86.8332 83.3359 87.4333 82.7298 87.5671C82.6474 87.5864 82.5655 87.595 82.4852 87.595Z" fill="white"/>
<path d="M83.8665 104.804C81.117 104.804 80.9028 98.3151 80.9028 96.3259C80.9028 95.0619 80.9778 93.8584 81.1255 92.7492C81.1973 92.2037 81.2856 91.6919 81.3884 91.2299C81.5233 90.6239 82.1234 90.2416 82.73 90.3765C83.336 90.5109 83.7182 91.1116 83.5833 91.7176C83.495 92.1153 83.4179 92.5618 83.3547 93.0441C83.2214 94.0436 83.1513 95.1774 83.1513 96.3263C83.1513 99.0753 83.5223 101.005 83.8665 101.982C84.2107 101.005 84.5817 99.0753 84.5817 96.3263C84.5817 95.1785 84.5116 94.0442 84.3788 93.0462C84.3151 92.5617 84.238 92.1152 84.1497 91.718C84.0148 91.112 84.397 90.5114 85.003 90.3765C85.6096 90.2415 86.2097 90.6238 86.3446 91.2298C86.4474 91.6918 86.5357 92.2036 86.608 92.7517C86.7552 93.8593 86.8302 95.0627 86.8302 96.3262C86.8302 98.315 86.6166 104.804 83.8665 104.804L83.8665 104.804Z" fill="white"/>
<path d="M91.2202 91.9353C89.968 91.9353 88.771 91.8619 87.6629 91.7163C87.1034 91.6515 86.6687 91.1762 86.6687 90.5996C86.6687 89.9786 87.1714 89.4754 87.7924 89.4754H87.794C87.8433 89.4754 87.892 89.4786 87.9407 89.485C88.9423 89.6167 90.0762 89.6868 91.2208 89.6868C93.9698 89.6868 95.8992 89.3164 96.8767 88.9727C95.8997 88.629 93.9704 88.2586 91.2208 88.2586C90.0762 88.2586 88.9424 88.3282 87.9412 88.4604C87.4605 88.5236 87.0135 88.6006 86.612 88.689C86.0049 88.8234 85.4059 88.4406 85.2715 87.8346C85.1371 87.2286 85.5199 86.6279 86.1259 86.4941C86.5917 86.3908 87.1034 86.3024 87.6484 86.2312C88.7597 86.0845 89.9621 86.0101 91.2212 86.0101C93.21 86.0101 99.6994 86.2237 99.6994 88.9738C99.6983 91.7217 93.2096 91.9353 91.2202 91.9353Z" fill="white"/>
<path d="M76.514 91.9353C74.5246 91.9353 68.0342 91.7217 68.0342 88.9733C68.0342 86.2238 74.5246 86.0096 76.514 86.0096C77.7726 86.0096 78.9739 86.0841 80.0848 86.2307C80.7004 86.3121 81.1335 86.8769 81.0521 87.4925C80.9708 88.1082 80.406 88.5418 79.7903 88.4599C78.7909 88.3277 77.6576 88.2581 76.5135 88.2581C73.7641 88.2581 71.834 88.6285 70.8566 88.9722C71.8342 89.3159 73.7641 89.6864 76.5135 89.6864C77.6576 89.6864 78.792 89.6168 79.7936 89.4845C80.276 89.4214 80.723 89.3443 81.1223 89.2554C81.7289 89.121 82.329 89.5038 82.4634 90.1098C82.5978 90.7158 82.2155 91.3165 81.609 91.4508C81.1454 91.5536 80.633 91.642 80.0865 91.7137C78.9746 91.8604 77.7722 91.9353 76.5142 91.9353L76.514 91.9353Z" fill="white"/>
<path d="M93.8188 100.652C91.5606 100.652 88.1324 97.4272 86.9728 96.2671C86.0917 95.3864 85.2715 94.4576 84.6012 93.5818C84.2238 93.0887 84.3175 92.3831 84.8105 92.0057C85.3036 91.6278 86.0092 91.722 86.3866 92.215C86.998 93.0132 87.7501 93.865 88.5628 94.6771C90.5067 96.6219 92.133 97.7242 93.0677 98.1718C92.6196 97.2376 91.5174 95.6112 89.5735 93.6675C88.778 92.8714 87.9385 92.1288 87.1436 91.516C87.1324 91.5079 87.1217 91.4999 87.1105 91.4919C86.7159 91.1905 86.3444 90.9282 86.0066 90.7124C85.4836 90.3784 85.3299 89.683 85.664 89.1599C85.9985 88.6369 86.6934 88.4838 87.2164 88.8173C87.5965 89.0604 88.0082 89.35 88.4397 89.6781C88.4525 89.6872 88.4659 89.6969 88.4782 89.7065C89.3594 90.3827 90.2877 91.2023 91.1625 92.077C92.5683 93.4829 97.0041 98.2206 95.0635 100.166C94.7236 100.507 94.2974 100.652 93.8188 100.652L93.8188 100.652Z" fill="white"/>
<path d="M81.1214 89.3053C80.9147 89.3053 80.7059 89.2486 80.5186 89.1292C80.1085 88.8685 79.6818 88.5676 79.2503 88.2347C78.3745 87.5623 77.4473 86.7432 76.5709 85.8669C74.4483 83.7437 72.1801 80.8363 72.1812 79.0418C72.1817 78.3999 72.4488 77.9984 72.6731 77.7746C72.8948 77.5525 73.2957 77.2853 73.9371 77.2848H73.9382C75.7321 77.2848 78.639 79.5525 80.7616 81.6757C81.6519 82.5659 82.4495 83.4685 83.1321 84.3582C83.2826 84.5547 83.3645 84.7951 83.3645 85.0424C83.3645 85.6634 82.8612 86.1671 82.2402 86.1671C81.8618 86.1671 81.5272 85.9803 81.3232 85.6939C80.7135 84.9027 79.9699 84.0633 79.1711 83.265C77.2267 81.3206 75.6004 80.2184 74.6663 79.7703C75.1138 80.7045 76.2161 82.3314 78.1604 84.2757C78.9688 85.0841 79.8194 85.8363 80.6208 86.4514C81.0009 86.7442 81.3725 87.0065 81.7258 87.2314C82.2499 87.5649 82.4041 88.2598 82.0705 88.7833C81.8564 89.1211 81.4929 89.3053 81.1214 89.3053Z" fill="white"/>
<path d="M73.9387 100.658H73.9376C73.2963 100.658 72.8953 100.391 72.6715 100.167C70.7282 98.2236 75.1651 93.4847 76.5709 92.0784C77.4526 91.1966 78.3815 90.3765 79.2562 89.7067C79.7493 89.3288 80.4549 89.423 80.8323 89.9161C81.2097 90.4091 81.116 91.1147 80.623 91.4921C79.8253 92.1029 78.9736 92.8556 78.1609 93.6683C76.217 95.6122 75.1153 97.238 74.6678 98.1721C75.6026 97.7245 77.229 96.6218 79.1716 94.6779C79.9843 93.8653 80.737 93.0135 81.3478 92.2153C81.6487 91.8213 81.911 91.4503 82.1267 91.1125C82.4608 90.5889 83.1562 90.4364 83.6792 90.7699C84.2022 91.1039 84.3559 91.7993 84.0218 92.3224C83.7724 92.7126 83.4736 93.1361 83.1342 93.5809C82.4635 94.4573 81.6433 95.3861 80.7617 96.2674C78.6406 98.3899 75.7337 100.658 73.9388 100.658L73.9387 100.658Z" fill="white"/>
<path d="M87.7958 88.4693C87.458 88.4693 87.1234 88.3178 86.9023 88.0288C86.5249 87.5357 86.6185 86.8301 87.1116 86.4527C87.9141 85.8381 88.7657 85.0865 89.5736 84.2776C91.5175 82.3338 92.6198 80.7069 93.0678 79.7722C92.1336 80.2197 90.5072 81.3225 88.5629 83.2669C87.7642 84.0651 87.0211 84.9039 86.4114 85.6953C86.4028 85.707 86.3943 85.7188 86.3857 85.7301C86.0881 86.1182 85.8268 86.4886 85.6095 86.8307C85.2765 87.3548 84.5821 87.5106 84.0575 87.1776C83.5334 86.8446 83.3782 86.1503 83.7106 85.6257C83.9569 85.2381 84.2471 84.8243 84.5747 84.396C84.5838 84.3837 84.5924 84.3714 84.602 84.3591C85.2851 83.4693 86.0828 82.5662 86.973 81.6765C88.3789 80.2706 93.1172 75.8332 95.0631 77.7754C97.0064 79.7225 92.5695 84.4613 91.1637 85.8671C90.2868 86.744 89.3579 87.5636 88.4784 88.2371C88.2744 88.3939 88.034 88.4693 87.7958 88.4693Z" fill="white"/>
<path d="M83.8677 92.9535C81.6722 92.9535 79.8857 91.1677 79.8857 88.9716C79.8857 86.7761 81.6716 84.9902 83.8677 84.9902C86.0632 84.9902 87.849 86.7761 87.849 88.9716C87.849 91.1671 86.0632 92.9535 83.8677 92.9535ZM83.8677 87.2388C82.9121 87.2388 82.1343 88.0161 82.1343 88.9717C82.1343 89.9273 82.9116 90.7051 83.8677 90.7051C84.8233 90.7051 85.6006 89.9278 85.6006 88.9717C85.6006 88.0161 84.8233 87.2388 83.8677 87.2388Z" fill="white"/>
<defs>
<linearGradient id="paint0_linear_537_854" x1="0.0412371" y1="82.8949" x2="166" y2="82.8949" gradientUnits="userSpaceOnUse">
<stop stop-color="#11698E"/>
<stop offset="1" stop-color="#16C79A"/>
</linearGradient>
</defs>
</svg>
