<svg width="166" height="166" viewBox="0 0 166 166" fill="none" xmlns="http://www.w3.org/2000/svg">
<path d="M78 2.88675C81.094 1.10042 84.906 1.10042 88 2.88675L149.88 38.6133C152.974 40.3996 154.88 43.7008 154.88 47.2735V118.727C154.88 122.299 152.974 125.6 149.88 127.387L88 163.113C84.906 164.9 81.094 164.9 78 163.113L16.1199 127.387C13.0259 125.6 11.1199 122.299 11.1199 118.727V47.2735C11.1199 43.7008 13.0259 40.3996 16.1199 38.6133L78 2.88675Z" fill="url(#paint0_linear_540_936)"/>
<path d="M104.01 120.179H61.3571C59.1434 120.186 57.0174 119.311 55.4494 117.747C53.8814 116.184 53 114.06 53 111.846V54.3571C53 52.1406 53.8803 50.0152 55.4477 48.4477C57.0152 46.8802 59.1407 46 61.3571 46H98.743C99.3441 46.0011 99.9241 46.2208 100.375 46.6182L111.502 56.5086C112.036 56.9772 112.341 57.6527 112.342 58.3631V111.845C112.342 114.055 111.464 116.175 109.902 117.737C108.339 119.3 106.22 120.178 104.01 120.178L104.01 120.179ZM61.3571 50.9459C60.4525 50.9459 59.5843 51.3052 58.9447 51.9455C58.3045 52.5851 57.9452 53.4533 57.9452 54.3579V111.847C57.9518 112.748 58.3139 113.609 58.9536 114.244C59.5927 114.879 60.4565 115.234 61.3572 115.234H104.01C104.907 115.228 105.765 114.869 106.399 114.235C107.033 113.601 107.391 112.744 107.398 111.847V59.477L97.8046 50.9465L61.3571 50.9459Z" fill="white"/>
<path d="M109.871 96.5409H55.4736C54.5899 96.5409 53.7737 96.0695 53.3321 95.3046C52.8906 94.5396 52.8906 93.5969 53.3321 92.8319C53.7737 92.067 54.59 91.5956 55.4736 91.5956H109.871C110.755 91.5956 111.571 92.067 112.012 92.8319C112.454 93.5969 112.454 94.5396 112.012 95.3046C111.571 96.0695 110.755 96.5409 109.871 96.5409Z" fill="white"/>
<path d="M62.6939 112.613C62.4621 112.62 62.238 112.531 62.0741 112.367C61.9102 112.203 61.8214 111.979 61.8285 111.747V103.068C61.8263 102.845 61.9152 102.631 62.0758 102.475C62.2369 102.308 62.4621 102.219 62.6939 102.228C62.9246 102.225 63.1471 102.313 63.3121 102.475C63.4633 102.637 63.5511 102.848 63.5594 103.068V106.555H68.7518V103.068C68.7596 102.848 68.8473 102.637 68.9991 102.475C69.1636 102.313 69.386 102.225 69.6173 102.228C69.8491 102.219 70.0737 102.308 70.2354 102.475C70.3955 102.631 70.4849 102.845 70.4827 103.068V111.747C70.4893 111.979 70.4004 112.203 70.2365 112.367C70.0726 112.531 69.8485 112.62 69.6173 112.613C69.386 112.616 69.1636 112.527 68.9991 112.366C68.8418 112.198 68.7535 111.978 68.7518 111.747V108.286H63.5594V111.747C63.5571 111.978 63.4688 112.198 63.3121 112.366C63.1471 112.527 62.9246 112.616 62.6939 112.613Z" fill="white"/>
<path d="M72.9061 103.959C72.671 103.959 72.4469 103.86 72.288 103.687C72.1186 103.527 72.028 103.301 72.0407 103.068C72.0385 102.845 72.1279 102.631 72.288 102.475C72.4497 102.308 72.6743 102.219 72.9061 102.228H79.8294C80.0613 102.219 80.2859 102.308 80.4476 102.475C80.6077 102.631 80.6971 102.845 80.6949 103.068C80.7076 103.301 80.617 103.527 80.4476 103.687C80.2886 103.86 80.0646 103.959 79.8294 103.959H77.3568V111.747C77.3568 112.225 76.9694 112.613 76.4914 112.613C76.0135 112.613 75.626 112.225 75.626 111.747V103.959H72.9061Z" fill="white"/>
<path d="M83.1174 112.613C82.8861 112.62 82.662 112.531 82.4981 112.367C82.3342 112.203 82.2453 111.979 82.2519 111.747V103.068C82.226 102.696 82.4628 102.356 82.821 102.253C83.172 102.117 83.5705 102.24 83.7852 102.55L87.865 107.816L91.9448 102.624C92.1644 102.321 92.5574 102.2 92.909 102.327C93.2716 102.429 93.5167 102.766 93.5023 103.143V111.822C93.5023 112.3 93.1149 112.687 92.6369 112.687C92.1589 112.687 91.7715 112.3 91.7715 111.822V105.591L88.5571 109.67C88.3965 109.892 88.1382 110.021 87.865 110.016C87.5995 110.016 87.35 109.887 87.1971 109.67L83.9828 105.591V111.747C83.9828 111.982 83.884 112.206 83.7112 112.365C83.5556 112.525 83.3409 112.615 83.1173 112.613L83.1174 112.613Z" fill="white"/>
<path d="M102.849 110.882C103.327 110.882 103.715 111.269 103.715 111.747C103.715 112.225 103.327 112.613 102.849 112.613H95.9259C95.6941 112.62 95.47 112.531 95.3061 112.367C95.1421 112.203 95.0533 111.979 95.0605 111.747V103.068C95.0583 102.845 95.1477 102.631 95.3077 102.475C95.4689 102.308 95.6941 102.219 95.9259 102.228C96.1505 102.22 96.3674 102.31 96.5192 102.475C96.6859 102.629 96.7841 102.842 96.7913 103.068V110.882H102.849Z" fill="white"/>
<path d="M70.3096 83.0899C69.6523 83.0937 69.0209 82.8354 68.5539 82.3729L61.1361 74.9551C60.6681 74.4909 60.4048 73.859 60.4048 73.1994C60.4048 72.5398 60.6681 71.9079 61.1361 71.4437L68.5539 64.0259C69.1815 63.3989 70.0954 63.1538 70.9521 63.3834C71.8092 63.613 72.4782 64.282 72.7078 65.1391C72.9374 65.9957 72.6923 66.9096 72.0653 67.5373L66.3783 73.1994L72.0653 78.8615C72.5333 79.3257 72.7966 79.9577 72.7966 80.6172C72.7966 81.2768 72.5333 81.9087 72.0653 82.3729C71.5984 82.8354 70.967 83.0937 70.3096 83.0899Z" fill="white"/>
<path d="M95.0353 83.0899C94.378 83.0937 93.7466 82.8354 93.2796 82.3729C92.8116 81.9088 92.5483 81.2768 92.5483 80.6172C92.5483 79.9577 92.8116 79.3257 93.2796 78.8615L98.9666 73.1994L93.2796 67.5373C92.6527 66.9097 92.4076 65.9958 92.6372 65.1391C92.8668 64.282 93.5357 63.613 94.3929 63.3834C95.2495 63.1538 96.1634 63.3989 96.791 64.0259L104.209 71.4437C104.677 71.9079 104.94 72.5398 104.94 73.1994C104.94 73.859 104.677 74.4909 104.209 74.9551L96.791 82.3729C96.3241 82.8354 95.6927 83.0938 95.0353 83.0899Z" fill="white"/>
<defs>
<linearGradient id="paint0_linear_540_936" x1="0.0412371" y1="82.8949" x2="166" y2="82.8949" gradientUnits="userSpaceOnUse">
<stop stop-color="#11698E"/>
<stop offset="1" stop-color="#16C79A"/>
</linearGradient>
</defs>
</svg>
