<svg width="166" height="166" viewBox="0 0 166 166" fill="none" xmlns="http://www.w3.org/2000/svg">
<path d="M78 2.88675C81.094 1.10042 84.906 1.10042 88 2.88675L149.88 38.6133C152.974 40.3996 154.88 43.7008 154.88 47.2735V118.727C154.88 122.299 152.974 125.6 149.88 127.387L88 163.113C84.906 164.9 81.094 164.9 78 163.113L16.1199 127.387C13.0259 125.6 11.1199 122.299 11.1199 118.727V47.2735C11.1199 43.7008 13.0259 40.3996 16.1199 38.6133L78 2.88675Z" fill="url(#paint0_linear_537_559)"/>
<path d="M68.5932 78.4373H76.2494C76.8534 78.4373 77.3431 77.9476 77.3431 77.3436C77.3431 76.7396 76.8534 76.2498 76.2494 76.2498H68.5932C67.9893 76.2498 67.4995 76.7396 67.4995 77.3436C67.4995 77.9476 67.9893 78.4373 68.5932 78.4373Z" fill="white"/>
<path d="M65.312 77.3436C65.312 77.9476 64.8222 78.4373 64.2182 78.4373C63.6143 78.4373 63.1245 77.9476 63.1245 77.3436C63.1245 76.7396 63.6143 76.2498 64.2182 76.2498C64.8222 76.2498 65.312 76.7396 65.312 77.3436Z" fill="white"/>
<path d="M83.9052 103.593C83.9052 104.197 83.4155 104.687 82.8115 104.687C82.2075 104.687 81.7178 104.197 81.7178 103.593C81.7178 102.989 82.2075 102.499 82.8115 102.499C83.4155 102.499 83.9052 102.989 83.9052 103.593Z" fill="white"/>
<path d="M91.103 99.2381C91.4516 98.8392 91.6113 98.3089 91.5405 97.7835L89.8696 85.0462C89.81 84.6033 89.5923 84.1971 89.2558 83.9026C88.9199 83.6077 88.4888 83.4451 88.042 83.4437H86.5108V81.8284C86.5108 80.4691 85.7852 79.2127 84.6079 78.5331C83.4307 77.8534 81.9801 77.8534 80.8029 78.5331C79.6256 79.2128 78.9005 80.4691 78.9005 81.8284V83.446H77.3693C76.9225 83.4475 76.4914 83.6101 76.1554 83.905C75.82 84.1994 75.6022 84.6057 75.5427 85.0485L73.8639 97.7834C73.797 98.3087 73.9587 98.8375 74.3088 99.235C74.6584 99.6324 75.1618 99.8609 75.6915 99.8614H89.7175C90.2478 99.8629 90.7532 99.6358 91.1033 99.2379L91.103 99.2381ZM81.088 81.8283C81.088 80.9348 81.8121 80.2107 82.7056 80.2107C83.5986 80.2107 84.3232 80.9349 84.3232 81.8283V83.4459H81.0879L81.088 81.8283ZM77.671 85.631H78.9025V88.2647C78.9025 88.8692 79.3922 89.3585 79.9962 89.3585C80.6002 89.3585 81.0899 88.8692 81.0899 88.2647V85.631H84.3253V88.2647C84.3253 88.8692 84.815 89.3585 85.419 89.3585C86.023 89.3585 86.5127 88.8692 86.5127 88.2647V85.631H87.7432L88.7036 92.9327L76.7077 92.9332L77.671 85.631ZM76.0842 97.6787L76.4201 95.1206H88.9887L89.3256 97.6787H76.0842Z" fill="white"/>
<path d="M112.343 50H90.468C89.5979 50 88.7629 50.3457 88.1478 50.9609C87.5327 51.5762 87.1869 52.4112 87.1869 53.2811V67.4997H57.6561C56.786 67.4997 55.951 67.8454 55.3359 68.4606C54.7207 69.0758 54.3749 69.9108 54.3749 70.7808V106.874H51.0937C50.4897 106.874 50 107.364 50 107.968C50.0024 109.997 50.8096 111.944 52.2451 113.379C53.6801 114.814 55.6264 115.621 57.6561 115.624H107.968C109.998 115.621 111.944 114.814 113.379 113.379C114.814 111.944 115.622 109.997 115.624 107.968C115.624 107.678 115.509 107.399 115.304 107.194C115.099 106.989 114.82 106.874 114.53 106.874H111.249V74.062H112.343C113.213 74.062 114.048 73.7163 114.663 73.1011C115.278 72.4859 115.624 71.6509 115.624 70.7809V53.2811C115.624 52.411 115.278 51.576 114.663 50.9609C114.048 50.3458 113.213 50 112.343 50ZM107.968 113.437H57.656C56.3958 113.435 55.1745 112.999 54.1981 112.202C53.222 111.405 52.5506 110.296 52.2967 109.062H72.0127C72.2661 109.995 72.8169 110.82 73.5815 111.412C74.3457 112.004 75.2821 112.331 76.249 112.343H89.3738C90.3406 112.331 91.2771 112.004 92.0412 111.412C92.8054 110.819 93.3562 109.995 93.6101 109.062H113.326C113.072 110.296 112.401 111.405 111.425 112.202C110.448 112.999 109.227 113.435 107.967 113.437H107.968ZM91.233 109.11C90.8331 109.754 90.1315 110.148 89.3737 110.155H76.2489C75.472 110.149 74.7566 109.733 74.3656 109.062H91.2566C91.2469 109.077 91.2405 109.093 91.2327 109.11L91.233 109.11ZM109.06 106.874H56.561V70.7809C56.561 70.1769 57.0508 69.6872 57.6548 69.6872H87.1856C87.1231 70.4225 87.1909 71.1633 87.3867 71.8747H59.8422C59.2382 71.8747 58.7484 72.3644 58.7484 72.9684V103.593C58.7484 103.883 58.8637 104.161 59.0687 104.366C59.2738 104.571 59.5521 104.687 59.8422 104.687H78.4356C79.0396 104.687 79.5294 104.197 79.5294 103.593C79.5294 102.989 79.0396 102.499 78.4356 102.499H60.9359V74.0621H90.9967L91.7623 78.8922C91.8253 79.3014 92.1134 79.6397 92.5074 79.7672C92.9005 79.8814 93.3248 79.7769 93.6207 79.4937L98.9736 74.0622H104.685V102.499H87.1851C86.5811 102.499 86.0914 102.989 86.0914 103.593C86.0914 104.197 86.5811 104.687 87.1851 104.687H105.779C106.069 104.687 106.347 104.572 106.552 104.366C106.757 104.161 106.872 103.883 106.872 103.593V74.0622H109.06L109.06 106.874ZM113.435 70.7809C113.435 71.071 113.32 71.3493 113.115 71.5544C112.91 71.7594 112.631 71.8747 112.341 71.8747H98.5167C98.2237 71.8752 97.9434 71.9933 97.7383 72.2028L93.5821 76.4146L93.0114 72.8053C92.8219 71.5758 91.3293 71.9303 90.4665 71.882L90.466 71.8825C89.862 71.8825 89.3723 71.3927 89.3723 70.7887V53.2815C89.3723 52.6775 89.862 52.1877 90.466 52.1877H112.342C112.632 52.1877 112.91 52.303 113.115 52.5081C113.32 52.7131 113.436 52.9914 113.436 53.2815L113.435 70.7809Z" fill="white"/>
<path d="M107.692 54.4112L100.172 56.3799H97.3504C96.244 56.3941 95.205 56.915 94.5316 57.7935C93.8583 58.6724 93.6254 59.8111 93.8998 60.8833C94.1742 61.9556 94.9252 62.8428 95.9374 63.29V67.5C95.9374 67.79 96.0526 68.0683 96.2577 68.2734C96.4628 68.4785 96.7411 68.5937 97.0311 68.5937C102.217 68.5937 101.334 69.124 101.406 64.0909L107.569 66.5156C107.906 66.6479 108.287 66.6045 108.586 66.4004C108.884 66.1958 109.063 65.8569 109.062 65.4951V55.4689C109.059 55.131 108.902 54.8131 108.634 54.6066C108.367 54.4006 108.019 54.3283 107.692 54.4113L107.692 54.4112ZM97.3504 58.5674H99.2185V61.3934H97.3504C96.5702 61.3934 95.9373 60.7606 95.9373 59.9803C95.9373 59.2 96.5701 58.5674 97.3504 58.5674ZM99.2185 66.4061H98.1248V63.5809H99.2185V66.4061ZM106.875 63.8905L101.406 61.7426V58.3179L106.875 56.8906V63.8905Z" fill="white"/>
<path d="M94.4917 92.678C94.8301 92.8733 95.2471 92.8733 95.5854 92.678L101.952 89.0033C102.29 88.8075 102.499 88.4467 102.499 88.0561C102.499 87.6655 102.29 87.3042 101.952 87.1088L95.5854 83.4326C95.2471 83.2373 94.8301 83.2373 94.4917 83.4326C94.1533 83.628 93.9448 83.9893 93.9448 84.3799V91.7309C93.9448 92.1215 94.1533 92.4829 94.4917 92.6782V92.678ZM96.1323 86.2744L99.2177 88.0615L96.1323 89.8422V86.2744Z" fill="white"/>
<path d="M71.3271 83.4333C70.9887 83.2379 70.5717 83.2379 70.2333 83.4333L63.8667 87.1095C63.5283 87.3048 63.3198 87.6661 63.3198 88.0567C63.3198 88.4473 63.5283 88.8081 63.8667 89.0039C64.3042 89.1724 70.3876 92.9706 70.7802 92.8256V92.8252C71.3827 92.8217 71.8705 92.3339 71.8739 91.7314V84.3804C71.8739 83.9898 71.6654 83.6286 71.3271 83.4333ZM69.6865 89.8374L66.601 88.0621L69.6865 86.275V89.8374Z" fill="white"/>
<defs>
<linearGradient id="paint0_linear_537_559" x1="0.0412371" y1="82.8949" x2="166" y2="82.8949" gradientUnits="userSpaceOnUse">
<stop stop-color="#11698E"/>
<stop offset="1" stop-color="#16C79A"/>
</linearGradient>
</defs>
</svg>
