<svg width="166" height="166" viewBox="0 0 166 166" fill="none" xmlns="http://www.w3.org/2000/svg">
<path d="M78 2.88675C81.094 1.10042 84.906 1.10042 88 2.88675L149.88 38.6133C152.974 40.3996 154.88 43.7008 154.88 47.2735V118.727C154.88 122.299 152.974 125.6 149.88 127.387L88 163.113C84.906 164.9 81.094 164.9 78 163.113L16.1199 127.387C13.0259 125.6 11.1199 122.299 11.1199 118.727V47.2735C11.1199 43.7008 13.0259 40.3996 16.1199 38.6133L78 2.88675Z" fill="url(#paint0_linear_540_959)"/>
<path d="M97.3917 47.3559C97.1638 47.128 96.8546 47 96.5323 47H62.5065C60.2513 47.0027 58.0888 47.8995 56.4944 49.4944C54.8995 51.0888 54.0028 53.2513 54 55.5065V111.406C54.0027 113.661 54.8995 115.824 56.4944 117.418C58.0888 119.013 60.2513 119.91 62.5065 119.913H103.824C106.079 119.91 108.241 119.013 109.836 117.418C111.431 115.824 112.327 113.661 112.33 111.406V62.7977C112.33 62.4755 112.202 62.1663 111.974 61.9384L97.3917 47.3559ZM97.7476 51.149L108.181 61.5824H103.824C102.213 61.5808 100.668 60.9401 99.5291 59.8009C98.3899 58.6616 97.7492 57.1171 97.7476 55.5064V51.149ZM62.5065 49.4304H95.3171V55.5064C95.3199 57.7616 96.2166 59.9241 97.8116 61.5184C99.4059 63.1133 101.568 64.0101 103.824 64.0129H109.9V98.0387H56.4304V55.5064C56.432 53.8957 57.0727 52.3512 58.212 51.2119C59.3512 50.0727 60.8957 49.432 62.5065 49.4304ZM103.824 117.482H62.5065C60.8957 117.48 59.3512 116.84 58.212 115.701C57.0727 114.561 56.4321 113.017 56.4304 111.406V100.469H109.9V111.406C109.898 113.017 109.257 114.561 108.118 115.701C106.979 116.84 105.434 117.48 103.824 117.482Z" fill="white"/>
<path d="M80.7343 102.9C80.0632 102.9 79.519 103.444 79.519 104.115V111.406C79.519 112.077 78.9749 112.621 78.3038 112.621C77.6328 112.621 77.0886 112.077 77.0886 111.406C77.0886 110.735 76.5445 110.191 75.8734 110.191C75.2023 110.191 74.6582 110.735 74.6582 111.406C74.6582 112.709 75.3532 113.912 76.481 114.564C77.6089 115.215 78.9988 115.215 80.1266 114.564C81.2545 113.912 81.9495 112.709 81.9495 111.406V104.115C81.9495 103.793 81.8214 103.483 81.5936 103.256C81.3657 103.028 81.0565 102.9 80.7343 102.9Z" fill="white"/>
<path d="M88.0255 105.33H90.4559C91.127 105.33 91.6711 104.786 91.6711 104.115C91.6711 103.444 91.127 102.9 90.4559 102.9H88.0255C86.723 102.9 85.5197 103.595 84.8682 104.723C84.2172 105.85 84.2172 107.24 84.8682 108.368C85.5197 109.496 86.7229 110.191 88.0255 110.191C88.6966 110.191 89.2407 110.735 89.2407 111.406C89.2407 112.077 88.6966 112.621 88.0255 112.621H85.5951C84.924 112.621 84.3799 113.166 84.3799 113.837C84.3799 114.508 84.924 115.052 85.5951 115.052H88.0255C89.3281 115.052 90.5313 114.357 91.1828 113.229C91.8338 112.101 91.8338 110.711 91.1828 109.583C90.5313 108.456 89.3281 107.761 88.0255 107.761C87.3544 107.761 86.8103 107.216 86.8103 106.545C86.8103 105.874 87.3544 105.33 88.0255 105.33Z" fill="white"/>
<path d="M89.241 77.3803C89.241 78.0514 88.6968 78.5955 88.0258 78.5955C87.3547 78.5955 86.8105 78.0514 86.8105 77.3803C86.8105 76.7092 87.3547 76.1651 88.0258 76.1651C88.6968 76.1651 89.241 76.7092 89.241 77.3803Z" fill="white"/>
<path d="M79.5193 77.3803C79.5193 78.0514 78.9752 78.5955 78.3041 78.5955C77.633 78.5955 77.0889 78.0514 77.0889 77.3803C77.0889 76.7092 77.633 76.1651 78.3041 76.1651C78.9752 76.1651 79.5193 76.7092 79.5193 77.3803Z" fill="white"/>
<path d="M84.3801 77.3803C84.3801 78.0514 83.836 78.5955 83.1649 78.5955C82.4938 78.5955 81.9497 78.0514 81.9497 77.3803C81.9497 76.7092 82.4938 76.1651 83.1649 76.1651C83.836 76.1651 84.3801 76.7092 84.3801 77.3803Z" fill="white"/>
<path d="M67.3671 78.5956C68.0381 78.5961 68.5817 79.1397 68.5823 79.8108V84.6716C68.5834 85.6383 68.968 86.565 69.6515 87.248C70.3346 87.9315 71.2612 88.3162 72.2279 88.3173C72.899 88.3173 73.4431 87.7731 73.4431 87.1021C73.4431 86.431 72.899 85.8868 72.2279 85.8868C71.5569 85.8863 71.0133 85.3427 71.0127 84.6716V79.8108C71.0138 78.9135 70.6818 78.0477 70.0823 77.3804C70.6818 76.7131 71.0138 75.8473 71.0127 74.95V70.0891C71.0133 69.418 71.5569 68.8744 72.2279 68.8739C72.899 68.8739 73.4431 68.3298 73.4431 67.6587C73.4431 66.9876 72.899 66.4435 72.2279 66.4435C71.2612 66.4446 70.3346 66.8292 69.6515 67.5128C68.968 68.1958 68.5834 69.1224 68.5823 70.0891V74.95C68.5817 75.6211 68.0381 76.1646 67.3671 76.1652C66.696 76.1652 66.1519 76.7093 66.1519 77.3804C66.1519 78.0515 66.696 78.5956 67.3671 78.5956Z" fill="white"/>
<path d="M95.3167 84.6716C95.3161 85.3426 94.7725 85.8862 94.1014 85.8868C93.4304 85.8868 92.8862 86.4309 92.8862 87.102C92.8862 87.7731 93.4304 88.3172 94.1014 88.3172C95.0682 88.3161 95.9948 87.9315 96.6778 87.2479C97.3614 86.5649 97.746 85.6383 97.7471 84.6715V79.8107C97.7476 79.1396 98.2912 78.596 98.9623 78.5955C99.6334 78.5955 100.178 78.0514 100.178 77.3803C100.178 76.7092 99.6334 76.1651 98.9623 76.1651C98.2912 76.1645 97.7476 75.6209 97.7471 74.9499V70.089C97.746 69.1223 97.3614 68.1957 96.6778 67.5126C95.9948 66.8291 95.0682 66.4444 94.1014 66.4434C93.4304 66.4434 92.8862 66.9875 92.8862 67.6586C92.8862 68.3296 93.4304 68.8738 94.1014 68.8738C94.7725 68.8743 95.3161 69.4179 95.3167 70.089V74.9498C95.3156 75.8471 95.6476 76.7129 96.247 77.3802C95.6476 78.0475 95.3156 78.9134 95.3167 79.8107V84.6716Z" fill="white"/>
<defs>
<linearGradient id="paint0_linear_540_959" x1="0.0412371" y1="82.8949" x2="166" y2="82.8949" gradientUnits="userSpaceOnUse">
<stop stop-color="#11698E"/>
<stop offset="1" stop-color="#16C79A"/>
</linearGradient>
</defs>
</svg>
