<svg width="166" height="166" viewBox="0 0 166 166" fill="none" xmlns="http://www.w3.org/2000/svg">
<path d="M78 2.88675C81.094 1.10042 84.906 1.10042 88 2.88675L149.88 38.6133C152.974 40.3996 154.88 43.7008 154.88 47.2735V118.727C154.88 122.299 152.974 125.6 149.88 127.387L88 163.113C84.906 164.9 81.094 164.9 78 163.113L16.1199 127.387C13.0259 125.6 11.1199 122.299 11.1199 118.726V47.2735C11.1199 43.7008 13.0259 40.3996 16.1199 38.6132L78 2.88675Z" fill="url(#paint0_linear_537_842)"/>
<path d="M117.563 59.0417H114.526C114.44 58.8234 114.349 58.6075 114.251 58.3945L116.136 56.51C116.343 56.3029 116.459 56.022 116.459 55.7292C116.459 55.4364 116.343 55.1554 116.136 54.9483L111.719 50.5316C111.512 50.3246 111.231 50.2083 110.938 50.2083C110.645 50.2083 110.364 50.3246 110.157 50.5316L108.273 52.4167C108.06 52.3191 107.844 52.2274 107.626 52.1421V49.1042C107.626 48.8114 107.509 48.5304 107.302 48.3234C107.095 48.1163 106.814 48 106.521 48H99.8964C99.2866 48 98.7922 48.4944 98.7922 49.1042V52.1416C98.5739 52.2269 98.3579 52.3181 98.145 52.4162L96.2605 50.5316C96.0534 50.3246 95.7724 50.2083 95.4796 50.2083C95.1868 50.2083 94.9059 50.3246 94.6988 50.5316L90.2821 54.9483C90.0751 55.1554 89.9588 55.4364 89.9588 55.7292C89.9588 56.022 90.0751 56.3029 90.2821 56.51L92.1672 58.3945C92.0696 58.6075 91.9779 58.8234 91.8926 59.0417H88.8547C88.2449 59.0417 87.7505 59.5362 87.7505 60.1459V66.771C87.7505 67.0638 87.8668 67.3448 88.0739 67.5518C88.2809 67.7588 88.5619 67.8752 88.8547 67.8752H91.8921C91.9774 68.0935 92.0686 68.3094 92.1667 68.5224L90.2821 70.4069C90.0751 70.614 89.9588 70.8949 89.9588 71.1877C89.9588 71.4805 90.0751 71.7615 90.2821 71.9686L94.6988 76.3853C94.9059 76.5923 95.1868 76.7086 95.4796 76.7086C95.7724 76.7086 96.0534 76.5923 96.2605 76.3853L98.145 74.5007C98.3579 74.5983 98.5739 74.69 98.7922 74.7753V77.8127C98.7922 78.1055 98.9086 78.3865 99.1156 78.5935C99.3226 78.8006 99.6036 78.9169 99.8964 78.9169H106.521C106.814 78.9169 107.095 78.8006 107.302 78.5935C107.509 78.3865 107.626 78.1055 107.626 77.8127V74.7753C107.844 74.69 108.06 74.5988 108.273 74.5007L110.157 76.3853C110.364 76.5923 110.645 76.7086 110.938 76.7086C111.231 76.7086 111.512 76.5923 111.719 76.3853L116.136 71.9686C116.343 71.7615 116.459 71.4805 116.459 71.1877C116.459 70.8949 116.343 70.614 116.136 70.4069L114.251 68.5224C114.349 68.3094 114.44 68.0935 114.526 67.8752H117.563C117.856 67.8752 118.137 67.7588 118.344 67.5518C118.551 67.3448 118.667 67.0638 118.667 66.771V60.1459C118.667 59.8531 118.551 59.5721 118.344 59.3651C118.137 59.1581 117.856 59.0417 117.563 59.0417ZM116.459 65.6668H113.744C113.261 65.6668 112.835 65.9803 112.69 66.4407C112.498 67.0544 112.246 67.6474 111.938 68.2118C111.704 68.6416 111.781 69.175 112.127 69.5216L113.793 71.1877L110.938 74.0428L109.272 72.3761C108.925 72.0301 108.392 71.9532 107.962 72.1878C107.398 72.4959 106.805 72.7478 106.191 72.9401C105.731 73.0845 105.417 73.5109 105.417 73.9935V76.7086H101.001V73.9935C101.001 73.5109 100.687 73.0845 100.227 72.9401C99.6129 72.7478 99.0199 72.4959 98.4555 72.1878C98.0257 71.9532 97.4923 72.0301 97.1458 72.3761L95.4797 74.0428L92.6246 71.1877L94.2912 69.5216C94.6372 69.175 94.7141 68.6417 94.4795 68.2118C94.1714 67.6474 93.9195 67.0544 93.7273 66.4407C93.5828 65.9803 93.1565 65.6668 92.6739 65.6668H89.9587V61.2501H92.6739C93.1564 61.2501 93.5828 60.9366 93.7273 60.4762C93.9195 59.8625 94.1714 59.2695 94.4795 58.7051C94.7141 58.2752 94.6372 57.7419 94.2912 57.3953L92.6246 55.7292L95.4797 52.8741L97.1458 54.5408C97.4923 54.8868 98.0257 54.9637 98.4555 54.7291C99.0199 54.421 99.6129 54.1691 100.227 53.9768C100.687 53.8324 101.001 53.406 101.001 52.9234V50.2083H105.417V52.9234C105.417 53.406 105.731 53.8324 106.191 53.9768C106.805 54.1691 107.398 54.421 107.962 54.7291C108.392 54.9637 108.925 54.8868 109.272 54.5408L110.938 52.8741L113.793 55.7292L112.127 57.3953C111.781 57.7419 111.704 58.2752 111.938 58.7051C112.246 59.2695 112.498 59.8625 112.69 60.4762C112.835 60.9366 113.261 61.2501 113.744 61.2501H116.459V65.6668Z" fill="white"/>
<path d="M103.209 54.625C100.866 54.625 98.6192 55.5557 96.9629 57.2124C95.3062 58.8687 94.3755 61.1155 94.3755 63.4584C94.3755 65.8013 95.3062 68.0481 96.9629 69.7044C98.6192 71.3612 100.866 72.2918 103.209 72.2918C105.552 72.2918 107.799 71.3612 109.455 69.7044C111.112 68.0481 112.042 65.8013 112.042 63.4584C112.04 61.1164 111.108 58.8711 109.452 57.2153C107.796 55.5591 105.551 54.6274 103.209 54.625ZM103.209 70.0835C101.452 70.0835 99.7668 69.3855 98.524 68.1433C97.2818 66.9006 96.5838 65.2158 96.5838 63.4584C96.5838 61.7011 97.2818 60.0163 98.524 58.7736C99.7667 57.5313 101.452 56.8334 103.209 56.8334C104.966 56.8334 106.651 57.5313 107.894 58.7736C109.136 60.0163 109.834 61.7011 109.834 63.4584C109.832 65.2148 109.134 66.8992 107.891 68.1408C106.65 69.383 104.965 70.0815 103.209 70.0835Z" fill="white"/>
<path d="M103.209 59.0417C102.038 59.0417 100.915 59.5071 100.086 60.3352C99.2578 61.1638 98.7925 62.2873 98.7925 63.4585C98.7925 64.6296 99.2578 65.7531 100.086 66.5817C100.915 67.4098 102.038 67.8752 103.209 67.8752C104.38 67.8752 105.504 67.4098 106.332 66.5817C107.161 65.7531 107.626 64.6296 107.626 63.4585C107.624 62.2872 107.159 61.1648 106.331 60.3367C105.503 59.5091 104.38 59.0433 103.209 59.0417ZM103.209 65.6668C102.624 65.6668 102.062 65.4341 101.648 65.0201C101.234 64.606 101.001 64.0441 101.001 63.4585C101.001 62.8729 101.234 62.3109 101.648 61.8968C102.062 61.4828 102.624 61.2501 103.209 61.2501C103.795 61.2501 104.357 61.4828 104.771 61.8968C105.185 62.3109 105.418 62.8729 105.418 63.4585C105.417 64.0441 105.184 64.605 104.77 65.0191C104.356 65.4331 103.795 65.6663 103.209 65.6668Z" fill="white"/>
<path d="M102.105 103.209C100.641 103.209 99.2365 103.79 98.2008 104.826C97.1656 105.861 96.584 107.266 96.584 108.73C96.584 110.194 97.1657 111.598 98.2008 112.634C99.2364 113.669 100.641 114.251 102.105 114.251C103.569 114.251 104.973 113.669 106.009 112.634C107.044 111.598 107.626 110.194 107.626 108.73C107.624 107.266 107.042 105.863 106.007 104.828C104.972 103.792 103.568 103.21 102.105 103.209ZM102.105 112.042C101.226 112.042 100.383 111.693 99.7625 111.072C99.1415 110.451 98.7924 109.608 98.7924 108.73C98.7924 107.851 99.1414 107.008 99.7625 106.387C100.384 105.766 101.227 105.417 102.105 105.417C102.983 105.417 103.826 105.766 104.447 106.387C105.068 107.008 105.417 107.851 105.417 108.73C105.416 109.608 105.067 110.45 104.446 111.071C103.825 111.692 102.983 112.041 102.105 112.042Z" fill="white"/>
<path d="M54.6253 80.0211C54.6253 80.6309 54.1309 81.1253 53.5212 81.1253C52.9114 81.1253 52.417 80.6309 52.417 80.0211C52.417 79.4114 52.9114 78.9169 53.5212 78.9169C54.1309 78.9169 54.6253 79.4114 54.6253 80.0211Z" fill="white"/>
<path d="M103.209 108.73C103.209 109.34 102.714 109.834 102.105 109.834C101.495 109.834 101 109.34 101 108.73C101 108.12 101.495 107.626 102.105 107.626C102.714 107.626 103.209 108.12 103.209 108.73Z" fill="white"/>
<path d="M54.6253 86.6462C54.6253 87.2559 54.1309 87.7503 53.5212 87.7503C52.9114 87.7503 52.417 87.2559 52.417 86.6462C52.417 86.0364 52.9114 85.542 53.5212 85.542C54.1309 85.542 54.6253 86.0364 54.6253 86.6462Z" fill="white"/>
<path d="M54.6253 93.2712C54.6253 93.881 54.1309 94.3754 53.5212 94.3754C52.9114 94.3754 52.417 93.881 52.417 93.2712C52.417 92.6615 52.9114 92.1671 53.5212 92.1671C54.1309 92.1671 54.6253 92.6615 54.6253 93.2712Z" fill="white"/>
<path d="M106.521 81.1253H99.8963C99.2866 81.1253 98.7921 81.6197 98.7921 82.2295V89.9587H96.5838C96.1372 89.9587 95.7344 90.2279 95.5634 90.6405C95.3928 91.053 95.487 91.5277 95.803 91.8437L102.428 98.4688C102.635 98.6758 102.916 98.7921 103.209 98.7921C103.502 98.7921 103.783 98.6758 103.99 98.4688L110.615 91.8437C110.931 91.5277 111.025 91.053 110.854 90.6405C110.683 90.2279 110.281 89.9587 109.834 89.9587H107.626V82.2295C107.626 81.9367 107.509 81.6557 107.302 81.4487C107.095 81.2416 106.814 81.1253 106.521 81.1253ZM103.209 96.127L99.2496 92.1677H99.8963C100.189 92.1677 100.47 92.0514 100.677 91.8443C100.884 91.6373 101 91.3563 101 91.0635V83.3343H105.417V91.0635C105.417 91.3563 105.534 91.6373 105.741 91.8443C105.948 92.0514 106.229 92.1677 106.521 92.1677H107.168L103.209 96.127Z" fill="white"/>
<path d="M68.3637 97.4192C68.9626 97.1845 69.5383 96.8947 70.0835 96.5531V100.409C70.0835 100.856 70.3527 101.258 70.7653 101.429C71.1779 101.6 71.6525 101.506 71.9685 101.19L73.5302 99.628L78.9958 105.094V105.094C79.2028 105.301 79.4838 105.418 79.7766 105.418C80.0694 105.418 80.3504 105.301 80.5574 105.094L85.2423 100.409C85.4493 100.202 85.5656 99.9213 85.5656 99.6285C85.5656 99.3357 85.4493 99.0547 85.2423 98.8477L79.7766 93.382L81.3383 91.8204H81.3378C81.6537 91.5045 81.7479 91.0298 81.5773 90.6172C81.4063 90.2046 81.0036 89.9354 80.557 89.9354H72.2919V76.708H80.557C81.0036 76.708 81.4063 76.4389 81.5768 76.0263C81.7479 75.6137 81.6532 75.139 81.3378 74.823L79.7761 73.2614L85.2418 67.7958C85.4488 67.5888 85.5656 67.3078 85.5656 67.015C85.5656 66.7222 85.4488 66.4412 85.2418 66.2342L80.5569 61.5498C80.3499 61.3428 80.0689 61.2264 79.7761 61.2264C79.4833 61.2264 79.2023 61.3428 78.9953 61.5498L73.5297 67.0154L71.968 65.4538V65.4543C71.6521 65.1388 71.1774 65.0447 70.7653 65.2152C70.3527 65.3863 70.084 65.7885 70.0836 66.2346V70.113C69.5384 69.7714 68.9626 69.4815 68.3637 69.2469C66.1509 68.3621 63.2322 67.8746 60.146 67.8746C57.0597 67.8746 54.141 68.3621 51.9282 69.2474C49.3951 70.2604 48 71.7338 48 73.3954V93.2706C48 94.9323 49.3951 96.4058 51.9282 97.4187C54.141 98.304 57.0597 98.7915 60.146 98.7915C63.2322 98.7915 66.1509 98.304 68.3637 97.4187L68.3637 97.4192ZM72.2919 68.9011L72.7493 69.3585C72.9564 69.5656 73.2373 69.6819 73.5302 69.6819C73.823 69.6819 74.1039 69.5656 74.311 69.3585L79.7766 63.8929L82.8998 67.0162L77.4342 72.4818V72.4813C77.2272 72.6888 77.1108 72.9693 77.1108 73.2621C77.1108 73.5554 77.2272 73.8359 77.4342 74.0429L77.8912 74.5004H72.2919L72.2919 68.9011ZM72.2919 92.1443H77.8911L77.4337 92.6018C77.2267 92.8088 77.1103 93.0893 77.1103 93.3826C77.1103 93.6754 77.2267 93.9559 77.4337 94.1634L82.8993 99.629L79.7761 102.752L74.3105 97.2867L74.311 97.2862C74.1034 97.0791 73.8229 96.9628 73.5296 96.9628C73.2368 96.9628 72.9559 97.0791 72.7488 97.2862L72.2919 97.7436L72.2919 92.1443ZM60.1459 70.0835C66.2125 70.0835 70.0835 72.0454 70.0835 73.396C70.0835 74.7467 66.2125 76.7086 60.1459 76.7086C54.0794 76.7086 50.2083 74.7467 50.2083 73.396C50.2083 72.0454 54.0794 70.0835 60.1459 70.0835ZM50.2083 76.678C50.7535 77.0196 51.3293 77.3095 51.9282 77.5441C54.141 78.4294 57.0597 78.917 60.1459 78.917C63.2322 78.917 66.1509 78.4295 68.3637 77.5441C68.9626 77.3095 69.5383 77.0196 70.0835 76.678V80.0211C70.0835 81.3717 66.2125 83.3336 60.1459 83.3336C54.0794 83.3336 50.2083 81.3717 50.2083 80.0211V76.678ZM50.2083 83.3031C50.7535 83.6447 51.3293 83.9346 51.9282 84.1692C54.141 85.0545 57.0597 85.542 60.1459 85.542C63.2322 85.542 66.1509 85.0545 68.3637 84.1692C68.9626 83.9346 69.5383 83.6447 70.0835 83.3031V86.6462C70.0835 87.9968 66.2125 89.9587 60.1459 89.9587C54.0794 89.9587 50.2083 87.9968 50.2083 86.6462V83.3031ZM50.2083 93.2712V89.9282C50.7535 90.2698 51.3293 90.5596 51.9282 90.7943C54.141 91.6796 57.0597 92.1671 60.1459 92.1671C63.2322 92.1671 66.1509 91.6796 68.3637 90.7943C68.9626 90.5596 69.5383 90.2698 70.0835 89.9282V93.2712C70.0835 94.6219 66.2125 96.5838 60.1459 96.5838C54.0794 96.5838 50.2083 94.6219 50.2083 93.2712Z" fill="white"/>
<path d="M114.272 103.469C110.639 100.409 106.432 98.7922 102.105 98.7922C97.7779 98.7922 93.5707 100.409 89.9378 103.469C87.2138 105.763 85.7695 108.049 85.7098 108.145C85.486 108.503 85.486 108.957 85.7098 109.315C85.77 109.412 87.2133 111.697 89.9378 113.991C93.5707 117.051 97.7779 118.668 102.105 118.668C106.432 118.668 110.639 117.051 114.272 113.991C116.996 111.697 118.44 109.411 118.5 109.315C118.724 108.957 118.724 108.503 118.5 108.145C118.44 108.049 116.996 105.762 114.272 103.469ZM112.795 112.348C109.533 115.076 105.936 116.459 102.105 116.459C98.2734 116.459 94.6769 115.076 91.4146 112.347C90.1374 111.278 88.9888 110.064 87.9921 108.73C88.9888 107.395 90.1379 106.181 91.4151 105.112C94.6769 102.384 98.2734 101.001 102.105 101.001C105.936 101.001 109.533 102.384 112.795 105.112C114.072 106.181 115.221 107.395 116.218 108.73C115.221 110.064 114.072 111.278 112.795 112.347V112.348Z" fill="white"/>
<defs>
<linearGradient id="paint0_linear_537_842" x1="0.0412371" y1="82.8949" x2="166" y2="82.8949" gradientUnits="userSpaceOnUse">
<stop stop-color="#11698E"/>
<stop offset="1" stop-color="#16C79A"/>
</linearGradient>
</defs>
</svg>
