<svg width="166" height="166" viewBox="0 0 166 166" fill="none" xmlns="http://www.w3.org/2000/svg">
<path d="M78 2.88675C81.094 1.10042 84.906 1.10042 88 2.88675L149.88 38.6133C152.974 40.3996 154.88 43.7008 154.88 47.2735V118.727C154.88 122.299 152.974 125.6 149.88 127.387L88 163.113C84.906 164.9 81.094 164.9 78 163.113L16.1199 127.387C13.0259 125.6 11.1199 122.299 11.1199 118.727V47.2735C11.1199 43.7008 13.0259 40.3996 16.1199 38.6133L78 2.88675Z" fill="url(#paint0_linear_537_639)"/>
<path d="M118.567 106.1H114.911V66.6096C114.911 62.8627 111.868 59.8199 108.121 59.8199H58.5586C54.8116 59.8199 51.7689 62.8627 51.7689 66.6096V106.1H48.1014C47.4997 106.1 47 106.588 47 107.201C47 112.447 51.2691 116.716 56.5148 116.716H110.142C115.387 116.716 119.656 112.447 119.656 107.201C119.668 106.588 119.169 106.1 118.567 106.1ZM53.9603 66.6096C53.9603 64.0775 56.0156 62.0227 58.5472 62.0227H108.109C110.641 62.0227 112.695 64.078 112.695 66.6096V106.1H53.9595L53.9603 66.6096ZM110.154 114.514H56.5149C52.8589 114.514 49.8156 111.812 49.2824 108.292H69.8905C70.3903 110.348 72.2407 111.892 74.4435 111.892H91.3502C93.5645 111.892 95.4034 110.348 95.9031 108.292H117.374C116.852 111.812 113.809 114.514 110.153 114.514H110.154ZM93.5989 108.303C93.1901 109.132 92.3386 109.7 91.3621 109.7H74.4554C73.4789 109.7 72.6274 109.132 72.2186 108.303H93.5989Z" fill="white"/>
<path d="M108.109 65.5086H58.5584C57.9453 65.5086 57.457 65.9968 57.457 66.61V101.513C57.457 102.126 57.9453 102.614 58.5584 102.614H108.12C108.733 102.614 109.221 102.126 109.221 101.513V66.61C109.21 65.9968 108.722 65.5086 108.109 65.5086H108.109ZM107.008 100.411H59.6597V67.7112H107.018V100.411H107.008Z" fill="white"/>
<path d="M63.6571 72.4934H72.6271C73.2403 72.4934 73.7285 72.0052 73.7285 71.392C73.7285 70.7789 73.2403 70.2906 72.6271 70.2906H63.6571C63.0439 70.2906 62.5557 70.7788 62.5557 71.392C62.5557 72.0052 63.0439 72.4934 63.6571 72.4934Z" fill="white"/>
<path d="M63.6571 76.7044H67.347C67.9602 76.7044 68.4484 76.2162 68.4484 75.603C68.4484 74.9899 67.9602 74.5016 67.347 74.5016H63.6571C63.0439 74.5016 62.5557 74.9899 62.5557 75.603C62.5557 76.2162 63.0439 76.7044 63.6571 76.7044Z" fill="white"/>
<path d="M72.7964 77.9765L74.3181 80.1453C74.2841 80.2132 74.2611 80.2817 74.2386 80.3497L71.6385 80.8039C71.1163 80.8949 70.73 81.3491 70.73 81.8828V86.2205C70.73 86.7542 71.1163 87.2084 71.6385 87.3104L74.2386 87.7646C74.2611 87.8326 74.2956 87.901 74.3296 87.969L72.8079 90.1263C72.5016 90.569 72.558 91.1597 72.9328 91.5341L75.9986 94.5999C76.3734 94.9747 76.9636 95.0311 77.4064 94.7248L79.5752 93.2146C79.6432 93.2371 79.7116 93.2716 79.7796 93.2941L80.2454 95.8827C80.3363 96.4164 80.7906 96.8022 81.3352 96.8022H85.6614C86.1951 96.8022 86.6493 96.4159 86.7403 95.8937L87.206 93.2936C87.274 93.2711 87.3425 93.2366 87.3989 93.2141L89.5677 94.7243C89.999 95.0306 90.6012 94.9741 90.9755 94.5993L94.0413 91.5335C94.4161 91.1587 94.4726 90.5571 94.1662 90.1257L92.6446 87.9569C92.6786 87.889 92.7016 87.8205 92.724 87.7526L95.3242 87.2983C95.8464 87.2074 96.2327 86.7531 96.2327 86.2084V81.8708C96.2327 81.3371 95.8464 80.8828 95.3242 80.7919L92.724 80.3376C92.7016 80.2697 92.6671 80.2012 92.6446 80.1447L94.1662 77.9759C94.4726 77.5332 94.4161 76.9425 94.0413 76.5682L90.9755 73.5139C90.6007 73.1391 89.999 73.0826 89.5677 73.3889L87.4104 74.8991C87.3425 74.8651 87.274 74.8421 87.2061 74.8196L86.7403 72.2195C86.6493 71.6973 86.1951 71.311 85.6614 71.311H81.3353C80.8016 71.311 80.3473 71.6973 80.2563 72.2195L79.7906 74.8196C79.7226 74.8421 79.6542 74.8766 79.5862 74.8991L77.4174 73.3889C76.9746 73.0826 76.384 73.1391 76.0096 73.5139L72.9438 76.5682C72.5465 76.943 72.4896 77.5446 72.7964 77.9763L72.7964 77.9765ZM76.8952 75.7167L78.8256 77.068C79.1665 77.3063 79.5977 77.3293 79.961 77.1474C80.2673 76.9885 80.6196 76.8411 80.9829 76.7272C81.0054 76.7157 81.0284 76.7047 81.0509 76.7047C81.0849 76.6932 81.1188 76.6822 81.1304 76.6822C81.4936 76.5458 81.755 76.228 81.823 75.8532L82.2317 73.5254H84.7069L85.1156 75.8532C85.1836 76.2619 85.4789 76.5913 85.8762 76.7162C86.2625 76.8296 86.6258 76.9885 86.9891 77.1704C87.3524 77.3524 87.7837 77.3293 88.1245 77.091L90.055 75.7397L91.815 77.4882L90.4637 79.4296C90.2253 79.7704 90.2023 80.2017 90.3957 80.565C90.5776 80.9168 90.7365 81.2916 90.8615 81.6779C90.9864 82.0642 91.3157 82.348 91.713 82.416L94.0293 82.8248V85.3114L91.713 85.7202C91.3157 85.7881 90.9749 86.072 90.85 86.4698C90.725 86.8446 90.5661 87.2194 90.3842 87.5827C90.1913 87.9459 90.2253 88.3887 90.4522 88.718L91.8035 90.6595L90.0435 92.4195L88.113 91.0682C87.7722 90.8298 87.3409 90.8068 86.9776 91.0002C86.6368 91.1821 86.2625 91.3295 85.8762 91.4545C85.4789 91.5794 85.1951 91.9087 85.1266 92.3175L84.7178 94.6453H82.2312L81.8109 92.3175C81.743 91.9087 81.4477 91.5794 81.0613 91.466C80.675 91.341 80.3117 91.1936 79.9599 91.0117C79.5966 90.8188 79.1539 90.8528 78.8246 91.0797L76.8831 92.431L75.1231 90.671L76.4744 88.7405C76.7128 88.3997 76.7358 87.9684 76.5424 87.6051C76.3605 87.2533 76.2016 86.8785 76.0766 86.4922C75.9517 86.1059 75.6224 85.8221 75.2136 85.7426L72.8973 85.3338V82.8472L75.2136 82.4384C75.6109 82.3705 75.9402 82.0866 76.0651 81.7003C76.1901 81.3255 76.349 80.9398 76.5419 80.5765C76.7238 80.2132 76.7008 79.7819 76.4624 79.4411L75.1111 77.5106L76.8952 75.7167Z" fill="white"/>
<path d="M83.4698 89.5927C86.5241 89.5927 89.0108 87.1061 89.0108 84.0518C89.0108 80.9975 86.5241 78.5224 83.4698 78.5224C80.4155 78.5224 77.9404 81.009 77.9404 84.0518C77.9399 87.1061 80.4155 89.5927 83.4698 89.5927ZM83.4698 80.7245C85.3093 80.7245 86.808 82.2231 86.808 84.0511C86.808 85.8906 85.3093 87.3892 83.4698 87.3892C81.6304 87.3892 80.1432 85.8906 80.1432 84.0511C80.1427 82.2237 81.6304 80.7245 83.4698 80.7245Z" fill="white"/>
<path d="M83.3338 56.7437C83.947 56.7437 84.4352 56.2555 84.4352 55.6423V50.1014C84.4352 49.4882 83.947 49 83.3338 49C82.7206 49 82.2324 49.4882 82.2324 50.1014V55.6538C82.2324 56.2555 82.7206 56.7437 83.3338 56.7437Z" fill="white"/>
<path d="M75.1468 56.4258C75.3627 56.6417 75.635 56.7436 75.9188 56.7436C76.2027 56.7436 76.4865 56.6417 76.7024 56.4258C77.1337 55.9945 77.1337 55.3019 76.7024 54.8701L72.7736 50.9419C72.3424 50.5106 71.6498 50.5106 71.218 50.9419C70.7867 51.3731 70.7867 52.0657 71.218 52.4975L75.1468 56.4258Z" fill="white"/>
<path d="M90.7488 56.743C91.0327 56.743 91.3165 56.6411 91.5324 56.4252L95.4612 52.4964C95.8925 52.0651 95.8925 51.3725 95.4612 50.9407C95.03 50.5095 94.3373 50.5095 93.9056 50.9407L89.9768 54.8695C89.5455 55.3008 89.5455 55.9934 89.9768 56.4252C90.1811 56.6411 90.465 56.743 90.7488 56.743Z" fill="white"/>
<defs>
<linearGradient id="paint0_linear_537_639" x1="0.0412371" y1="82.8949" x2="166" y2="82.8949" gradientUnits="userSpaceOnUse">
<stop stop-color="#11698E"/>
<stop offset="1" stop-color="#16C79A"/>
</linearGradient>
</defs>
</svg>
