<svg width="166" height="166" viewBox="0 0 166 166" fill="none" xmlns="http://www.w3.org/2000/svg">
<path d="M78 2.88675C81.094 1.10042 84.906 1.10042 88 2.88675L149.88 38.6133C152.974 40.3996 154.88 43.7008 154.88 47.2735V118.727C154.88 122.299 152.974 125.6 149.88 127.387L88 163.113C84.906 164.9 81.094 164.9 78 163.113L16.1199 127.387C13.0259 125.6 11.1199 122.299 11.1199 118.727V47.2735C11.1199 43.7008 13.0259 40.3996 16.1199 38.6133L78 2.88675Z" fill="url(#paint0_linear_537_639)"/>
<g clip-path="url(#clip0_537_639)">
<path d="M106.425 61.7459C106.473 62.0962 113.997 113.171 113.997 113.171L92.5639 117.827L53.0088 110.385C53.0088 110.385 58.085 70.9672 58.2772 69.5775C58.5319 67.742 58.5931 67.6805 60.5332 67.0696C60.8485 66.97 63.3178 66.2013 66.7933 65.1199C68.1333 59.4142 72.4067 48.1869 81.3512 48.1869C82.5196 48.1869 83.8723 48.8168 84.9644 50.2668C85.0736 50.2607 85.1828 50.2562 85.2886 50.2562C89.1285 50.2562 91.3109 53.5401 92.5478 57.1132C93.8109 56.7211 94.5742 56.4844 94.6198 56.471C94.9279 56.3798 95.7219 56.2556 96.1286 56.664C96.5348 57.0724 100.237 60.763 100.237 60.763C100.237 60.763 105.568 61.1597 105.82 61.1809C106.072 61.2022 106.377 61.3957 106.425 61.7459ZM90.3615 57.7924C89.5135 55.191 88.1959 52.9309 86.2174 52.6814C86.7099 54.099 87.0169 55.887 87.0169 58.1079C87.0169 58.3625 87.0158 58.5958 87.0147 58.8324C88.2388 58.452 89.3681 58.1012 90.3615 57.7924ZM83.7631 53.1217C81.5819 54.0615 79.0869 56.5527 77.7559 61.7107C80.1266 60.9734 82.4917 60.2383 84.6685 59.5613C84.6696 59.4344 84.6707 59.309 84.6707 59.172C84.6707 56.4917 84.313 54.5057 83.7631 53.1217ZM81.1055 50.5958C74.681 50.5958 71.0717 59.0657 69.5518 64.2617C71.2656 63.7286 73.1193 63.1524 75.0158 62.5627C76.3134 55.7505 79.3861 52.339 82.2527 50.9846C81.8805 50.7273 81.4916 50.5958 81.1055 50.5958ZM85.2886 73.0718C85.2886 73.0718 83.5024 72.0318 79.8865 72.0318C70.5023 72.0318 65.8534 78.3254 65.8534 84.8289C65.8534 92.5559 73.5316 92.7656 73.5316 97.4683C73.5316 98.6051 72.7309 100.161 70.7631 100.161C67.7511 100.161 64.182 97.0839 64.182 97.0839L62.364 103.115C62.364 103.115 65.8361 107.359 72.6262 107.359C78.2846 107.359 82.4811 103.081 82.4811 96.4372C82.4811 87.9931 73.1221 86.6118 73.1221 83.0068C73.1221 82.3461 73.3315 79.724 77.4924 79.724C80.3305 79.724 82.646 80.9649 82.646 80.9649L85.2886 73.0718Z" fill="white"/>
</g>
<defs>
<linearGradient id="paint0_linear_537_639" x1="0.0412371" y1="82.8949" x2="166" y2="82.8949" gradientUnits="userSpaceOnUse">
<stop stop-color="#11698E"/>
<stop offset="1" stop-color="#16C79A"/>
</linearGradient>
<clipPath id="clip0_537_639">
<rect width="61" height="70" fill="white" transform="translate(53 48)"/>
</clipPath>
</defs>
</svg>
