<svg width="78" height="73" viewBox="0 0 78 73" fill="none" xmlns="http://www.w3.org/2000/svg">
<path d="M24.7691 54.8218H28.1316L33.5716 67.9314H30.434L29.5345 65.7589H23.3663L22.4667 67.9314H19.3291L24.7691 54.8218ZM24.4478 63.1745H28.4529L26.4397 58.3707L24.4478 63.1745Z" fill="#061F33"/>
<path d="M35.3394 67.9314V54.8218H40.8651C41.686 54.8218 42.4249 55.0028 43.0817 55.3649C43.7457 55.727 44.274 56.2108 44.6666 56.8163C45.0593 57.4156 45.2556 58.0773 45.2556 58.8015C45.2556 59.5381 45.0557 60.2092 44.6559 60.8147C44.2561 61.414 43.7207 61.8916 43.0496 62.2474C42.3857 62.6033 41.6575 62.7812 40.8651 62.7812H38.295V67.9314H35.3394ZM38.295 60.1967H40.5331C40.8615 60.1967 41.1578 60.128 41.4219 59.9907C41.6861 59.8471 41.8967 59.6567 42.0537 59.4195C42.2179 59.176 42.3 58.9076 42.3 58.6142C42.3 58.327 42.2179 58.0648 42.0537 57.8276C41.8967 57.5842 41.6861 57.3906 41.4219 57.2471C41.1578 57.1035 40.8615 57.0317 40.5331 57.0317H38.295V60.1967Z" fill="#061F33"/>
<path d="M47.1356 67.9314V54.8218H56.6235V57.4062H50.0912V59.6161H55.1886V62.2006H50.0912V65.3469H56.6235V67.9314H47.1356Z" fill="#061F33"/>
<path d="M58.3312 67.9314L63.814 61.3391L58.3955 54.8218H62.0364L65.6452 59.1479L69.254 54.8218H72.895L67.4764 61.3391L72.9592 67.9314H69.2969L65.6452 63.549L61.9936 67.9314H58.3312Z" fill="#061F33"/>
<path d="M24.8735 72.6987C16.3197 68.5349 11.095 62.9655 11.095 56.853C11.122 54.7496 11.7002 52.7001 12.7596 50.9535H61.3693L52.5172 33.9791C55.8848 33.6703 59.3775 33.4999 62.9472 33.4999C67.5893 33.4955 72.228 33.7799 76.8412 34.3518L77.7265 34.469C76.9567 34.2453 76.1581 34.043 75.3499 33.8407C67.3326 31.9206 59.1516 30.9638 50.9488 30.9867H50.7949C48.7743 30.9867 46.789 31.0364 44.8389 31.1358L42.9145 31.253C37.1371 31.6313 31.3966 32.5251 25.7491 33.9259L24.4116 34.2773C21.5047 35.0591 18.6447 36.0407 15.8482 37.2164C6.22632 41.2949 0.260742 47.0347 0.260742 53.4028C0.279986 61.5812 10.1424 68.7373 24.8735 72.6987ZM44.8485 34.9695L49.0918 43.1052H21.0248C26.9711 39.3994 35.2362 36.4922 44.8485 34.9269V34.9695Z" fill="url(#paint0_linear_824_20)"/>
<path d="M34.9892 15.8787L41.939 29.1685C42.7209 29.1685 43.5127 29.1685 44.3044 29.1685C46.3375 29.1685 48.3413 29.2152 50.3158 29.3087L34.9892 0L18.1377 32.1781C21.0701 31.4446 24.1686 30.8189 27.4138 30.3443L34.9892 15.8787ZM22.507 28.7154L34.9892 4.87578L46.4059 26.7198C45.7119 26.7198 44.9984 26.7198 44.3044 26.7198H43.2097L36.905 14.6813L34.9501 11.0029L32.9952 14.6813L25.9672 28.1221C24.8431 28.2839 23.6702 28.4889 22.507 28.7154Z" fill="url(#paint1_linear_824_20)"/>
<defs>
<linearGradient id="paint0_linear_824_20" x1="0.279986" y1="51.8161" x2="77.7265" y2="51.8161" gradientUnits="userSpaceOnUse">
<stop stop-color="#11698E"/>
<stop offset="1" stop-color="#16C79A"/>
</linearGradient>
<linearGradient id="paint1_linear_824_20" x1="18.1457" y1="16.0687" x2="50.3158" y2="16.0687" gradientUnits="userSpaceOnUse">
<stop stop-color="#11698E"/>
<stop offset="1" stop-color="#16C79A"/>
</linearGradient>
</defs>
</svg>
