<svg width="68" height="68" viewBox="0 0 68 68" fill="none" xmlns="http://www.w3.org/2000/svg">
<circle cx="34" cy="34" r="34" fill="#DEEEEB"/>
<path d="M44.3125 23.6875V29.3125M44.3125 23.6875H38.6875M44.3125 23.6875L36.8125 31.1875M40.5625 46.1875C30.2075 46.1875 21.8125 37.7925 21.8125 27.4375V24.625C21.8125 23.8791 22.1088 23.1637 22.6363 22.6363C23.1637 22.1088 23.8791 21.8125 24.625 21.8125H26.34C26.985 21.8125 27.5475 22.2513 27.7037 22.8775L29.0863 28.4063C29.2238 28.9563 29.0187 29.5337 28.565 29.8725L26.9488 31.085C26.7174 31.2525 26.5463 31.4901 26.4607 31.7626C26.3751 32.035 26.3797 32.3278 26.4738 32.5975C27.2261 34.6439 28.4143 36.5023 29.956 38.044C31.4977 39.5857 33.3561 40.7739 35.4025 41.5262C35.9537 41.7287 36.5625 41.5213 36.915 41.0513L38.1275 39.435C38.2935 39.2134 38.5211 39.0458 38.782 38.9531C39.0428 38.8604 39.3252 38.8467 39.5938 38.9137L45.1225 40.2963C45.7475 40.4525 46.1875 41.015 46.1875 41.66V43.375C46.1875 44.1209 45.8912 44.8363 45.3637 45.3637C44.8363 45.8912 44.1209 46.1875 43.375 46.1875H40.5625Z" stroke="#007F61" stroke-width="1.5" stroke-linecap="round" stroke-linejoin="round"/>
</svg>
