<svg width="67" height="60" viewBox="0 0 67 60" fill="none" xmlns="http://www.w3.org/2000/svg">
<path d="M32.1247 55.5636L32.126 55.5635L32.1269 55.5635C32.1271 55.5635 32.1272 55.5635 32.1274 55.5635C32.265 55.5638 32.4005 55.6824 32.4005 55.8777C32.4005 56.0739 32.2645 56.1924 32.1269 56.1924H14.5313C14.3936 56.1924 14.2576 56.0739 14.2576 55.8777V55.1664C14.2576 53.0276 15.8705 51.3165 17.8095 51.3165H19.9985H20.2485V51.0665V47.3961V47.1461H19.9985H3.47186C1.89928 47.1461 0.580078 45.7517 0.580078 44.0081V4.21908C0.580078 2.47553 1.89928 1.08105 3.47186 1.08105L54.3294 1.08157C55.902 1.08157 57.2212 2.47605 57.2212 4.2196L57.2207 25.1244C57.2207 25.3206 57.0847 25.4391 56.9471 25.4391C56.8094 25.4391 56.6735 25.3206 56.6735 25.1244V4.2196C56.6735 2.85741 55.6363 1.71087 54.3289 1.71087H3.47133C2.1639 1.71087 1.12677 2.85746 1.12677 4.2196V37.7738V38.0238L1.37676 38.0238L32.0639 38.0243C32.2015 38.0243 32.3375 38.1428 32.3375 38.339C32.3375 38.5351 32.2015 38.6537 32.0639 38.6537H1.37677H1.12677V38.9037V44.0087C1.12677 45.3709 2.16394 46.5174 3.47133 46.5174H32.0625C32.2002 46.5174 32.3361 46.6359 32.3361 46.8321C32.3361 47.0282 32.2002 47.1467 32.0625 47.1467H21.045H20.795V47.3967V51.0671V51.3171H21.045H32.0625C32.2002 51.3171 32.3361 51.4356 32.3361 51.6318C32.3361 51.8279 32.2002 51.9465 32.0625 51.9465H17.8083C16.134 51.9465 14.8037 53.409 14.8037 55.1669V55.3136V55.5636H15.0537L32.1247 55.5636Z" fill="url(#paint0_linear_438_321)" stroke="url(#paint1_linear_438_321)" stroke-width="0.5"/>
<path d="M4.37245 34.2723V34.5223H4.62245H32.062C32.1996 34.5223 32.3356 34.6408 32.3356 34.837C32.3356 35.0331 32.1996 35.1516 32.062 35.1516H4.09785C3.9602 35.1516 3.82422 35.0331 3.82422 34.837V4.89671C3.82422 4.70054 3.9602 4.58203 4.09785 4.58203H53.6989C53.8365 4.58203 53.9725 4.70054 53.9725 4.8967L53.972 28.3772C53.972 28.5733 53.836 28.6919 53.6984 28.6919C53.5607 28.6919 53.4247 28.5733 53.4247 28.3772L53.4267 5.46082L53.4268 5.2108H53.1767H4.62245H4.37245V5.4608V34.2723Z" fill="url(#paint2_linear_438_321)" stroke="url(#paint3_linear_438_321)" stroke-width="0.5"/>
<path d="M28.8993 41.7367C28.4402 41.7368 28.0946 42.1377 28.0946 42.5852C28.0946 43.0327 28.4403 43.4337 28.8995 43.4337C29.3588 43.4337 29.7045 43.0327 29.7045 42.5852C29.7045 42.1412 29.3722 41.7361 28.8993 41.7367ZM28.8993 41.7367C28.8993 41.7367 28.8992 41.7367 28.8991 41.7367L28.8995 41.9867V41.7367C28.8995 41.7367 28.8994 41.7367 28.8993 41.7367ZM28.8989 41.1074H28.8991C29.623 41.1074 30.2512 41.7563 30.2512 42.5852C30.2512 43.4147 29.6326 44.0629 28.8991 44.0629C28.1741 44.0629 27.5469 43.4239 27.5469 42.5852C27.5469 41.7459 28.1741 41.107 28.8989 41.1074Z" fill="url(#paint4_linear_438_321)" stroke="url(#paint5_linear_438_321)" stroke-width="0.5"/>
<path d="M38.2005 50.3929C38.2026 50.3922 38.2046 50.3915 38.2065 50.3908H38.2109L38.2418 50.3827C38.5719 50.2968 38.9067 50.2441 39.2474 50.2441H61.7266L61.7271 50.2442H61.7438C64.1146 50.2442 66.0811 52.3076 66.0807 54.9067V54.9067C66.0807 57.5078 64.1229 59.5807 61.7646 59.5807H39.2575C36.8897 59.5807 34.9414 57.4976 34.9414 54.9067C34.9414 52.7453 36.3039 50.9536 38.1225 50.4178C38.1289 50.4164 38.1342 50.415 38.1379 50.4139C38.1472 50.4113 38.156 50.4085 38.1622 50.4064C38.1744 50.4023 38.1884 50.3973 38.1992 50.3934L38.2005 50.3929ZM38.4099 50.9868H38.3774L38.346 50.9951C36.6892 51.4326 35.4785 53.0287 35.4785 54.9072C35.4785 57.1283 37.155 58.9519 39.2474 58.9519H61.7319L61.7324 58.9519H61.7438C63.835 58.9519 65.5233 57.1412 65.5243 54.9188V54.9187C65.5243 52.6976 63.8478 50.874 61.7554 50.874H39.2483C38.9602 50.874 38.6769 50.92 38.4104 50.9868H38.4099Z" fill="url(#paint6_linear_438_321)" stroke="url(#paint7_linear_438_321)" stroke-width="0.5"/>
<path d="M34.9544 26.15C34.955 26.1471 34.9557 26.1442 34.9564 26.1412C34.9621 26.1292 34.9662 26.118 34.9692 26.1087C34.9702 26.1056 34.9711 26.1025 34.9719 26.0995L38.9949 18.6027C38.9949 18.6027 38.9949 18.6027 38.9949 18.6027C39.089 18.428 39.3718 18.428 39.466 18.6027C39.466 18.6027 39.466 18.6027 39.466 18.6027L43.4892 26.0999V26.1109L43.5268 26.1715C43.5379 26.1895 43.5519 26.2309 43.5519 26.2882V39.6045C43.5519 39.8006 43.4159 39.9191 43.2782 39.9191C43.1406 39.9191 43.0046 39.8006 43.0046 39.6045V26.8535V26.6035H42.7546H35.727H35.477V26.8535V48.4359C35.477 48.632 35.341 48.7505 35.2033 48.7505C35.0657 48.7505 34.9297 48.632 34.9297 48.4359V26.2882L34.9297 26.2882C34.9297 26.2699 34.9331 26.2453 34.9411 26.2082C34.9438 26.1956 34.9464 26.1845 34.9493 26.1721C34.9509 26.1653 34.9525 26.1581 34.9544 26.15ZM39.4661 19.7659L39.2458 19.3551L39.0255 19.7659L35.8943 25.605L35.6969 25.9732H36.1146H42.3774H42.7952L42.5978 25.605L39.4661 19.7659Z" fill="url(#paint8_linear_438_321)" stroke="url(#paint9_linear_438_321)" stroke-width="0.5"/>
<path d="M39.2458 30.4014H39.2463C39.3839 30.4014 39.5199 30.5199 39.5199 30.716V43.1394C39.5199 43.3356 39.3839 43.4541 39.2463 43.4541C39.1086 43.4541 38.9727 43.3356 38.9727 43.1394V30.716C38.9727 30.5271 39.1119 30.4011 39.2458 30.4014Z" fill="url(#paint10_linear_438_321)" stroke="url(#paint11_linear_438_321)" stroke-width="0.5"/>
<path d="M37.4531 54.9194C37.4531 53.8204 38.2797 52.9668 39.2456 52.9668C40.2093 52.9668 41.028 53.8182 41.0381 54.9204C41.0375 56.0198 40.2209 56.8719 39.2456 56.8719C38.2707 56.8719 37.4531 56.0086 37.4531 54.9194ZM38.0004 54.9078C38.0004 55.6286 38.5469 56.231 39.2456 56.231C39.946 56.231 40.4908 55.6154 40.4908 54.9078C40.4908 54.2003 39.946 53.5846 39.2456 53.5846C38.5468 53.5846 38.0004 54.1877 38.0004 54.9078Z" fill="url(#paint12_linear_438_321)" stroke="url(#paint13_linear_438_321)" stroke-width="0.5"/>
<path d="M12.744 23.0106L17.6079 13.3308L17.6225 13.315L17.636 13.2923C17.6961 13.1912 17.7803 13.1436 17.8609 13.1436C17.9367 13.1436 18.0158 13.1858 18.075 13.275C18.08 13.2859 18.0859 13.2967 18.0928 13.3073C18.1014 13.3204 18.1105 13.3318 18.1192 13.3413L22.9778 23.0106C22.9779 23.0107 22.978 23.0109 22.9781 23.0111C23.0269 23.1103 23.0271 23.2313 22.9787 23.3311C22.9785 23.3314 22.9784 23.3318 22.9782 23.3321L20.7277 27.8134L20.5458 28.1756H20.9511H21.9877C22.1254 28.1756 22.2614 28.2941 22.2614 28.4903V31.1556C22.2614 31.3517 22.1254 31.4702 21.9877 31.4702H13.735C13.5973 31.4702 13.4614 31.3517 13.4614 31.1556V28.4903C13.4614 28.2941 13.5973 28.1756 13.735 28.1756H14.7717H15.177L14.9951 27.8134L12.744 23.3311C12.7439 23.3309 12.7438 23.3307 12.7437 23.3305C12.6948 23.2312 12.6948 23.1105 12.7437 23.0111C12.7438 23.011 12.7439 23.0108 12.744 23.0106ZM17.5499 13.3809C17.5505 13.3805 17.5518 13.3795 17.5536 13.3782L17.5535 13.3783C17.5512 13.38 17.549 13.3815 17.5489 13.3815C17.5489 13.3815 17.5492 13.3813 17.5499 13.3809ZM21.4532 30.8414H21.7032V30.5914V29.0554V28.8054H21.4532H14.2477H13.9977V29.0554V30.5914V30.8414H14.2477H21.4532ZM19.7564 28.1756H19.9106L19.9798 28.0378L22.368 23.2827L22.4243 23.1706L22.368 23.0584L18.608 15.5704L18.1346 15.6826V18.9465V19.1259L18.3046 19.1833C18.9002 19.3844 19.3497 19.9859 19.3497 20.7195C19.3497 21.6389 18.6689 22.3444 17.861 22.3444C17.0536 22.3444 16.3723 21.6285 16.3723 20.7195C16.3723 19.986 16.8222 19.3844 17.4174 19.1833L17.5874 19.1259V18.9465V15.6826L17.1139 15.5704L13.354 23.0584L13.2977 23.1705L13.354 23.2827L15.7417 28.0378L15.8109 28.1756H15.9651H19.7564ZM18.7918 20.7314C18.7918 20.1908 18.3805 19.7358 17.8504 19.7358C17.3202 19.7358 16.9089 20.1908 16.9089 20.7314C16.9089 21.2694 17.3072 21.727 17.8504 21.727C18.3935 21.727 18.7918 21.2694 18.7918 20.7314Z" fill="url(#paint14_linear_438_321)" stroke="url(#paint15_linear_438_321)" stroke-width="0.5"/>
<path d="M24.9601 9.60754H25.1468L25.1998 9.42842C25.404 8.7376 25.9888 8.25195 26.6568 8.25195C27.4859 8.25195 28.1875 8.9804 28.1875 9.92219C28.1875 10.864 27.4859 11.5924 26.6568 11.5924C25.9888 11.5924 25.4042 11.1072 25.2009 10.4163L25.1481 10.2368H24.961H22.1018H21.1352L21.9806 10.7055C24.8739 12.3094 26.8492 15.5464 26.9208 19.1995L26.9243 19.3776L27.0938 19.4324C27.7172 19.6341 28.188 20.2674 28.188 21.0243C28.188 21.9661 27.4864 22.6945 26.6573 22.6945C25.8282 22.6945 25.1266 21.9661 25.1266 21.0243C25.1266 20.2688 25.5861 19.6551 26.2044 19.4424L26.3771 19.383L26.373 19.2004C26.2766 14.9515 23.4201 11.2858 19.536 10.4457L19.3287 10.4009L19.2507 10.5982C19.0115 11.2029 18.4679 11.6032 17.8491 11.6032C17.2318 11.6032 16.6869 11.1933 16.447 10.5968L16.3684 10.4012L16.1622 10.4457C12.2783 11.2859 9.42159 14.9403 9.32522 19.2004L9.32109 19.383L9.49387 19.4424C10.1122 19.655 10.5716 20.2688 10.5716 21.0243C10.5716 21.9661 9.87002 22.6945 9.04093 22.6945C8.21182 22.6945 7.51026 21.9661 7.51026 21.0243C7.51026 20.2569 7.98024 19.6344 8.60439 19.4324L8.7734 19.3778L8.77738 19.2002C8.8593 15.546 10.8247 12.3091 13.7176 10.7055L14.5631 10.2368H13.5964H10.7372H10.5504L10.4974 10.416C10.2932 11.1068 9.70842 11.5924 9.04044 11.5924C8.21132 11.5924 7.50977 10.864 7.50977 9.92219C7.50977 8.98038 8.21135 8.25195 9.04044 8.25195C9.71815 8.25195 10.2929 8.73671 10.4974 9.42843L10.5504 9.60754H10.7372H16.1625H16.3517L16.4031 9.4254C16.5971 8.73768 17.1803 8.25195 17.8486 8.25195C18.5148 8.25195 19.0902 8.73577 19.295 9.42843L19.348 9.60754H19.5347H24.9601ZM8.0684 21.0249C8.0684 21.5853 8.4874 22.0652 9.0513 22.0652C9.60233 22.0652 10.0342 21.5877 10.0342 21.0249C10.0342 20.4645 9.6152 19.9846 9.0513 19.9846C8.4874 19.9846 8.0684 20.4645 8.0684 21.0249ZM25.6739 21.0249C25.6739 21.5853 26.0929 22.0652 26.6568 22.0652L27.3897 21.0249H27.6397C27.6397 21.0248 27.6397 21.0247 27.6397 21.0246C27.6396 20.4644 27.2206 19.9846 26.6568 19.9846C26.0929 19.9846 25.6739 20.4645 25.6739 21.0249ZM27.6397 9.92225C27.6397 9.36188 27.2207 8.88192 26.6568 8.88192C26.0928 8.88192 25.6739 9.36251 25.6739 9.92225C25.6739 10.4826 26.0929 10.9626 26.6568 10.9626C27.2207 10.9626 27.6397 10.4826 27.6397 9.92225ZM8.0684 9.92279C8.0684 10.4832 8.4874 10.9631 9.0513 10.9631C9.60459 10.9631 10.0342 10.4717 10.0342 9.92279C10.0342 9.36241 9.6152 8.88245 9.0513 8.88245C8.48515 8.88245 8.0684 9.37628 8.0684 9.92279ZM16.866 9.92279C16.866 10.4832 17.285 10.9631 17.8489 10.9631C18.415 10.9631 18.8318 10.4693 18.8318 9.92279C18.8318 9.36241 18.4128 8.88245 17.8489 8.88245C17.2827 8.88245 16.866 9.37628 16.866 9.92279Z" fill="url(#paint16_linear_438_321)" stroke="url(#paint17_linear_438_321)" stroke-width="0.5"/>
<path d="M43.5132 44.9798L43.3299 44.7821L43.1466 44.9798L40.8949 47.4079C40.7845 47.5269 40.6283 47.5269 40.518 47.4079C40.3976 47.2782 40.3976 47.0759 40.518 46.9462L56.5911 29.6133L56.5912 29.6133L56.6362 29.5649C56.7513 29.441 56.909 29.4495 57.0031 29.5455L62.7091 35.6986L62.7088 35.6988L62.7184 35.7081C62.7665 35.7548 62.7996 35.833 62.7996 35.9238C62.7996 36.0031 62.7632 36.0906 62.7091 36.149L52.2986 47.3754L52.2983 47.3751L52.2898 47.3853C52.2485 47.4349 52.1757 47.4649 52.1154 47.4649C52.0636 47.4649 51.9924 47.4402 51.9323 47.3754C51.812 47.2456 51.812 47.0434 51.9323 46.9136L61.9657 36.0938L62.1233 35.9238L61.9657 35.7538L56.9907 30.3889L56.8073 30.1912L56.624 30.3889L54.6028 32.5685L54.4452 32.7385L54.6028 32.9085L55.8072 34.2074C55.9276 34.3371 55.9276 34.5394 55.8072 34.6691L55.807 34.6689L55.7985 34.6791C55.7572 34.7286 55.6843 34.7586 55.6241 34.7586C55.5723 34.7586 55.5011 34.734 55.441 34.6691L54.2365 33.3703L54.0532 33.1726L53.8699 33.3703L51.922 35.4709L51.7643 35.6409L51.922 35.8109L53.1264 37.1097C53.2467 37.2395 53.2467 37.4417 53.1264 37.5715L53.1261 37.5713L53.1177 37.5814C53.0764 37.631 53.0035 37.661 52.9433 37.661C52.8914 37.661 52.8202 37.6363 52.7601 37.5715L51.5557 36.2727L51.3724 36.075L51.189 36.2727L49.2411 38.3733L49.0835 38.5433L49.2411 38.7132L50.4456 40.0121C50.5659 40.1419 50.5659 40.3441 50.4456 40.4739L50.4453 40.4736L50.4368 40.4838C50.3955 40.5334 50.3227 40.5634 50.2624 40.5634C50.2106 40.5634 50.1394 40.5387 50.0793 40.4739L48.8748 39.175L48.6915 38.9773L48.5082 39.175L46.5603 41.2756L46.4027 41.4456L46.5603 41.6156L47.7647 42.9145C47.8851 43.0442 47.8851 43.2465 47.7647 43.3763L47.7645 43.376L47.756 43.3862C47.7147 43.4357 47.6418 43.4657 47.5816 43.4657C47.5298 43.4657 47.4586 43.4411 47.3985 43.3763L46.194 42.0774L46.0107 41.8797L45.8274 42.0774L43.8795 44.178L43.7218 44.348L43.8795 44.518L45.0839 45.8168C45.2043 45.9466 45.2043 46.1488 45.0839 46.2786L45.0837 46.2784L45.0752 46.2886C45.0339 46.3381 44.961 46.3681 44.9008 46.3681C44.849 46.3681 44.7777 46.3434 44.7176 46.2786L43.5132 44.9798Z" fill="url(#paint18_linear_438_321)" stroke="url(#paint19_linear_438_321)" stroke-width="0.5"/>
<defs>
<linearGradient id="paint0_linear_438_321" x1="0.344273" y1="28.6015" x2="57.4712" y2="28.6015" gradientUnits="userSpaceOnUse">
<stop stop-color="#11698E"/>
<stop offset="1" stop-color="#16C79A"/>
</linearGradient>
<linearGradient id="paint1_linear_438_321" x1="0.344273" y1="28.6015" x2="57.4712" y2="28.6015" gradientUnits="userSpaceOnUse">
<stop stop-color="#11698E"/>
<stop offset="1" stop-color="#16C79A"/>
</linearGradient>
<linearGradient id="paint2_linear_438_321" x1="3.5868" y1="19.8472" x2="54.2225" y2="19.8472" gradientUnits="userSpaceOnUse">
<stop stop-color="#11698E"/>
<stop offset="1" stop-color="#16C79A"/>
</linearGradient>
<linearGradient id="paint3_linear_438_321" x1="3.5868" y1="19.8472" x2="54.2225" y2="19.8472" gradientUnits="userSpaceOnUse">
<stop stop-color="#11698E"/>
<stop offset="1" stop-color="#16C79A"/>
</linearGradient>
<linearGradient id="paint4_linear_438_321" x1="27.2977" y1="42.583" x2="30.5012" y2="42.583" gradientUnits="userSpaceOnUse">
<stop stop-color="#11698E"/>
<stop offset="1" stop-color="#16C79A"/>
</linearGradient>
<linearGradient id="paint5_linear_438_321" x1="27.2977" y1="42.583" x2="30.5012" y2="42.583" gradientUnits="userSpaceOnUse">
<stop stop-color="#11698E"/>
<stop offset="1" stop-color="#16C79A"/>
</linearGradient>
<linearGradient id="paint6_linear_438_321" x1="34.6993" y1="54.9062" x2="66.3307" y2="54.9062" gradientUnits="userSpaceOnUse">
<stop stop-color="#11698E"/>
<stop offset="1" stop-color="#16C79A"/>
</linearGradient>
<linearGradient id="paint7_linear_438_321" x1="34.6993" y1="54.9062" x2="66.3307" y2="54.9062" gradientUnits="userSpaceOnUse">
<stop stop-color="#11698E"/>
<stop offset="1" stop-color="#16C79A"/>
</linearGradient>
<linearGradient id="paint8_linear_438_321" x1="34.682" y1="33.5916" x2="43.8019" y2="33.5916" gradientUnits="userSpaceOnUse">
<stop stop-color="#11698E"/>
<stop offset="1" stop-color="#16C79A"/>
</linearGradient>
<linearGradient id="paint9_linear_438_321" x1="34.682" y1="33.5916" x2="43.8019" y2="33.5916" gradientUnits="userSpaceOnUse">
<stop stop-color="#11698E"/>
<stop offset="1" stop-color="#16C79A"/>
</linearGradient>
<linearGradient id="paint10_linear_438_321" x1="38.7229" y1="36.9191" x2="39.7699" y2="36.9191" gradientUnits="userSpaceOnUse">
<stop stop-color="#11698E"/>
<stop offset="1" stop-color="#16C79A"/>
</linearGradient>
<linearGradient id="paint11_linear_438_321" x1="38.7229" y1="36.9191" x2="39.7699" y2="36.9191" gradientUnits="userSpaceOnUse">
<stop stop-color="#11698E"/>
<stop offset="1" stop-color="#16C79A"/>
</linearGradient>
<linearGradient id="paint12_linear_438_321" x1="37.2041" y1="54.9166" x2="41.2881" y2="54.9166" gradientUnits="userSpaceOnUse">
<stop stop-color="#11698E"/>
<stop offset="1" stop-color="#16C79A"/>
</linearGradient>
<linearGradient id="paint13_linear_438_321" x1="37.2041" y1="54.9166" x2="41.2881" y2="54.9166" gradientUnits="userSpaceOnUse">
<stop stop-color="#11698E"/>
<stop offset="1" stop-color="#16C79A"/>
</linearGradient>
<linearGradient id="paint14_linear_438_321" x1="12.4597" y1="22.295" x2="23.2648" y2="22.295" gradientUnits="userSpaceOnUse">
<stop stop-color="#11698E"/>
<stop offset="1" stop-color="#16C79A"/>
</linearGradient>
<linearGradient id="paint15_linear_438_321" x1="12.4597" y1="22.295" x2="23.2648" y2="22.295" gradientUnits="userSpaceOnUse">
<stop stop-color="#11698E"/>
<stop offset="1" stop-color="#16C79A"/>
</linearGradient>
<linearGradient id="paint16_linear_438_321" x1="7.26503" y1="15.4638" x2="28.438" y2="15.4638" gradientUnits="userSpaceOnUse">
<stop stop-color="#11698E"/>
<stop offset="1" stop-color="#16C79A"/>
</linearGradient>
<linearGradient id="paint17_linear_438_321" x1="7.26503" y1="15.4638" x2="28.438" y2="15.4638" gradientUnits="userSpaceOnUse">
<stop stop-color="#11698E"/>
<stop offset="1" stop-color="#16C79A"/>
</linearGradient>
<linearGradient id="paint18_linear_438_321" x1="40.1834" y1="38.4732" x2="63.0496" y2="38.4732" gradientUnits="userSpaceOnUse">
<stop stop-color="#11698E"/>
<stop offset="1" stop-color="#16C79A"/>
</linearGradient>
<linearGradient id="paint19_linear_438_321" x1="40.1834" y1="38.4732" x2="63.0496" y2="38.4732" gradientUnits="userSpaceOnUse">
<stop stop-color="#11698E"/>
<stop offset="1" stop-color="#16C79A"/>
</linearGradient>
</defs>
</svg>
