<svg width="75" height="68" viewBox="0 0 75 68" fill="none" xmlns="http://www.w3.org/2000/svg">
<g filter="url(#filter0_d_427_1143)">
<path d="M36.1247 55.5636L36.1261 55.5635L36.1269 55.5635C36.1271 55.5635 36.1273 55.5635 36.1274 55.5635C36.2651 55.5639 36.4005 55.6825 36.4005 55.8777C36.4005 56.0739 36.2645 56.1924 36.1269 56.1924H18.5313C18.3936 56.1924 18.2576 56.0739 18.2576 55.8777V55.1664C18.2576 53.0276 19.8705 51.3165 21.8095 51.3165H23.9985H24.2485V51.0665V47.3961V47.1461H23.9985H7.47186C5.89928 47.1461 4.58008 45.7517 4.58008 44.0081V4.21908C4.58008 2.47553 5.89928 1.08105 7.47186 1.08105L58.3294 1.08157C59.902 1.08157 61.2212 2.47605 61.2212 4.2196L61.2207 25.1244C61.2207 25.3206 61.0847 25.4391 60.9471 25.4391C60.8094 25.4391 60.6735 25.3206 60.6735 25.1244V4.2196C60.6735 2.85741 59.6363 1.71087 58.3289 1.71087H7.47133C6.1639 1.71087 5.12677 2.85746 5.12677 4.2196V37.7738V38.0238L5.37676 38.0238L36.0639 38.0243C36.2015 38.0243 36.3375 38.1428 36.3375 38.339C36.3375 38.5351 36.2015 38.6537 36.0639 38.6537H5.37677H5.12677V38.9037V44.0087C5.12677 45.3709 6.16394 46.5174 7.47133 46.5174H36.0625C36.2002 46.5174 36.3361 46.6359 36.3361 46.8321C36.3361 47.0282 36.2002 47.1467 36.0625 47.1467H25.045H24.795V47.3967V51.0671V51.3171H25.045H36.0625C36.2002 51.3171 36.3361 51.4356 36.3361 51.6318C36.3361 51.8279 36.2002 51.9465 36.0625 51.9465H21.8083C20.134 51.9465 18.8037 53.409 18.8037 55.1669V55.3136V55.5636H19.0537L36.1247 55.5636Z" fill="white" stroke="white" stroke-width="0.5"/>
<path d="M8.37245 34.2723V34.5223H8.62245H36.062C36.1996 34.5223 36.3356 34.6408 36.3356 34.837C36.3356 35.0331 36.1996 35.1516 36.062 35.1516H8.09785C7.9602 35.1516 7.82422 35.0331 7.82422 34.837V4.89671C7.82422 4.70054 7.9602 4.58203 8.09785 4.58203H57.6989C57.8365 4.58203 57.9725 4.70054 57.9725 4.8967L57.972 28.3772C57.972 28.5733 57.836 28.6919 57.6984 28.6919C57.5607 28.6919 57.4247 28.5733 57.4247 28.3772L57.4267 5.46082L57.4268 5.2108H57.1767H8.62245H8.37245V5.4608V34.2723Z" fill="white" stroke="white" stroke-width="0.5"/>
<path d="M32.8993 41.7367C32.4402 41.7369 32.0946 42.1377 32.0946 42.5852C32.0946 43.0327 32.4403 43.4337 32.8995 43.4337C33.3588 43.4337 33.7045 43.0327 33.7045 42.5852C33.7045 42.1412 33.3721 41.736 32.8993 41.7367ZM32.8993 41.7367C32.8992 41.7367 32.8992 41.7367 32.8991 41.7367L32.8995 41.9867V41.7367C32.8995 41.7367 32.8994 41.7367 32.8993 41.7367ZM32.8989 41.1074H32.8991C33.623 41.1074 34.2512 41.7563 34.2512 42.5852C34.2512 43.4147 33.6326 44.0629 32.8991 44.0629C32.1741 44.0629 31.5469 43.4239 31.5469 42.5852C31.5469 41.7459 32.1741 41.107 32.8989 41.1074Z" fill="white" stroke="white" stroke-width="0.5"/>
<path d="M42.2005 50.3929C42.2026 50.3922 42.2046 50.3915 42.2065 50.3908H42.2109L42.2418 50.3827C42.5719 50.2968 42.9067 50.2441 43.2474 50.2441H65.7266L65.7271 50.2442H65.7438C68.1146 50.2442 70.0811 52.3076 70.0807 54.9067V54.9067C70.0807 57.5078 68.1229 59.5807 65.7646 59.5807H43.2575C40.8897 59.5807 38.9414 57.4976 38.9414 54.9067C38.9414 52.7453 40.3039 50.9536 42.1225 50.4178C42.1289 50.4164 42.1342 50.415 42.1379 50.4139C42.1472 50.4113 42.156 50.4085 42.1622 50.4064C42.1744 50.4023 42.1884 50.3973 42.1992 50.3934L42.2005 50.3929ZM42.4099 50.9868H42.3774L42.346 50.9951C40.6892 51.4326 39.4785 53.0287 39.4785 54.9072C39.4785 57.1283 41.155 58.9519 43.2474 58.9519H65.732L65.7324 58.9519H65.7438C67.835 58.9519 69.5233 57.1412 69.5243 54.9188V54.9187C69.5243 52.6976 67.8478 50.874 65.7554 50.874H43.2483C42.9602 50.874 42.6769 50.92 42.4104 50.9868H42.4099Z" fill="white" stroke="white" stroke-width="0.5"/>
<path d="M38.9544 26.15C38.955 26.1471 38.9557 26.1442 38.9564 26.1412C38.9621 26.1292 38.9662 26.118 38.9692 26.1087C38.9702 26.1056 38.9711 26.1025 38.9719 26.0995L42.9949 18.6027C42.9949 18.6026 42.995 18.6026 42.995 18.6025C43.0892 18.428 43.3719 18.4281 43.466 18.6027C43.466 18.6027 43.466 18.6027 43.466 18.6027L47.4892 26.0999V26.1109L47.5268 26.1715C47.5379 26.1895 47.5519 26.2309 47.5519 26.2882V39.6045C47.5519 39.8006 47.4159 39.9191 47.2782 39.9191C47.1406 39.9191 47.0046 39.8006 47.0046 39.6045V26.8535V26.6035H46.7546H39.727H39.477V26.8535V48.4359C39.477 48.632 39.341 48.7505 39.2033 48.7505C39.0657 48.7505 38.9297 48.632 38.9297 48.4359V26.2882L38.9297 26.2882C38.9297 26.2699 38.9331 26.2453 38.9411 26.2082C38.9438 26.1956 38.9464 26.1845 38.9493 26.1721C38.9509 26.1653 38.9525 26.1581 38.9544 26.15ZM43.4661 19.7659L43.2458 19.3551L43.0255 19.7659L39.8943 25.605L39.6969 25.9732H40.1146H46.3774H46.7952L46.5978 25.605L43.4661 19.7659Z" fill="white" stroke="white" stroke-width="0.5"/>
<path d="M43.2458 30.4014H43.2463C43.3839 30.4014 43.5199 30.5199 43.5199 30.716V43.1394C43.5199 43.3356 43.3839 43.4541 43.2463 43.4541C43.1086 43.4541 42.9727 43.3356 42.9727 43.1394V30.716C42.9727 30.5271 43.1119 30.4011 43.2458 30.4014Z" fill="white" stroke="white" stroke-width="0.5"/>
<path d="M41.4531 54.9194C41.4531 53.8204 42.2797 52.9668 43.2456 52.9668C44.2093 52.9668 45.028 53.8182 45.0381 54.9205C45.0375 56.0198 44.2209 56.8719 43.2456 56.8719C42.2707 56.8719 41.4531 56.0086 41.4531 54.9194ZM42.0004 54.9078C42.0004 55.6286 42.5469 56.231 43.2456 56.231C43.946 56.231 44.4908 55.6154 44.4908 54.9078C44.4908 54.2003 43.946 53.5846 43.2456 53.5846C42.5468 53.5846 42.0004 54.1877 42.0004 54.9078Z" fill="white" stroke="white" stroke-width="0.5"/>
<path d="M16.744 23.0106L21.6079 13.3308L21.6225 13.315L21.636 13.2923C21.6961 13.1912 21.7803 13.1436 21.8609 13.1436C21.9367 13.1436 22.0158 13.1858 22.075 13.275C22.08 13.2859 22.0859 13.2967 22.0928 13.3073C22.1014 13.3204 22.1105 13.3318 22.1192 13.3413L26.9778 23.0106C26.9779 23.0107 26.978 23.0109 26.9781 23.0111C27.0269 23.1103 27.0271 23.2313 26.9787 23.3311C26.9785 23.3315 26.9784 23.3318 26.9782 23.3321L24.7277 27.8134L24.5458 28.1756H24.9511H25.9877C26.1254 28.1756 26.2614 28.2941 26.2614 28.4903V31.1556C26.2614 31.3517 26.1254 31.4702 25.9877 31.4702H17.735C17.5973 31.4702 17.4614 31.3517 17.4614 31.1556V28.4903C17.4614 28.2941 17.5973 28.1756 17.735 28.1756H18.7717H19.177L18.9951 27.8134L16.744 23.3311C16.7439 23.3309 16.7438 23.3307 16.7437 23.3305C16.6948 23.2312 16.6948 23.1105 16.7437 23.0111C16.7438 23.011 16.7439 23.0108 16.744 23.0106ZM21.5499 13.3809C21.5505 13.3805 21.5518 13.3794 21.5536 13.3782L21.5535 13.3783C21.5515 13.3797 21.5497 13.381 21.5491 13.3814C21.5487 13.3816 21.5489 13.3815 21.5499 13.3809ZM25.4532 30.8414H25.7032V30.5914V29.0554V28.8054H25.4532H18.2477H17.9977V29.0554V30.5914V30.8414H18.2477H25.4532ZM23.7564 28.1756H23.9106L23.9798 28.0378L26.368 23.2827L26.4243 23.1706L26.368 23.0584L22.608 15.5704L22.1346 15.6826V18.9465V19.1259L22.3046 19.1833C22.9002 19.3844 23.3497 19.9859 23.3497 20.7195C23.3497 21.6389 22.6689 22.3444 21.861 22.3444C21.0536 22.3444 20.3723 21.6285 20.3723 20.7195C20.3723 19.986 20.8222 19.3844 21.4174 19.1833L21.5874 19.1259V18.9465V15.6826L21.1139 15.5704L17.354 23.0584L17.2977 23.1705L17.354 23.2827L19.7417 28.0378L19.8109 28.1756H19.9651H23.7564ZM22.7918 20.7314C22.7918 20.1908 22.3805 19.7358 21.8504 19.7358C21.3202 19.7358 20.9089 20.1908 20.9089 20.7314C20.9089 21.2694 21.3072 21.727 21.8504 21.727C22.3935 21.727 22.7918 21.2694 22.7918 20.7314Z" fill="white" stroke="white" stroke-width="0.5"/>
<path d="M31.6397 21.0249C31.6397 20.4645 31.2207 19.9846 30.6568 19.9846C30.0929 19.9846 29.6739 20.4645 29.6739 21.0249C29.6739 21.5853 30.0929 22.0652 30.6568 22.0652C31.2204 22.0652 31.6402 21.5856 31.6397 21.0249ZM31.6397 21.0249H31.3897L31.6397 21.0246C31.6397 21.0247 31.6397 21.0248 31.6397 21.0249ZM28.9601 9.60754H29.1468L29.1998 9.42842C29.404 8.7376 29.9888 8.25195 30.6568 8.25195C31.4859 8.25195 32.1875 8.9804 32.1875 9.92219C32.1875 10.864 31.4859 11.5924 30.6568 11.5924C29.9888 11.5924 29.4042 11.1072 29.2009 10.4163L29.1481 10.2368H28.961H26.1018H25.1352L25.9806 10.7055C28.8739 12.3094 30.8492 15.5464 30.9208 19.1995L30.9243 19.3776L31.0938 19.4324C31.7172 19.6341 32.188 20.2674 32.188 21.0243C32.188 21.9661 31.4864 22.6945 30.6573 22.6945C29.8282 22.6945 29.1266 21.9661 29.1266 21.0243C29.1266 20.2688 29.5861 19.6551 30.2044 19.4424L30.3771 19.383L30.373 19.2004C30.2766 14.9515 27.4201 11.2858 23.536 10.4457L23.3287 10.4009L23.2507 10.5982C23.0115 11.2029 22.4679 11.6032 21.8491 11.6032C21.2318 11.6032 20.6869 11.1933 20.447 10.5968L20.3684 10.4012L20.1622 10.4457C16.2783 11.2859 13.4216 14.9403 13.3252 19.2004L13.3211 19.383L13.4939 19.4424C14.1122 19.655 14.5716 20.2688 14.5716 21.0243C14.5716 21.9661 13.87 22.6945 13.0409 22.6945C12.2118 22.6945 11.5103 21.9661 11.5103 21.0243C11.5103 20.2569 11.9802 19.6344 12.6044 19.4324L12.7734 19.3778L12.7774 19.2002C12.8593 15.546 14.8247 12.3091 17.7176 10.7055L18.5631 10.2368H17.5964H14.7372H14.5504L14.4974 10.416C14.2932 11.1068 13.7084 11.5924 13.0404 11.5924C12.2113 11.5924 11.5098 10.864 11.5098 9.92219C11.5098 8.98038 12.2113 8.25195 13.0404 8.25195C13.7181 8.25195 14.2929 8.73671 14.4974 9.42843L14.5504 9.60754H14.7372H20.1625H20.3517L20.4031 9.4254C20.5971 8.73768 21.1803 8.25195 21.8486 8.25195C22.5148 8.25195 23.0902 8.73577 23.295 9.42843L23.348 9.60754H23.5347H28.9601ZM12.0684 21.0249C12.0684 21.5853 12.4874 22.0652 13.0513 22.0652C13.6023 22.0652 14.0342 21.5877 14.0342 21.0249C14.0342 20.4645 13.6152 19.9846 13.0513 19.9846C12.4874 19.9846 12.0684 20.4645 12.0684 21.0249ZM31.6397 9.92225C31.6397 9.36188 31.2207 8.88192 30.6568 8.88192C30.0928 8.88192 29.6739 9.36251 29.6739 9.92225C29.6739 10.4826 30.0929 10.9626 30.6568 10.9626C31.2207 10.9626 31.6397 10.4826 31.6397 9.92225ZM12.0684 9.92279C12.0684 10.4832 12.4874 10.9631 13.0513 10.9631C13.6046 10.9631 14.0342 10.4717 14.0342 9.92279C14.0342 9.36241 13.6152 8.88245 13.0513 8.88245C12.4852 8.88245 12.0684 9.37628 12.0684 9.92279ZM20.866 9.92279C20.866 10.4832 21.285 10.9631 21.8489 10.9631C22.415 10.9631 22.8318 10.4693 22.8318 9.92279C22.8318 9.36241 22.4128 8.88245 21.8489 8.88245C21.2827 8.88245 20.866 9.37628 20.866 9.92279Z" fill="white" stroke="white" stroke-width="0.5"/>
<path d="M47.5132 44.9798L47.3299 44.7821L47.1466 44.9798L44.8949 47.4079C44.7845 47.5269 44.6283 47.5269 44.518 47.4079C44.3976 47.2782 44.3976 47.0759 44.518 46.9462L60.591 29.6134L60.5912 29.6133L60.6362 29.5649C60.7513 29.441 60.909 29.4495 61.0032 29.5455L66.7091 35.6986L66.7088 35.6988L66.7184 35.7081C66.7665 35.7548 66.7996 35.833 66.7996 35.9238C66.7996 36.0031 66.7632 36.0906 66.7091 36.149L56.2986 47.3754L56.2983 47.3751L56.2898 47.3853C56.2485 47.4349 56.1757 47.4649 56.1154 47.4649C56.0636 47.4649 55.9924 47.4402 55.9323 47.3754C55.812 47.2456 55.812 47.0434 55.9323 46.9136L65.9657 36.0938L66.1233 35.9238L65.9657 35.7538L60.9907 30.3889L60.8073 30.1912L60.624 30.3889L58.6028 32.5685L58.4452 32.7385L58.6028 32.9085L59.8072 34.2074C59.9276 34.3371 59.9276 34.5394 59.8072 34.6691L59.807 34.6689L59.7985 34.6791C59.7572 34.7286 59.6843 34.7586 59.6241 34.7586C59.5723 34.7586 59.5011 34.734 59.441 34.6691L58.2365 33.3703L58.0532 33.1726L57.8699 33.3703L55.922 35.4709L55.7643 35.6409L55.922 35.8109L57.1264 37.1097C57.2467 37.2395 57.2467 37.4417 57.1264 37.5715L57.1261 37.5713L57.1177 37.5814C57.0764 37.631 57.0035 37.661 56.9433 37.661C56.8914 37.661 56.8202 37.6363 56.7601 37.5715L55.5557 36.2727L55.3724 36.075L55.189 36.2727L53.2411 38.3733L53.0835 38.5433L53.2411 38.7132L54.4456 40.0121C54.5659 40.1419 54.5659 40.3441 54.4456 40.4739L54.4453 40.4736L54.4368 40.4838C54.3955 40.5334 54.3227 40.5634 54.2624 40.5634C54.2106 40.5634 54.1394 40.5387 54.0793 40.4739L52.8748 39.175L52.6915 38.9773L52.5082 39.175L50.5603 41.2756L50.4027 41.4456L50.5603 41.6156L51.7647 42.9145C51.8851 43.0442 51.8851 43.2465 51.7647 43.3763L51.7645 43.376L51.756 43.3862C51.7147 43.4357 51.6418 43.4657 51.5816 43.4657C51.5298 43.4657 51.4586 43.4411 51.3985 43.3763L50.194 42.0774L50.0107 41.8797L49.8274 42.0774L47.8795 44.178L47.7218 44.348L47.8795 44.518L49.0839 45.8168C49.2043 45.9466 49.2043 46.1488 49.0839 46.2786L49.0837 46.2784L49.0752 46.2886C49.0339 46.3381 48.961 46.3681 48.9008 46.3681C48.849 46.3681 48.7777 46.3434 48.7176 46.2786L47.5132 44.9798Z" fill="white" stroke="white" stroke-width="0.5"/>
</g>
<defs>
<filter id="filter0_d_427_1143" x="0.330078" y="0.831055" width="74.001" height="67" filterUnits="userSpaceOnUse" color-interpolation-filters="sRGB">
<feFlood flood-opacity="0" result="BackgroundImageFix"/>
<feColorMatrix in="SourceAlpha" type="matrix" values="0 0 0 0 0 0 0 0 0 0 0 0 0 0 0 0 0 0 127 0" result="hardAlpha"/>
<feOffset dy="4"/>
<feGaussianBlur stdDeviation="2"/>
<feComposite in2="hardAlpha" operator="out"/>
<feColorMatrix type="matrix" values="0 0 0 0 0 0 0 0 0 0 0 0 0 0 0 0 0 0 0.25 0"/>
<feBlend mode="normal" in2="BackgroundImageFix" result="effect1_dropShadow_427_1143"/>
<feBlend mode="normal" in="SourceGraphic" in2="effect1_dropShadow_427_1143" result="shape"/>
</filter>
</defs>
</svg>
