<svg width="67" height="66" viewBox="0 0 67 66" fill="none" xmlns="http://www.w3.org/2000/svg">
<path d="M6.58494 19.487H16.0651C16.2746 19.487 16.4756 19.4038 16.6238 19.2556C16.7719 19.1075 16.8551 18.9065 16.8551 18.697C16.8551 18.4875 16.7719 18.2865 16.6238 18.1384C16.4756 17.9902 16.2746 17.907 16.0651 17.907H6.58494C6.37541 17.907 6.17447 17.9902 6.02631 18.1384C5.87816 18.2865 5.79492 18.4875 5.79492 18.697C5.79492 18.9065 5.87816 19.1075 6.02631 19.2556C6.17447 19.4038 6.37541 19.487 6.58494 19.487Z" fill="url(#paint0_linear_1392_372)"/>
<path d="M16.8551 23.4372C16.8551 23.2277 16.7719 23.0268 16.6238 22.8786C16.4756 22.7304 16.2746 22.6472 16.0651 22.6472H6.58494C6.37541 22.6472 6.17447 22.7304 6.02631 22.8786C5.87816 23.0268 5.79492 23.2277 5.79492 23.4372C5.79492 23.6468 5.87816 23.8477 6.02631 23.9959C6.17447 24.144 6.37541 24.2272 6.58494 24.2272H16.0651C16.2746 24.2272 16.4756 24.144 16.6238 23.9959C16.7719 23.8477 16.8551 23.6468 16.8551 23.4372Z" fill="url(#paint1_linear_1392_372)"/>
<path d="M52.985 32.4004V28.9672H54.249C55.2963 28.9661 56.3003 28.5495 57.0408 27.809C57.7814 27.0685 58.1979 26.0644 58.1991 25.0172V13.9569C58.1979 12.9097 57.7814 11.9057 57.0408 11.1651C56.3003 10.4246 55.2963 10.008 54.249 10.0069H52.985V7.11014C52.9829 5.22507 52.2331 3.41781 50.9001 2.08486C49.5672 0.751911 47.7599 0.00212584 45.8749 0H19.9623C18.0773 0.00212584 16.27 0.751911 14.9371 2.08486C13.6041 3.41781 12.8543 5.22507 12.8522 7.11014V9.86427C10.8707 9.58269 8.84994 9.83407 6.99781 10.5926C5.14568 11.351 3.52905 12.5892 2.31421 14.1798C1.09937 15.7703 0.330191 17.6558 0.0857847 19.6422C-0.158621 21.6287 0.130575 23.6444 0.923624 25.482C2.71841 29.6488 6.77764 32.0786 11.4545 32.0786C11.9213 32.0782 12.3878 32.0542 12.8522 32.0067V38.4474H11.0615C10.0142 38.4486 9.01021 38.8652 8.26968 39.6057C7.52915 40.3462 7.11261 41.3502 7.11142 42.3975V53.4577C7.11261 54.505 7.52915 55.509 8.26968 56.2495C9.01021 56.9901 10.0142 57.4066 11.0615 57.4078H12.8522V58.7245C12.8543 60.6096 13.6041 62.4168 14.9371 63.7498C16.27 65.0827 18.0773 65.8325 19.9623 65.8346H45.8749C47.7599 65.8325 49.5672 65.0827 50.9001 63.7498C52.2331 62.4168 52.9829 60.6096 52.985 58.7245V54.4872C53.6753 54.6169 54.3761 54.6826 55.0785 54.6834C57.4939 54.6911 59.8396 53.8743 61.7278 52.368C63.6799 50.8224 65.0652 48.6737 65.6672 46.2576C66.2691 43.8415 66.054 41.2941 65.0553 39.0132C64.0566 36.7324 62.3306 34.8465 60.1469 33.6501C57.9632 32.4537 55.4448 32.0143 52.985 32.4004ZM56.6191 25.0172C56.6183 25.6455 56.3684 26.2479 55.9241 26.6922C55.4798 27.1365 54.8774 27.3865 54.249 27.3872H50.8288L48.0861 23.578L52.1572 20.3284C52.1632 20.3237 52.1692 20.3187 52.1751 20.3137C52.3069 20.203 52.4711 20.1383 52.6429 20.1291C52.8148 20.12 52.9849 20.167 53.1277 20.263L56.6191 23.8997V25.0172ZM40.5749 45.1818C40.7423 45.3553 44.6888 49.4472 46.1719 50.8699C46.5353 51.2185 46.9089 51.5433 47.2927 51.8442V58.8763C47.2923 59.212 47.1588 59.5338 46.9214 59.7712C46.684 60.0085 46.3622 60.1421 46.0265 60.1424H19.8112C19.4755 60.1421 19.1537 60.0085 18.9163 59.7712C18.679 59.5338 18.5454 59.212 18.5451 58.8763V57.4078H26.0718C27.1191 57.4066 28.1231 56.9901 28.8636 56.2495C29.6041 55.509 30.0207 54.505 30.0219 53.4577V42.3975C30.0207 41.3502 29.6041 40.3462 28.8636 39.6057C28.1231 38.8652 27.1191 38.4486 26.0718 38.4474H18.5445V30.5726C20.6361 29.9242 22.8081 29.2295 22.9474 29.1849C24.4811 28.765 24.8751 26.5786 23.5843 25.65L22.0365 24.4561C22.0314 24.4522 22.0277 24.4467 22.0258 24.4405C22.0239 24.4344 22.024 24.4278 22.026 24.4216C22.6988 22.2996 22.7271 20.0257 22.1074 17.8876C21.4877 15.7495 20.2478 13.8432 18.5445 12.4098V6.95872C18.5449 6.62304 18.6784 6.30122 18.9158 6.06385C19.1532 5.82649 19.475 5.69297 19.8107 5.69259H23.3294C23.4601 5.69425 23.5883 5.72925 23.7018 5.79427C23.8152 5.85929 23.9102 5.95219 23.9777 6.06416C24.9658 7.63682 26.5053 8.55442 28.0946 8.519H37.7426C37.7715 8.5197 37.8006 8.52001 37.8299 8.51992C39.3888 8.51992 40.8892 7.60746 41.8589 6.06337C41.9265 5.95141 42.0215 5.85853 42.1349 5.79352C42.2484 5.7285 42.3765 5.69349 42.5073 5.6918H46.0261C46.3618 5.69218 46.6836 5.8257 46.921 6.06306C47.1584 6.30043 47.2919 6.62225 47.2923 6.95793V10.0069H39.2387C38.1915 10.008 37.1874 10.4246 36.4469 11.1651C35.7064 11.9057 35.2898 12.9097 35.2886 13.9569V25.0172C35.2898 26.0644 35.7064 27.0685 36.4469 27.809C37.1874 28.5495 38.1915 28.9661 39.2387 28.9672H47.2927V35.0576C45.401 36.7154 44.1186 38.9586 43.6496 41.4297C43.6487 41.4363 43.6457 41.4423 43.6411 41.4471C43.6365 41.4518 43.6305 41.4549 43.624 41.4561L41.6954 41.7733C40.1209 41.9762 39.4299 44.0898 40.5749 45.1818ZM39.2387 27.3872C38.6104 27.3865 38.008 27.1365 37.5637 26.6922C37.1193 26.2479 36.8694 25.6455 36.8687 25.0172V22.8958L38.4682 21.9044C40.2513 20.7997 41.7913 19.8455 42.3027 19.5212C42.4729 19.4136 42.6778 19.375 42.8755 19.4133C43.0733 19.4516 43.2489 19.5639 43.3667 19.7273L48.8818 27.3872H39.2387ZM48.8727 28.9672H51.405V32.7625C50.5169 33.0348 49.6662 33.4169 48.8727 33.8998V28.9672ZM54.249 11.5869C54.8774 11.5876 55.4798 11.8376 55.9241 12.2819C56.3684 12.7262 56.6183 13.3286 56.6191 13.9569V21.6183L54.2198 19.119C53.7948 18.7552 53.2546 18.5536 52.6951 18.5501C52.1356 18.5466 51.5929 18.7414 51.1633 19.0999L47.1617 22.2941L44.6493 18.8049C44.296 18.3147 43.7689 17.9778 43.1757 17.8629C42.5825 17.7481 41.9678 17.8639 41.4571 18.1868C40.9521 18.5068 39.3413 19.505 37.636 20.5616L36.8687 21.0371V13.9569C36.8694 13.3286 37.1193 12.7262 37.5637 12.2819C38.008 11.8376 38.6104 11.5876 39.2387 11.5869H54.249ZM14.4322 7.11014C14.4339 5.64397 15.017 4.23831 16.0538 3.20157C17.0905 2.16483 18.4962 1.58167 19.9623 1.58003H45.8749C47.341 1.58167 48.7467 2.16483 49.7834 3.20157C50.8202 4.23831 51.4033 5.64397 51.405 7.11014V10.0069H48.8727V6.95846C48.8718 6.20388 48.5717 5.48045 48.0381 4.94688C47.5045 4.41331 46.7811 4.11317 46.0265 4.11229H42.5077C42.1095 4.11317 41.718 4.21565 41.3705 4.41005C41.0229 4.60445 40.7307 4.88432 40.5216 5.22319C39.8306 6.32302 38.8099 6.96438 37.771 6.93976H37.7516H28.0854H28.0662C27.0348 6.96609 26.0066 6.32315 25.3156 5.22332C25.1065 4.88439 24.8143 4.60447 24.4667 4.41004C24.1191 4.21562 23.7276 4.11313 23.3294 4.11229H19.8107C19.0561 4.11317 18.3326 4.41331 17.7991 4.94688C17.2655 5.48045 16.9654 6.20388 16.9645 6.95846V11.2972C16.1677 10.8326 15.3174 10.4665 14.4322 10.207V7.11014ZM2.37475 24.8568C1.75577 23.42 1.49376 21.8547 1.61109 20.2946C1.72841 18.7345 2.22159 17.226 3.04851 15.8979C3.87542 14.5699 5.0115 13.4617 6.35971 12.668C7.70792 11.8743 9.2282 11.4187 10.7907 11.3402C12.3532 11.2616 13.9115 11.5624 15.3325 12.2169C16.7535 12.8713 17.995 13.86 18.951 15.0985C19.9069 16.3369 20.5489 17.7884 20.8221 19.3288C21.0953 20.8692 20.9916 22.4529 20.5198 23.9446C20.4208 24.2596 20.4206 24.5974 20.5193 24.9126C20.618 25.2277 20.8108 25.5051 21.0718 25.7074L22.6194 26.9011C22.6849 26.9507 22.7353 27.0175 22.7648 27.0942C22.7944 27.1708 22.802 27.2542 22.7868 27.3349C22.7715 27.4156 22.7341 27.4905 22.6786 27.5511C22.6232 27.6117 22.5519 27.6556 22.4729 27.6779C22.4169 27.696 16.8581 29.4738 14.9073 30.0152C9.48502 31.5196 4.33109 29.3986 2.37475 24.8568ZM16.9645 31.0574V38.4474H14.4322V31.7567C14.7305 31.6929 15.0297 31.6208 15.3297 31.5376C15.7489 31.4213 16.3205 31.2522 16.9645 31.0574ZM11.0615 55.8278C10.4331 55.827 9.83074 55.5771 9.38643 55.1328C8.94212 54.6885 8.69218 54.0861 8.69145 53.4577V42.3975C8.69218 41.7692 8.94212 41.1667 9.38643 40.7224C9.83074 40.2781 10.4331 40.0282 11.0615 40.0275H26.0718C26.7001 40.0282 27.3026 40.2781 27.7469 40.7224C28.1912 41.1667 28.4411 41.7692 28.4418 42.3975V53.4577C28.4411 54.0861 28.1912 54.6885 27.7469 55.1328C27.3026 55.5771 26.7001 55.827 26.0718 55.8278H11.0615ZM51.405 58.7245C51.4033 60.1907 50.8202 61.5963 49.7834 62.6331C48.7467 63.6698 47.341 64.253 45.8749 64.2546H19.9623C18.4962 64.253 17.0905 63.6698 16.0538 62.6331C15.017 61.5963 14.4339 60.1907 14.4322 58.7245V57.4078H16.9645V58.8762C16.9654 59.6308 17.2655 60.3542 17.7991 60.8878C18.3326 61.4213 19.0561 61.7215 19.8107 61.7223H46.026C46.7806 61.7215 47.504 61.4213 48.0376 60.8878C48.5712 60.3542 48.8713 59.6308 48.8722 58.8762V52.9259C49.6728 53.3994 50.5217 53.7862 51.4044 54.0796L51.405 58.7245ZM60.7456 51.1297C56.8696 54.2011 51.3269 53.6253 47.2657 49.7298C45.8041 48.3283 41.7532 44.1274 41.7073 44.0798C41.6498 44.0222 41.6094 43.9499 41.5905 43.8707C41.5716 43.7916 41.5749 43.7087 41.6002 43.6314C41.6254 43.554 41.6715 43.4852 41.7335 43.4324C41.7954 43.3796 41.8707 43.345 41.9511 43.3324L43.8797 43.015C44.2054 42.9606 44.5066 42.8078 44.7429 42.5771C44.9792 42.3464 45.1391 42.049 45.2014 41.7247C45.4932 40.1877 46.1526 38.7442 47.1234 37.5174C48.0943 36.2907 49.3476 35.3171 50.7763 34.6799C52.2051 34.0426 53.7669 33.7607 55.3282 33.8581C56.8896 33.9555 58.4043 34.4293 59.7428 35.2392C61.0812 36.049 62.2038 37.1708 63.0147 38.5087C63.8255 39.8466 64.3005 41.3609 64.399 42.9222C64.4975 44.4835 64.2167 46.0455 63.5805 47.4747C62.9443 48.904 61.9716 50.158 60.7456 51.1297Z" fill="url(#paint2_linear_1392_372)"/>
<path d="M59.2526 40.2908H49.7724C49.5629 40.2908 49.362 40.374 49.2138 40.5222C49.0657 40.6703 48.9824 40.8713 48.9824 41.0808C48.9824 41.2903 49.0657 41.4913 49.2138 41.6394C49.362 41.7876 49.5629 41.8708 49.7724 41.8708H59.2526C59.4621 41.8708 59.6631 41.7876 59.8113 41.6394C59.9594 41.4913 60.0426 41.2903 60.0426 41.0808C60.0426 40.8713 59.9594 40.6703 59.8113 40.5222C59.6631 40.374 59.4621 40.2908 59.2526 40.2908Z" fill="url(#paint3_linear_1392_372)"/>
<path d="M59.2526 45.0308H49.7724C49.5629 45.0308 49.362 45.114 49.2138 45.2622C49.0657 45.4103 48.9824 45.6113 48.9824 45.8208C48.9824 46.0303 49.0657 46.2312 49.2138 46.3794C49.362 46.5276 49.5629 46.6108 49.7724 46.6108H59.2526C59.4621 46.6108 59.6631 46.5276 59.8113 46.3794C59.9594 46.2312 60.0426 46.0303 60.0426 45.8208C60.0426 45.6113 59.9594 45.4103 59.8113 45.2622C59.6631 45.114 59.4621 45.0308 59.2526 45.0308Z" fill="url(#paint4_linear_1392_372)"/>
<path d="M48.4557 18.1703C48.9765 18.1703 49.4856 18.0159 49.9187 17.7265C50.3517 17.4372 50.6893 17.0259 50.8886 16.5447C51.0879 16.0635 51.14 15.534 51.0384 15.0232C50.9368 14.5124 50.686 14.0432 50.3177 13.6749C49.9495 13.3066 49.4802 13.0558 48.9694 12.9542C48.4586 12.8526 47.9291 12.9047 47.4479 13.104C46.9667 13.3033 46.5554 13.6409 46.2661 14.0739C45.9767 14.507 45.8223 15.0161 45.8223 15.537C45.8231 16.2351 46.1008 16.9045 46.5945 17.3981C47.0881 17.8918 47.7575 18.1695 48.4557 18.1703ZM48.4557 14.4836C48.664 14.4836 48.8676 14.5454 49.0409 14.6611C49.2141 14.7769 49.3491 14.9414 49.4288 15.1338C49.5085 15.3263 49.5294 15.5381 49.4888 15.7425C49.4481 15.9468 49.3478 16.1345 49.2005 16.2818C49.0532 16.4291 48.8655 16.5294 48.6612 16.5701C48.4568 16.6107 48.245 16.5898 48.0526 16.5101C47.8601 16.4304 47.6956 16.2954 47.5798 16.1222C47.4641 15.9489 47.4023 15.7453 47.4023 15.537C47.4026 15.2577 47.5137 14.9899 47.7112 14.7925C47.9086 14.595 48.1764 14.4839 48.4557 14.4836Z" fill="url(#paint5_linear_1392_372)"/>
<path d="M25.0117 44.5162C24.7702 44.3765 24.4957 44.3039 24.2167 44.306C23.9376 44.3081 23.6643 44.3848 23.4249 44.5282L22.0095 45.3646C21.8563 44.8859 21.5552 44.4682 21.1495 44.1716C20.7438 43.875 20.2544 43.7148 19.7519 43.7141H13.9584C13.3301 43.7148 12.7277 43.9648 12.2834 44.4091C11.839 44.8534 11.5891 45.4558 11.5884 46.0842V49.7709C11.5891 50.3992 11.839 51.0017 12.2834 51.446C12.7277 51.8903 13.3301 52.1402 13.9584 52.1409H19.7519C20.2544 52.1402 20.7438 51.98 21.1495 51.6834C21.5552 51.3868 21.8563 50.9691 22.0095 50.4905L23.4249 51.3268C23.6649 51.4686 23.9381 51.5444 24.2167 51.5465C24.4954 51.5486 24.7697 51.4769 25.0118 51.3388C25.2539 51.2006 25.4551 51.0009 25.595 50.7599C25.735 50.5189 25.8087 50.2451 25.8087 49.9664V45.8886C25.8104 45.6096 25.7374 45.3351 25.5973 45.0938C25.4571 44.8524 25.2549 44.653 25.0117 44.5162ZM20.5419 49.7709C20.5417 49.9804 20.4584 50.1812 20.3103 50.3293C20.1622 50.4774 19.9613 50.5607 19.7519 50.5609H13.9584C13.749 50.5607 13.5481 50.4774 13.4 50.3293C13.2519 50.1812 13.1686 49.9804 13.1684 49.7709V46.0842C13.1686 45.8747 13.2519 45.6739 13.4 45.5258C13.5481 45.3777 13.749 45.2944 13.9584 45.2941H19.7519C19.9613 45.2944 20.1622 45.3777 20.3103 45.5258C20.4584 45.6739 20.5417 45.8747 20.5419 46.0842V49.7709ZM24.2286 49.9664L22.1219 48.7216V47.1334L24.2286 45.8886V49.9664Z" fill="url(#paint6_linear_1392_372)"/>
<defs>
<linearGradient id="paint0_linear_1392_372" x1="5.79767" y1="18.696" x2="16.8551" y2="18.696" gradientUnits="userSpaceOnUse">
<stop stop-color="#11698E"/>
<stop offset="1" stop-color="#16C79A"/>
</linearGradient>
<linearGradient id="paint1_linear_1392_372" x1="5.79767" y1="23.4362" x2="16.8551" y2="23.4362" gradientUnits="userSpaceOnUse">
<stop stop-color="#11698E"/>
<stop offset="1" stop-color="#16C79A"/>
</linearGradient>
<linearGradient id="paint2_linear_1392_372" x1="0.0178603" y1="32.8756" x2="66.0015" y2="32.8756" gradientUnits="userSpaceOnUse">
<stop stop-color="#11698E"/>
<stop offset="1" stop-color="#16C79A"/>
</linearGradient>
<linearGradient id="paint3_linear_1392_372" x1="48.9852" y1="41.0798" x2="60.0426" y2="41.0798" gradientUnits="userSpaceOnUse">
<stop stop-color="#11698E"/>
<stop offset="1" stop-color="#16C79A"/>
</linearGradient>
<linearGradient id="paint4_linear_1392_372" x1="48.9852" y1="45.8198" x2="60.0426" y2="45.8198" gradientUnits="userSpaceOnUse">
<stop stop-color="#11698E"/>
<stop offset="1" stop-color="#16C79A"/>
</linearGradient>
<linearGradient id="paint5_linear_1392_372" x1="45.8236" y1="15.5336" x2="51.089" y2="15.5336" gradientUnits="userSpaceOnUse">
<stop stop-color="#11698E"/>
<stop offset="1" stop-color="#16C79A"/>
</linearGradient>
<linearGradient id="paint6_linear_1392_372" x1="11.5919" y1="47.9222" x2="25.8087" y2="47.9222" gradientUnits="userSpaceOnUse">
<stop stop-color="#11698E"/>
<stop offset="1" stop-color="#16C79A"/>
</linearGradient>
</defs>
</svg>
