<svg width="68" height="61" viewBox="0 0 68 61" fill="none" xmlns="http://www.w3.org/2000/svg">
<path d="M1.26562 1.03711H1.01562V1.28711V60.2871V60.5371H1.26562H67.2656H67.5156V60.2871V1.28711V1.03711H67.2656H1.26562ZM2.8905 3.16829H65.6405V12.7286H2.8905V3.16829ZM65.6405 58.4056H2.8905V14.8599H65.6405V58.4056Z" fill="white" stroke="white" stroke-width="0.5"/>
<path d="M52.2539 6.88281H52.0039V7.13281V8.76399V9.01399H52.2539H61.307H61.557V8.76399V7.13281V6.88281H61.307H52.2539Z" fill="white" stroke="white" stroke-width="0.5"/>
<path d="M7.22266 6.88281H6.97266V7.13281V8.76399V9.01399H7.22266H9.17012H9.42012V8.76399V7.13281V6.88281H9.17012H7.22266Z" fill="white" stroke="white" stroke-width="0.5"/>
<path d="M12.6113 6.88281H12.3613V7.13281V8.76399V9.01399H12.6113H14.5588H14.8088V8.76399V7.13281V6.88281H14.5588H12.6113Z" fill="white" stroke="white" stroke-width="0.5"/>
<path d="M17.9941 6.88281H17.7441V7.13281V8.76399V9.01399H17.9941H19.9416H20.1916V8.76399V7.13281V6.88281H19.9416H17.9941Z" fill="white" stroke="white" stroke-width="0.5"/>
<path d="M17.3284 18.5527V18.3027H17.0784H6.07812H5.82812V18.5527V31.6036V31.8536H6.07812H17.0784H17.3284V31.6036V18.5527ZM15.453 29.7217H7.70313V20.4339H15.453V29.7217Z" fill="white" stroke="white" stroke-width="0.5"/>
<path d="M32.4537 18.5527V18.3027H32.2037H21.2031H20.9531V18.5527V31.6036V31.8536H21.2031H32.2037H32.4537V31.6036V18.5527ZM30.5789 29.7217H22.828V20.4339H30.5789V29.7217Z" fill="white" stroke="white" stroke-width="0.5"/>
<path d="M47.5792 18.5527V18.3027H47.3292H36.3281H36.0781V18.5527V31.6036V31.8536H36.3281H47.3292H47.5792V31.6036V18.5527ZM45.7044 29.7217H37.953V20.4339H45.7044V29.7217Z" fill="white" stroke="white" stroke-width="0.5"/>
<path d="M62.7034 18.5527V18.3027H62.4534H51.4531H51.2031V18.5527V31.6036V31.8536H51.4531H62.4534H62.7034V31.6036V18.5527ZM60.8285 29.7217H53.0786V20.4339H60.8285V29.7217Z" fill="white" stroke="white" stroke-width="0.5"/>
<path d="M61.9945 54.6919H62.2445V54.4419V35.9541V35.7041H61.9945H6.07617H5.82617V35.9541V54.4419V54.6919H6.07617H61.9945ZM7.70116 37.8354H60.3683L60.3687 52.5606H7.70044L7.70116 37.8354Z" fill="white" stroke="white" stroke-width="0.5"/>
</svg>
