<svg width="63" height="59" viewBox="0 0 63 59" fill="none" xmlns="http://www.w3.org/2000/svg">
<path fill-rule="evenodd" clip-rule="evenodd" d="M6.01011 0.200966C3.40506 0.801409 1.17401 3.26871 0.715652 6.04918C0.619173 6.58446 0.583008 13.9861 0.583008 29.5466C0.583008 48.5404 0.619172 52.4174 0.751818 53.1354C1.18603 55.3025 2.6212 57.2736 4.46644 58.2005C5.02117 58.4876 5.793 58.7749 6.17892 58.8532C7.19201 59.0489 55.7225 59.0489 56.7354 58.8532C59.3405 58.3441 61.6078 55.9552 62.1626 53.1354C62.2953 52.4174 62.3315 48.5404 62.3315 29.5466C62.3315 13.9861 62.2953 6.58446 62.1988 6.04918C61.8491 3.96058 60.3536 1.79356 58.5807 0.853687C58.4793 0.799952 58.3901 0.7495 58.3064 0.70233C58.22 0.653458 58.1393 0.607867 58.0574 0.56556C56.9447 -0.00983983 55.5776 -0.00898674 35.6387 0.00280573L31.397 0.00511525C10.7739 0.00511525 6.66132 0.0442596 6.01011 0.200966ZM56.3013 2.34185C57.8692 2.66815 59.1475 3.73859 59.835 5.31817L60.2209 6.19276L60.2571 10.8531L60.2933 15.5266H31.4572H2.6212L2.65737 10.8531L2.69354 6.19276L3.07945 5.31817C3.74279 3.79086 5.04532 2.66815 6.51666 2.35486C7.27647 2.18514 55.5174 2.18514 56.3013 2.34185ZM60.2814 37.322C60.2826 51.7088 60.2827 52.9585 59.782 53.8939C59.7344 53.9829 59.6822 54.069 59.6251 54.1633C59.5922 54.2177 59.5576 54.2747 59.5214 54.3365C58.9907 55.2242 58.3636 55.8116 57.3868 56.3076L56.6028 56.7123H31.4572H6.31157L5.52771 56.3076C4.55079 55.8116 3.92373 55.2242 3.39304 54.3365C3.35687 54.2747 3.32239 54.2178 3.28948 54.1636C3.23243 54.0692 3.18009 53.9829 3.13247 53.8939C2.63176 52.9585 2.63187 51.709 2.63311 37.3219L2.63322 34.9511V17.7457H31.4572H60.2813V34.9511L60.2814 37.322ZM7.46943 5.48801C5.44325 5.90573 4.32167 8.33376 5.21413 10.3702C6.1669 12.5502 8.83216 13.0202 10.388 11.2839C10.8945 10.7226 11.3166 9.61306 11.3166 8.86892C11.3166 8.02047 10.8945 7.00219 10.2795 6.38873C9.44731 5.55317 8.54272 5.26602 7.46943 5.48801ZM8.94077 8.09876C9.29052 8.50348 9.35083 8.9212 9.13373 9.44335C8.95279 9.8742 8.27743 10.2135 7.8312 10.1091C6.80609 9.86107 6.62515 8.30762 7.56591 7.79848C8.09649 7.51133 8.50656 7.60275 8.94077 8.09876ZM14.8141 8.93408C14.8141 7.55035 15.5498 6.32333 16.7437 5.7489C17.0934 5.57919 17.5397 5.47476 18.0101 5.47476C20.8563 5.47476 22.2673 9.16908 20.2532 11.3491C18.2392 13.5291 14.8261 12.015 14.8141 8.93408ZM18.806 9.79567C19.2643 9.28664 19.2764 8.65994 18.8422 8.09864C18.4201 7.55035 17.6603 7.52434 17.1779 8.03336C16.4784 8.80364 17.0091 10.1742 18.0101 10.1742C18.3357 10.1742 18.5407 10.0698 18.806 9.79567ZM26.7657 5.69662C26.4522 5.81418 25.9819 6.16662 25.6683 6.50605C23.6543 8.68608 25.0533 12.3804 27.8995 12.3934C29.6844 12.3934 31.0954 10.8661 31.0954 8.93408C31.0954 6.51906 28.8884 4.88732 26.7657 5.69662ZM28.6954 8.07251C29.1658 8.59466 29.1899 9.3388 28.7316 9.83481C28.0201 10.592 26.7537 10.0175 26.7537 8.93408C26.7537 8.26836 27.2844 7.69393 27.8995 7.69393C28.2251 7.69393 28.43 7.79836 28.6954 8.07251ZM30.1788 35.5904C32.1567 25.4213 32.3135 24.7164 32.6029 24.4292C32.9527 24.1159 33.2301 24.0767 33.6643 24.2856C33.9658 24.4292 34.231 24.8991 34.231 25.2777C34.231 25.3952 33.3024 30.2514 32.1688 36.0734C30.8301 42.9529 30.0462 46.7778 29.9015 46.9737C29.4553 47.6655 28.5628 47.5741 28.2251 46.817C28.0804 46.4907 28.2612 45.4464 30.1788 35.5904ZM24.3416 28.8026C23.6784 29.3117 17.5758 35.0164 17.4673 35.2382C17.2382 35.6952 17.3347 36.126 17.7448 36.5698C18.396 37.2747 24.2211 42.6007 24.5467 42.7836C24.9085 42.9925 25.608 42.7836 25.7889 42.418C26.006 41.9742 25.9216 41.3999 25.5838 40.9951C25.3909 40.7863 24.0763 39.5461 22.6532 38.2407C21.2301 36.9222 20.0482 35.8127 20.0241 35.7604C20.0121 35.7082 21.2181 34.5334 22.7135 33.1626C24.209 31.7789 25.5477 30.5257 25.6683 30.369C26.006 29.9775 25.9819 29.2986 25.608 28.907C25.2582 28.5284 24.7638 28.4893 24.3416 28.8026ZM37.2462 30.369C36.9084 29.9775 36.9326 29.2986 37.3065 28.907C37.6562 28.5284 38.1507 28.4893 38.5727 28.8026C39.2361 29.3117 45.3385 35.0164 45.4471 35.2382C45.6763 35.6952 45.5798 36.126 45.1697 36.5698C44.5185 37.2747 38.6934 42.6007 38.3678 42.7836C38.006 42.9925 37.3065 42.7836 37.1255 42.418C36.9084 41.9742 36.9929 41.3999 37.3426 40.9951C37.5236 40.7863 38.8381 39.5461 40.2612 38.2407C41.6843 36.9222 42.8662 35.8127 42.8904 35.7604C42.9024 35.7082 41.6963 34.5334 40.2009 33.1626C38.7055 31.7789 37.3668 30.5257 37.2462 30.369Z" fill="white"/>
</svg>
