<svg width="66" height="67" viewBox="0 0 66 67" fill="none" xmlns="http://www.w3.org/2000/svg">
<path d="M40.7535 48.8427C40.7809 48.903 40.8042 48.9641 40.8251 49.026L44.5927 58.6768L47.723 49.789C47.9215 49.2278 48.3627 48.7575 48.9671 48.5444L57.8509 45.4127L47.1082 41.2148C47.0343 41.1907 46.9611 41.1617 46.8912 41.1296L36.0946 36.9108L36.6805 38.4103C36.7183 38.4907 36.7504 38.5744 36.7778 38.6604L40.7535 48.8427ZM37.7832 52.4415C36.4876 52.9827 35.1334 53.4289 33.7334 53.7698C31.6776 54.2715 29.5455 54.5409 27.3716 54.5497L27.3667 54.5505H27.2631C19.735 54.5505 12.9183 51.4968 7.98531 46.5616C6.13525 44.7108 4.55041 42.5937 3.29105 40.2757L3.27497 40.2451L3.25167 40.2017C1.17819 36.3544 0 31.9523 0 27.2753C0 19.7439 3.05236 12.9241 7.98531 7.98889C12.9183 3.05372 19.735 0 27.2631 0C34.7911 0 41.607 3.05372 46.5408 7.98889C51.4738 12.9241 54.5261 19.7439 54.5261 27.2753C54.5261 29.6914 54.2063 32.0464 53.6091 34.2945C53.2009 35.8326 52.6568 37.3225 51.9937 38.7472L64.4443 43.6124C65.4915 44.0217 66.009 45.2052 65.6 46.2529C65.3757 46.827 64.9192 47.2418 64.38 47.4324L51.2423 52.0653L46.6123 65.2088C46.2386 66.2701 45.0741 66.8273 44.0132 66.4534C43.4322 66.2484 43.0014 65.8062 42.7933 65.2731L37.7832 52.4415ZM48.1112 37.23H48.2133C48.8128 35.9685 49.3022 34.6394 49.6695 33.2573C50.0062 31.9885 50.2385 30.6723 50.3558 29.3175H42.1744C42.1383 30.173 42.0804 31.0341 42.0016 31.8977C41.9149 32.8601 41.8015 33.7992 41.6649 34.711L48.1112 37.23ZM37.7687 33.1881C37.8394 32.6406 37.9005 32.0874 37.9511 31.531C38.0154 30.8202 38.0636 30.0821 38.095 29.3175H29.3044V37.23H31.8448L30.608 34.0621C30.1989 33.0145 30.7165 31.8309 31.7636 31.4217C32.2595 31.2279 32.7867 31.2424 33.2472 31.4217L37.7687 33.1881ZM33.4393 41.3145H29.3044V50.0166C29.8975 49.7553 30.477 49.3854 31.0379 48.9167L31.1336 48.829C32.4098 47.7299 33.5743 46.154 34.5717 44.2139L33.4393 41.3145ZM25.2217 29.3175H16.4343C16.5533 32.1276 16.9157 34.793 17.4799 37.23H25.2217V29.3175ZM25.2217 41.3145H18.6903C19.0688 42.3397 19.4867 43.3029 19.9416 44.1921C21.4244 47.0891 23.2503 49.1603 25.2217 50.0222V41.3145ZM29.3044 4.52832V13.2352H35.8359C35.4573 12.2093 35.0394 11.2476 34.5845 10.3584C33.1018 7.46144 31.2758 5.39025 29.3044 4.52832ZM29.3044 17.3197V25.233H38.0918C37.9728 22.4221 37.6104 19.7567 37.0462 17.3197H29.3044ZM25.2217 25.233V17.3197H17.4799C16.9157 19.7567 16.5533 22.4221 16.4343 25.233H25.2217ZM25.2217 13.2352V4.52832C23.2503 5.39025 21.4244 7.46144 19.9416 10.3584C19.4867 11.2476 19.0688 12.2093 18.6903 13.2352H25.2217ZM12.3493 29.3175H4.17107C4.41619 32.1284 5.16361 34.7962 6.32171 37.23H13.3121C12.7913 34.7504 12.4594 32.0906 12.3493 29.3175ZM14.3898 41.3145H8.81229C9.44559 42.1467 10.1343 42.9354 10.8721 43.6735C12.8323 45.6346 15.1428 47.2475 17.7017 48.4077C17.2139 47.6744 16.7526 46.8841 16.3218 46.043C15.5905 44.6135 14.9411 43.0271 14.3898 41.3145ZM12.3493 25.233C12.4602 22.4599 12.7921 19.8002 13.3129 17.3197H6.32171C5.16361 19.7535 4.417 22.4213 4.17107 25.233H12.3493ZM14.3898 13.2352C14.9419 11.5226 15.5905 9.93706 16.3218 8.50749C16.7526 7.66647 17.2139 6.8761 17.7017 6.14282C15.1428 7.30305 12.8323 8.91594 10.8721 10.877C10.1343 11.6151 9.44559 12.403 8.81229 13.2352H14.3898ZM36.8252 6.14443C37.313 6.87771 37.7735 7.66647 38.2043 8.50749C38.9356 9.93706 39.5842 11.5226 40.1363 13.2352H45.7138C45.0805 12.403 44.3918 11.6151 43.654 10.877C41.6938 8.91594 39.3833 7.30546 36.8252 6.14443ZM41.2132 17.3197C41.734 19.8002 42.0659 22.4599 42.1769 25.233H50.355C50.1091 22.4213 49.3625 19.7535 48.2044 17.3197H41.2132Z" fill="url(#paint0_linear_1391_142)"/>
<defs>
<linearGradient id="paint0_linear_1391_142" x1="0.0163309" y1="33.2427" x2="65.74" y2="33.2427" gradientUnits="userSpaceOnUse">
<stop stop-color="#11698E"/>
<stop offset="1" stop-color="#16C79A"/>
</linearGradient>
</defs>
</svg>
