<svg width="41" height="60" viewBox="0 0 41 60" fill="none" xmlns="http://www.w3.org/2000/svg">
<path d="M38.9949 7.75728H39.2449V7.50728V4.15501C39.2449 2.85955 38.0832 1.89352 36.687 1.89352H4.37963C4.37954 1.89352 4.37945 1.89352 4.37936 1.89352C2.98264 1.89365 1.8218 2.86022 1.8218 4.15501V7.50728V7.75728H2.0718H38.9949ZM2.07153 8.59807H1.82153V8.84807V49.0753V49.3253H2.07153H38.9946H39.2446V49.0753V8.84807V8.59807H38.9946H2.07153ZM23.5597 21.1437L23.5597 21.1436C23.7351 21.128 23.9101 21.2153 24.0208 21.3539C24.1328 21.4942 24.1444 21.6367 24.0885 21.7354L24.0884 21.7353L24.0844 21.743L16.3921 36.493L16.3921 36.4929L16.3895 36.4981C16.3454 36.5877 16.2431 36.6747 16.0977 36.7232C15.9538 36.7712 15.7985 36.7704 15.6759 36.7207C15.4215 36.6172 15.3395 36.3353 15.4363 36.1676L15.4365 36.1678L15.4414 36.1583L23.1337 21.4083L23.1338 21.4083L23.1354 21.405C23.1999 21.2767 23.3651 21.1613 23.5597 21.1437ZM12.4492 23.9951C12.5254 23.9103 12.6474 23.8453 12.784 23.8263L12.788 23.826C12.9788 23.8104 13.1585 23.9219 13.2564 24.0894C13.3548 24.2576 13.3377 24.4136 13.241 24.5094L13.241 24.5094L13.2383 24.5122L9.05571 28.7862L8.88418 28.9615L9.05614 29.1364L13.2387 33.3893L13.2529 33.4038L13.2693 33.4158C13.4753 33.5665 13.4761 33.886 13.273 34.0372C13.1682 34.1152 13.0064 34.1514 12.8369 34.1273C12.6663 34.1031 12.5336 34.0249 12.4693 33.9314L12.4569 33.9134L12.4416 33.8978L7.82815 29.2071C7.82782 29.2068 7.8275 29.2064 7.82717 29.2061C7.69256 29.0645 7.69256 28.8365 7.82717 28.695C7.8275 28.6946 7.82782 28.6943 7.82815 28.6939L12.4416 24.0032L12.4417 24.0034L12.4492 23.9951ZM28.155 23.8248L28.1625 23.824C28.3411 23.8144 28.5176 23.887 28.6158 23.9953L28.6156 23.9955L28.6227 24.0027L33.2361 28.6934C33.2365 28.6938 33.2368 28.6941 33.2371 28.6944C33.3717 28.836 33.3717 29.064 33.2371 29.2056C33.2368 29.2059 33.2365 29.2063 33.2361 29.2066L28.6227 33.8973L28.6074 33.9129L28.595 33.9309C28.5307 34.0244 28.398 34.1026 28.2274 34.1268C28.0579 34.1509 27.896 34.1147 27.7913 34.0367C27.588 33.8854 27.5892 33.5656 27.7948 33.4154L27.8113 33.4034L27.8256 33.3888L32.0082 29.1359L32.1801 28.961L32.0086 28.7857L27.826 24.5117L27.8261 24.5116L27.8226 24.5082C27.7281 24.4154 27.7047 24.2702 27.7711 24.1169C27.8375 23.9635 27.9795 23.8438 28.155 23.8248ZM2.07043 50.166H1.82044L1.82043 50.416L1.82016 56.4499C1.82016 57.7453 2.9818 58.7113 4.37798 58.7113H36.6857C38.0825 58.7113 39.2435 57.7447 39.2435 56.4499V50.416V50.166H38.9935H2.07043ZM0.783203 4.15501C0.783203 2.47881 2.36675 1.05273 4.37936 1.05273H36.687C38.6997 1.05273 40.2832 2.47881 40.2832 4.15501V56.4505C40.2832 58.1267 38.6997 59.5527 36.687 59.5527H4.37936C2.36675 59.5527 0.783203 58.1267 0.783203 56.4505V4.15501ZM18.4741 54.439C18.4741 53.4975 19.3623 52.6775 20.532 52.6775C21.7017 52.6775 22.5898 53.4975 22.5898 54.439C22.5898 55.3809 21.7017 56.2005 20.532 56.2005C19.3623 56.2005 18.4741 55.3805 18.4741 54.439Z" fill="white" stroke="white" stroke-width="0.5"/>
</svg>
