<svg width="66" height="59" viewBox="0 0 66 59" fill="none" xmlns="http://www.w3.org/2000/svg">
<path fill-rule="evenodd" clip-rule="evenodd" d="M5.80077 0.200966C3.01635 0.801409 0.631697 3.26871 0.141777 6.04918C0.0386549 6.58446 0 13.9861 0 29.5466C0 48.5404 0.0386547 52.4174 0.180433 53.1354C0.644543 55.3025 2.17853 57.2736 4.15082 58.2005C4.74374 58.4876 5.56872 58.7749 5.98121 58.8532C7.06405 59.0489 58.936 59.0489 60.0187 58.8532C62.8031 58.3441 65.2265 55.9552 65.8195 53.1354C65.9613 52.4174 66 48.5404 66 29.5466C66 13.9861 65.9613 6.58446 65.8582 6.04918C65.4844 3.96058 63.8859 1.79356 61.991 0.853687C61.8826 0.799952 61.7872 0.7495 61.6978 0.70233C61.6055 0.653458 61.5192 0.607867 61.4316 0.56556C60.2423 -0.00983983 58.7811 -0.00898674 37.4694 0.00280573L32.9356 0.00511525C10.8925 0.00511525 6.49682 0.0442596 5.80077 0.200966ZM59.5547 2.34185C61.2304 2.66815 62.5968 3.73859 63.3317 5.31817L63.7441 6.19276L63.7828 10.8531L63.8215 15.5266H32.9999H2.17853L2.21719 10.8531L2.25584 6.19276L2.66833 5.31817C3.37734 3.79086 4.76955 2.66815 6.3422 2.35486C7.15433 2.18514 58.7167 2.18514 59.5547 2.34185ZM63.8087 37.322C63.8101 51.7088 63.8102 52.9585 63.275 53.8939C63.2241 53.9829 63.1683 54.069 63.1073 54.1633C63.0721 54.2177 63.0351 54.2747 62.9965 54.3365C62.4293 55.2242 61.7589 55.8116 60.7148 56.3076L59.8769 56.7123H32.9999H6.12299L5.28516 56.3076C4.24097 55.8116 3.57074 55.2242 3.00351 54.3365C2.96485 54.2747 2.928 54.2178 2.89282 54.1636C2.83184 54.0692 2.77589 53.9829 2.72499 53.8939C2.18982 52.9585 2.18994 51.709 2.19126 37.3219L2.19138 34.9511V17.7457H32.9999H63.8086V34.9511L63.8087 37.322ZM7.36057 5.48801C5.19489 5.90573 3.99608 8.33376 4.94999 10.3702C5.96836 12.5502 8.81713 13.0202 10.48 11.2839C11.0215 10.7226 11.4726 9.61306 11.4726 8.86892C11.4726 8.02047 11.0215 7.00219 10.3641 6.38873C9.47464 5.55317 8.50776 5.26602 7.36057 5.48801ZM8.93321 8.09876C9.30705 8.50348 9.37151 8.9212 9.13946 9.44335C8.94606 9.8742 8.2242 10.2135 7.74725 10.1091C6.65156 9.86107 6.45816 8.30762 7.46369 7.79848C8.0308 7.51133 8.4691 7.60275 8.93321 8.09876ZM15.2109 8.93408C15.2109 7.55035 15.9973 6.32333 17.2734 5.7489C17.6472 5.57919 18.1242 5.47476 18.6269 5.47476C21.6691 5.47476 23.1773 9.16908 21.0246 11.3491C18.8718 13.5291 15.2238 12.015 15.2109 8.93408ZM19.4777 9.79567C19.9675 9.28664 19.9805 8.65994 19.5164 8.09864C19.0652 7.55035 18.2531 7.52434 17.7375 8.03336C16.9898 8.80364 17.5571 10.1742 18.6269 10.1742C18.975 10.1742 19.1942 10.0698 19.4777 9.79567ZM27.9855 5.69662C27.6503 5.81418 27.1477 6.16662 26.8125 6.50605C24.6598 8.68608 26.1551 12.3804 29.1973 12.3934C31.1051 12.3934 32.6133 10.8661 32.6133 8.93408C32.6133 6.51906 30.2543 4.88732 27.9855 5.69662ZM30.048 8.07251C30.5508 8.59466 30.5765 9.3388 30.0867 9.83481C29.3262 10.592 27.9726 10.0175 27.9726 8.93408C27.9726 8.26836 28.5399 7.69393 29.1973 7.69393C29.5453 7.69393 29.7644 7.79836 30.048 8.07251ZM31.6335 35.5904C33.7476 25.4213 33.9152 24.7164 34.2246 24.4292C34.5984 24.1159 34.8949 24.0767 35.359 24.2856C35.6812 24.4292 35.9648 24.8991 35.9648 25.2777C35.9648 25.3952 34.9722 30.2514 33.7606 36.0734C32.3297 42.9529 31.4918 46.7778 31.3371 46.9737C30.8602 47.6655 29.9063 47.5741 29.5453 46.817C29.3907 46.4907 29.5839 45.4464 31.6335 35.5904ZM25.3945 28.8026C24.6856 29.3117 18.1628 35.0164 18.0469 35.2382C17.802 35.6952 17.9051 36.126 18.3434 36.5698C19.0394 37.2747 25.2657 42.6007 25.6137 42.7836C26.0004 42.9925 26.748 42.7836 26.9414 42.418C27.1735 41.9742 27.0832 41.3999 26.7222 40.9951C26.516 40.7863 25.1109 39.5461 23.5898 38.2407C22.0687 36.9222 20.8055 35.8127 20.7797 35.7604C20.7668 35.7082 22.0559 34.5334 23.6542 33.1626C25.2527 31.7789 26.6836 30.5257 26.8125 30.369C27.1735 29.9775 27.1477 29.2986 26.748 28.907C26.3742 28.5284 25.8457 28.4893 25.3945 28.8026ZM39.1875 30.369C38.8265 29.9775 38.8523 29.2986 39.252 28.907C39.6258 28.5284 40.1543 28.4893 40.6054 28.8026C41.3144 29.3117 47.837 35.0164 47.9531 35.2382C48.198 35.6952 48.0949 36.126 47.6566 36.5698C46.9606 37.2747 40.7343 42.6007 40.3863 42.7836C39.9996 42.9925 39.252 42.7836 39.0586 42.418C38.8265 41.9742 38.9168 41.3999 39.2906 40.9951C39.484 40.7863 40.8891 39.5461 42.4101 38.2407C43.9313 36.9222 45.1945 35.8127 45.2203 35.7604C45.2332 35.7082 43.9441 34.5334 42.3456 33.1626C40.7473 31.7789 39.3164 30.5257 39.1875 30.369Z" fill="white"/>
</svg>
