<svg width="60" height="60" viewBox="0 0 60 60" fill="none" xmlns="http://www.w3.org/2000/svg">
<path d="M35.2053 46.1673H33.3523V42.4801C33.3523 42.4184 33.3585 42.3562 33.3709 42.2957C33.6232 41.0492 34.2254 39.8998 35.1076 38.98C35.9898 38.0603 37.1157 37.408 38.3553 37.0986L29.6462 21.3477L20.9371 37.1028C22.1759 37.4119 23.3017 38.0637 24.184 38.9827C25.0658 39.9016 25.6685 41.0506 25.9216 42.2962C25.934 42.3567 25.9402 42.4189 25.9402 42.4806V46.1679H24.0872V42.5838C23.8609 41.5234 23.2794 40.5707 22.4377 39.8818C21.596 39.1933 20.5441 38.8094 19.4547 38.7934C19.1271 38.7934 18.8239 38.6213 18.6572 38.3407C18.4905 38.06 18.4852 37.7127 18.6432 37.4271L28.8347 18.9908C29.0117 18.7155 29.3178 18.5488 29.6462 18.5488C29.9746 18.5488 30.2807 18.7155 30.4577 18.9908L40.6493 37.4271C40.8073 37.7127 40.8019 38.06 40.6352 38.3407C40.4685 38.6213 40.1653 38.7934 39.8377 38.7934C38.7466 38.802 37.6914 39.1827 36.8482 39.8723C36.0052 40.5617 35.4253 41.5176 35.2052 42.581L35.2053 46.1673Z" fill="white"/>
<path d="M29.6484 40.6362C28.6656 40.6362 27.723 40.2478 27.0277 39.5564C26.3328 38.8646 25.9424 37.9267 25.9424 36.949C25.9424 35.9712 26.3328 35.0333 27.0277 34.3416C27.723 33.6502 28.6657 33.2617 29.6484 33.2617C30.6311 33.2617 31.5738 33.6502 32.2691 34.3416C32.9639 35.0333 33.3544 35.9712 33.3544 36.949C33.3544 37.9267 32.9639 38.8647 32.2691 39.5564C31.5738 40.2478 30.6311 40.6362 29.6484 40.6362ZM29.6484 35.1053C29.157 35.1053 28.6855 35.2996 28.3381 35.6453C27.9906 35.9909 27.7954 36.4601 27.7954 36.949C27.7954 37.4379 27.9906 37.907 28.3381 38.2527C28.6855 38.5984 29.157 38.7926 29.6484 38.7926C30.1398 38.7926 30.6113 38.5984 30.9587 38.2527C31.3062 37.907 31.5014 37.4379 31.5014 36.949C31.5014 36.4601 31.3062 35.9909 30.9587 35.6453C30.6113 35.2996 30.1398 35.1053 29.6484 35.1053Z" fill="white"/>
<path d="M28.7217 19.4346H30.5747V34.1836H28.7217V19.4346Z" fill="white"/>
<path d="M35.2066 51.6968H24.0886C23.577 51.6968 23.1621 51.2841 23.1621 50.775V46.166C23.1621 45.6569 23.577 45.2441 24.0886 45.2441H35.2066C35.4523 45.2441 35.6881 45.3413 35.8618 45.5141C36.0355 45.6869 36.1331 45.9215 36.1331 46.166V50.775C36.1331 51.0195 36.0355 51.254 35.8618 51.4269C35.6881 51.5997 35.4523 51.6968 35.2066 51.6968ZM25.0151 49.8532H34.2801V47.0878H25.0151V49.8532Z" fill="white"/>
<path d="M13.8972 22.2008H10.1912C9.67951 22.2008 9.26465 21.788 9.26465 21.279V17.5917C9.26465 17.0827 9.67951 16.6699 10.1912 16.6699H13.8972C14.1428 16.6699 14.3786 16.767 14.5523 16.9399C14.726 17.1127 14.8237 17.3473 14.8237 17.5917V21.279C14.8237 21.5234 14.726 21.758 14.5523 21.9308C14.3786 22.1037 14.1428 22.2008 13.8972 22.2008ZM11.1177 20.3572H12.9707V18.5135H11.1177V20.3572Z" fill="white"/>
<path d="M49.1042 22.2008H45.3982C44.8865 22.2008 44.4717 21.788 44.4717 21.279V17.5917C44.4717 17.0827 44.8865 16.6699 45.3982 16.6699H49.1042C49.3499 16.6699 49.5856 16.767 49.7594 16.9399C49.9331 17.1127 50.0307 17.3473 50.0307 17.5917V21.279C50.0307 21.5234 49.9331 21.758 49.7594 21.9308C49.5856 22.1037 49.3499 22.2008 49.1042 22.2008ZM46.3247 20.3572H48.1777V18.5135H46.3247V20.3572Z" fill="white"/>
<path d="M49.1042 41.5592H45.3982C44.8865 41.5592 44.4717 41.1464 44.4717 40.6374V36.9501C44.4717 36.4411 44.8865 36.0283 45.3982 36.0283H49.1042C49.3499 36.0283 49.5856 36.1254 49.7594 36.2983C49.9331 36.4711 50.0307 36.7057 50.0307 36.9501V40.6374C50.0307 40.8818 49.9331 41.1164 49.7594 41.2892C49.5856 41.4621 49.3499 41.5592 49.1042 41.5592ZM46.3247 39.7156H48.1777V37.8719H46.3247V39.7156Z" fill="white"/>
<path d="M13.8972 41.5592H10.1912C9.67951 41.5592 9.26465 41.1464 9.26465 40.6374V36.9501C9.26465 36.4411 9.67951 36.0283 10.1912 36.0283H13.8972C14.1428 36.0283 14.3786 36.1254 14.5523 36.2983C14.726 36.4711 14.8237 36.7057 14.8237 36.9501V40.6374C14.8237 40.8818 14.726 41.1164 14.5523 41.2892C14.3786 41.4621 14.1428 41.5592 13.8972 41.5592ZM11.1177 39.7156H12.9707V37.8719H11.1177V39.7156Z" fill="white"/>
<path d="M13.8975 18.5127H45.3985V20.3563H13.8975V18.5127Z" fill="white"/>
<path d="M48.1763 36.9488H46.3233C46.3233 31.0207 43.1446 25.5425 37.9848 22.579C32.825 19.6148 26.4676 19.6148 21.3077 22.579C16.1479 25.5428 12.9692 31.0206 12.9692 36.9488H11.1162C11.1162 32.059 13.0685 27.3697 16.5437 23.9127C20.0185 20.4551 24.7317 18.5127 29.646 18.5127C34.5604 18.5127 39.2738 20.4551 42.7484 23.9127C46.2236 27.3699 48.1759 32.0593 48.1759 36.9488H48.1763Z" fill="white"/>
<path d="M1.853 12.0608H0V5.60809C0.00165447 4.38624 0.490136 3.21464 1.35831 2.35046C2.2269 1.48667 3.40445 1.00071 4.63251 0.999023H22.2361V2.84265H4.63251C3.89545 2.84265 3.18812 3.13401 2.66706 3.65253C2.14599 4.17105 1.85306 4.8748 1.85306 5.60804L1.853 12.0608Z" fill="white"/>
<path d="M54.6636 59.9951H4.63251C3.40445 59.9934 2.22689 59.5074 1.35831 58.6436C0.490125 57.7794 0.00169418 56.6078 0 55.386V13.9044H1.853V55.386C1.853 56.1193 2.14584 56.8231 2.667 57.3415C3.18816 57.8599 3.89549 58.1514 4.63246 58.1514H54.6636C55.4007 58.1514 56.108 57.86 56.629 57.3415C57.1501 56.823 57.443 56.1192 57.443 55.386V5.60804C57.443 4.87471 57.1502 4.17096 56.629 3.65253C56.1079 3.1341 55.4006 2.84265 54.6636 2.84265H32.4275V0.999023H54.6636C55.8917 1.00067 57.0692 1.48668 57.9378 2.35046C58.806 3.21465 59.2944 4.38624 59.2961 5.60809V55.386C59.2944 56.6079 58.806 57.7795 57.9378 58.6437C57.0692 59.5075 55.8917 59.9934 54.6636 59.9951Z" fill="white"/>
<path d="M28.7217 0.999023H30.5747V2.84265H28.7217V0.999023Z" fill="white"/>
<path d="M28.7199 10.2165H25.9404C25.4288 10.2165 25.0139 9.80374 25.0139 9.29469V5.60743C25.054 4.86257 24.774 4.13579 24.2438 3.6082C23.7135 3.08063 22.9831 2.80203 22.2344 2.84194V0.998316C23.4768 0.951403 24.6826 1.42218 25.5619 2.29665C26.4409 3.17155 26.9141 4.3711 26.8669 5.60739V8.37283H28.7199L28.7199 10.2165Z" fill="white"/>
<path d="M30.5742 8.37305H58.3693V10.2167H30.5742V8.37305Z" fill="white"/>
<path d="M3.7041 4.68555H19.4546V6.52917H3.7041V4.68555Z" fill="white"/>
<path d="M21.3076 4.68555H23.1606V6.52917H21.3076V4.68555Z" fill="white"/>
<path d="M53.7373 4.68555H55.5903V6.52917H53.7373V4.68555Z" fill="white"/>
<path d="M50.0312 4.68555H51.8843V6.52917H50.0312V4.68555Z" fill="white"/>
<path d="M46.3281 4.68555H48.1811V6.52917H46.3281V4.68555Z" fill="white"/>
<path d="M0.926758 8.37305H25.9423V10.2167H0.926758V8.37305Z" fill="white"/>
</svg>
