<svg width="66" height="66" viewBox="0 0 66 66" fill="none" xmlns="http://www.w3.org/2000/svg">
<path d="M64.625 55H63.25V20.625C63.25 19.531 62.8154 18.4818 62.0418 17.7082C61.2682 16.9346 60.219 16.5 59.125 16.5H50.875C50.5103 16.5 50.1606 16.6449 49.9027 16.9027C49.6449 17.1606 49.5 17.5103 49.5 17.875C49.5 18.2397 49.6449 18.5894 49.9027 18.8473C50.1606 19.1051 50.5103 19.25 50.875 19.25H59.125C59.4897 19.25 59.8394 19.3949 60.0973 19.6527C60.3551 19.9106 60.5 20.2603 60.5 20.625V55H39.875C38.8712 55 38.72 55.605 37.6475 57.75H28.3525L27.3487 55.7562C26.8125 54.6837 27.5825 55 5.5 55V20.625C5.5 20.2603 5.64487 19.9106 5.90273 19.6527C6.16059 19.3949 6.51033 19.25 6.875 19.25H19.25C19.6147 19.25 19.9644 19.1051 20.2223 18.8473C20.4801 18.5894 20.625 18.2397 20.625 17.875C20.625 17.5103 20.4801 17.1606 20.2223 16.9027C19.9644 16.6449 19.6147 16.5 19.25 16.5H6.875C5.78098 16.5 4.73177 16.9346 3.95818 17.7082C3.1846 18.4818 2.75 19.531 2.75 20.625V55H1.375C1.01033 55 0.660591 55.1449 0.402728 55.4027C0.144866 55.6606 0 56.0103 0 56.375L0 59.125C0 60.0278 0.177827 60.9218 0.523328 61.7559C0.868829 62.5901 1.37524 63.348 2.01364 63.9864C2.65204 64.6248 3.40994 65.1312 4.24405 65.4767C5.07816 65.8222 5.97216 66 6.875 66H59.125C60.0278 66 60.9218 65.8222 61.7559 65.4767C62.5901 65.1312 63.348 64.6248 63.9864 63.9864C64.6248 63.348 65.1312 62.5901 65.4767 61.7559C65.8222 60.9218 66 60.0278 66 59.125V56.375C66 56.0103 65.8551 55.6606 65.5973 55.4027C65.3394 55.1449 64.9897 55 64.625 55ZM63.25 59.125C63.25 60.219 62.8154 61.2682 62.0418 62.0418C61.2682 62.8154 60.219 63.25 59.125 63.25H6.875C5.78098 63.25 4.73177 62.8154 3.95818 62.0418C3.1846 61.2682 2.75 60.219 2.75 59.125V57.75H25.2725C26.3862 59.9638 26.4825 60.5 27.5 60.5C39.3525 60.5 39.215 60.775 39.7237 59.7438L40.7275 57.75H63.25V59.125Z" fill="url(#paint0_linear_1391_354)"/>
<path d="M21.0511 26.895C20.7961 26.7643 20.5066 26.7166 20.2231 26.7585C19.9395 26.8004 19.6762 26.9299 19.4699 27.1288L16.4999 30.0438C15.4324 31.1156 14.6802 32.4602 14.3254 33.9307C13.9706 35.4011 14.0269 36.9409 14.4882 38.3815C14.9495 39.8221 15.7979 41.1082 16.9409 42.0991C18.0838 43.09 19.4772 43.7476 20.9686 44C35.6536 50.2975 34.6224 49.9125 35.0211 49.9125C35.7911 49.9125 35.6674 49.9125 39.8886 45.6225C40.0276 45.4849 40.1356 45.3192 40.2054 45.1366C40.2752 44.9539 40.3053 44.7585 40.2935 44.5633C40.2818 44.3681 40.2286 44.1776 40.1375 44.0046C40.0463 43.8316 39.9193 43.68 39.7649 43.56L31.5149 37.1525C34.8925 34.9988 38.6124 33.4364 42.5149 32.5325C43.3721 33.1178 44.4185 33.3583 45.4452 33.2062C46.472 33.0541 47.4036 32.5205 48.0544 31.7119C48.7051 30.9032 49.0271 29.879 48.956 28.8434C48.885 27.8079 48.4262 26.8372 47.6711 26.125L44.6461 23.1C45.4935 21.7784 45.8629 20.2066 45.6931 18.6459C45.5233 17.0851 44.8245 15.6295 43.7128 14.521C42.6011 13.4125 41.1435 12.7179 39.5823 12.5526C38.0211 12.3874 36.4503 12.7614 35.1311 13.6125L32.1061 10.6013C31.3825 9.87978 30.4167 9.45257 29.3961 9.40243C28.3754 9.35229 27.3725 9.68279 26.5816 10.3299C25.7907 10.977 25.2681 11.8946 25.1152 12.905C24.9622 13.9154 25.1897 14.9466 25.7536 15.7988C24.8115 19.7324 23.2223 23.4822 21.0511 26.895ZM18.4936 31.9963L20.4461 30.0438L28.2286 37.8263L26.2761 39.765C25.2372 40.7539 23.853 41.2978 22.4188 41.2807C20.9846 41.2636 19.6138 40.6869 18.5987 39.6736C17.5835 38.6603 17.0044 37.2905 16.9848 35.8563C16.9652 34.4221 17.5066 33.037 18.4936 31.9963ZM34.7186 46.8875L26.1249 43.2025C27.7474 42.3775 28.2011 41.7588 30.2499 39.655L36.8224 44.7563L34.7186 46.8875ZM42.6249 21.12L37.1249 15.62C37.8946 15.2524 38.7594 15.1325 39.6002 15.2767C40.4409 15.421 41.2162 15.8223 41.8194 16.4255C42.4226 17.0287 42.824 17.804 42.9682 18.6448C43.1125 19.4855 42.9925 20.3503 42.6249 21.12ZM30.1674 12.5538L45.7186 28.105C45.9439 28.3681 46.0616 28.7064 46.0482 29.0525C46.0349 29.3985 45.8914 29.7268 45.6465 29.9717C45.4017 30.2166 45.0734 30.36 44.7273 30.3734C44.3813 30.3868 44.0429 30.269 43.7799 30.0438L28.2286 14.4925C28.0847 14.3693 27.9678 14.2176 27.8853 14.047C27.8027 13.8764 27.7564 13.6906 27.749 13.5012C27.7417 13.3119 27.7736 13.123 27.8428 12.9466C27.9119 12.7701 28.0167 12.6099 28.1507 12.4759C28.2847 12.3419 28.445 12.237 28.6214 12.1679C28.7979 12.0988 28.9867 12.0669 29.1761 12.0742C29.3654 12.0815 29.5513 12.1279 29.7218 12.2104C29.8924 12.2929 30.0441 12.4098 30.1674 12.5538ZM28.0086 18.1775L40.0949 30.25C36.3409 31.4006 32.7573 33.0468 29.4386 35.145L23.1274 28.875C25.23 25.546 26.872 21.9474 28.0086 18.1775Z" fill="url(#paint1_linear_1391_354)"/>
<path d="M48.1252 11C48.8952 11 48.5377 11.165 54.6014 5.10126C54.8604 4.84234 55.0058 4.49118 55.0058 4.12501C55.0058 3.75885 54.8604 3.40768 54.6014 3.14876C54.3425 2.88984 53.9913 2.74438 53.6252 2.74438C53.259 2.74438 52.9079 2.88984 52.6489 3.14876L47.1489 8.64876C46.955 8.84108 46.8228 9.0868 46.7691 9.35457C46.7153 9.62235 46.7426 9.90006 46.8473 10.1523C46.952 10.4045 47.1295 10.6199 47.3571 10.7708C47.5847 10.9218 47.8521 11.0016 48.1252 11Z" fill="url(#paint2_linear_1391_354)"/>
<path d="M41.25 8.25V1.375C41.25 1.01033 41.1051 0.660591 40.8473 0.402728C40.5894 0.144866 40.2397 0 39.875 0C39.5103 0 39.1606 0.144866 38.9027 0.402728C38.6449 0.660591 38.5 1.01033 38.5 1.375V8.25C38.5 8.61467 38.6449 8.96441 38.9027 9.22227C39.1606 9.48013 39.5103 9.625 39.875 9.625C40.2397 9.625 40.5894 9.48013 40.8473 9.22227C41.1051 8.96441 41.25 8.61467 41.25 8.25Z" fill="url(#paint3_linear_1391_354)"/>
<defs>
<linearGradient id="paint0_linear_1391_354" x1="0.0163955" y1="41.2186" x2="66" y2="41.2186" gradientUnits="userSpaceOnUse">
<stop stop-color="#11698E"/>
<stop offset="1" stop-color="#16C79A"/>
</linearGradient>
<linearGradient id="paint1_linear_1391_354" x1="14.1039" y1="29.6316" x2="48.9657" y2="29.6316" gradientUnits="userSpaceOnUse">
<stop stop-color="#11698E"/>
<stop offset="1" stop-color="#16C79A"/>
</linearGradient>
<linearGradient id="paint2_linear_1391_354" x1="46.7442" y1="6.86719" x2="55.0058" y2="6.86719" gradientUnits="userSpaceOnUse">
<stop stop-color="#11698E"/>
<stop offset="1" stop-color="#16C79A"/>
</linearGradient>
<linearGradient id="paint3_linear_1391_354" x1="38.5007" y1="4.8064" x2="41.25" y2="4.8064" gradientUnits="userSpaceOnUse">
<stop stop-color="#11698E"/>
<stop offset="1" stop-color="#16C79A"/>
</linearGradient>
</defs>
</svg>
