<svg width="60" height="60" viewBox="0 0 60 60" fill="none" xmlns="http://www.w3.org/2000/svg">
<path d="M35.2043 46.1673H33.3513V42.4801C33.3513 42.4184 33.3575 42.3562 33.3699 42.2957C33.6222 41.0492 34.2244 39.8998 35.1066 38.98C35.9889 38.0603 37.1148 37.408 38.3544 37.0986L29.6452 21.3477L20.9361 37.1028C22.1749 37.4119 23.3008 38.0637 24.183 38.9827C25.0648 39.9016 25.6675 41.0506 25.9206 42.2962C25.933 42.3567 25.9392 42.4189 25.9392 42.4806V46.1679H24.0862V42.5838C23.86 41.5234 23.2784 40.5707 22.4367 39.8818C21.595 39.1933 20.5432 38.8094 19.4537 38.7934C19.1261 38.7934 18.8229 38.6213 18.6562 38.3407C18.4896 38.06 18.4842 37.7127 18.6422 37.4271L28.8337 18.9908C29.0107 18.7155 29.3168 18.5488 29.6452 18.5488C29.9736 18.5488 30.2797 18.7155 30.4567 18.9908L40.6483 37.4271C40.8063 37.7127 40.8009 38.06 40.6342 38.3407C40.4675 38.6213 40.1643 38.7934 39.8368 38.7934C38.7456 38.802 37.6905 39.1827 36.8472 39.8723C36.0042 40.5617 35.4243 41.5176 35.2043 42.581L35.2043 46.1673Z" fill="url(#paint0_linear_438_280)"/>
<path d="M29.6474 40.6362C28.6647 40.6362 27.722 40.2478 27.0267 39.5564C26.3319 38.8646 25.9414 37.9267 25.9414 36.949C25.9414 35.9712 26.3319 35.0333 27.0267 34.3416C27.722 33.6502 28.6647 33.2617 29.6474 33.2617C30.6301 33.2617 31.5728 33.6502 32.2681 34.3416C32.963 35.0333 33.3534 35.9712 33.3534 36.949C33.3534 37.9267 32.963 38.8647 32.2681 39.5564C31.5728 40.2478 30.6301 40.6362 29.6474 40.6362ZM29.6474 35.1053C29.156 35.1053 28.6845 35.2996 28.3371 35.6453C27.9896 35.9909 27.7944 36.4601 27.7944 36.949C27.7944 37.4379 27.9896 37.907 28.3371 38.2527C28.6845 38.5984 29.156 38.7926 29.6474 38.7926C30.1388 38.7926 30.6103 38.5984 30.9578 38.2527C31.3052 37.907 31.5004 37.4379 31.5004 36.949C31.5004 36.4601 31.3052 35.9909 30.9578 35.6453C30.6103 35.2996 30.1388 35.1053 29.6474 35.1053Z" fill="url(#paint1_linear_438_280)"/>
<path d="M28.7207 19.4346H30.5737V34.1836H28.7207V19.4346Z" fill="url(#paint2_linear_438_280)"/>
<path d="M35.2066 51.6968H24.0886C23.577 51.6968 23.1621 51.2841 23.1621 50.775V46.166C23.1621 45.6569 23.577 45.2441 24.0886 45.2441H35.2066C35.4523 45.2441 35.6881 45.3413 35.8618 45.5141C36.0355 45.6869 36.1331 45.9215 36.1331 46.166V50.775C36.1331 51.0195 36.0355 51.254 35.8618 51.4269C35.6881 51.5997 35.4523 51.6968 35.2066 51.6968ZM25.0151 49.8532H34.2801V47.0878H25.0151V49.8532Z" fill="url(#paint3_linear_438_280)"/>
<path d="M13.8981 22.2008H10.1921C9.68049 22.2008 9.26562 21.788 9.26562 21.279V17.5917C9.26562 17.0827 9.68049 16.6699 10.1921 16.6699H13.8981C14.1438 16.6699 14.3796 16.767 14.5533 16.9399C14.727 17.1127 14.8246 17.3473 14.8246 17.5917V21.279C14.8246 21.5234 14.727 21.758 14.5533 21.9308C14.3796 22.1037 14.1438 22.2008 13.8981 22.2008ZM11.1186 20.3572H12.9716V18.5135H11.1186V20.3572Z" fill="url(#paint4_linear_438_280)"/>
<path d="M49.1052 22.2008H45.3992C44.8875 22.2008 44.4727 21.788 44.4727 21.279V17.5917C44.4727 17.0827 44.8875 16.6699 45.3992 16.6699H49.1052C49.3509 16.6699 49.5866 16.767 49.7603 16.9399C49.9341 17.1127 50.0317 17.3473 50.0317 17.5917V21.279C50.0317 21.5234 49.9341 21.758 49.7603 21.9308C49.5866 22.1037 49.3509 22.2008 49.1052 22.2008ZM46.3257 20.3572H48.1787V18.5135H46.3257V20.3572Z" fill="url(#paint5_linear_438_280)"/>
<path d="M49.1052 41.5592H45.3992C44.8875 41.5592 44.4727 41.1464 44.4727 40.6374V36.9501C44.4727 36.4411 44.8875 36.0283 45.3992 36.0283H49.1052C49.3509 36.0283 49.5866 36.1254 49.7603 36.2983C49.9341 36.4711 50.0317 36.7057 50.0317 36.9501V40.6374C50.0317 40.8818 49.9341 41.1164 49.7603 41.2892C49.5866 41.4621 49.3509 41.5592 49.1052 41.5592ZM46.3257 39.7156H48.1787V37.8719H46.3257V39.7156Z" fill="url(#paint6_linear_438_280)"/>
<path d="M13.8981 41.5592H10.1921C9.68049 41.5592 9.26562 41.1464 9.26562 40.6374V36.9501C9.26562 36.4411 9.68049 36.0283 10.1921 36.0283H13.8981C14.1438 36.0283 14.3796 36.1254 14.5533 36.2983C14.727 36.4711 14.8246 36.7057 14.8246 36.9501V40.6374C14.8246 40.8818 14.727 41.1164 14.5533 41.2892C14.3796 41.4621 14.1438 41.5592 13.8981 41.5592ZM11.1186 39.7156H12.9716V37.8719H11.1186V39.7156Z" fill="url(#paint7_linear_438_280)"/>
<path d="M13.8984 18.5127H45.3995V20.3563H13.8984V18.5127Z" fill="url(#paint8_linear_438_280)"/>
<path d="M48.1773 36.9488H46.3243C46.3243 31.0207 43.1456 25.5425 37.9858 22.579C32.8259 19.6148 26.4685 19.6148 21.3087 22.579C16.1489 25.5428 12.9702 31.0206 12.9702 36.9488H11.1172C11.1172 32.059 13.0695 27.3697 16.5447 23.9127C20.0194 20.4551 24.7326 18.5127 29.647 18.5127C34.5614 18.5127 39.2748 20.4551 42.7494 23.9127C46.2245 27.3699 48.1769 32.0593 48.1769 36.9488H48.1773Z" fill="url(#paint9_linear_438_280)"/>
<path d="M1.853 12.0608H0V5.60809C0.00165447 4.38624 0.490136 3.21464 1.35831 2.35046C2.2269 1.48667 3.40445 1.00071 4.63251 0.999023H22.2361V2.84265H4.63251C3.89545 2.84265 3.18812 3.13401 2.66706 3.65253C2.14599 4.17105 1.85306 4.8748 1.85306 5.60804L1.853 12.0608Z" fill="url(#paint10_linear_438_280)"/>
<path d="M54.6636 59.9951H4.63251C3.40445 59.9934 2.22689 59.5074 1.35831 58.6436C0.490125 57.7794 0.00169418 56.6078 0 55.386V13.9044H1.853V55.386C1.853 56.1193 2.14584 56.8231 2.667 57.3415C3.18816 57.8599 3.89549 58.1514 4.63246 58.1514H54.6636C55.4007 58.1514 56.108 57.86 56.629 57.3415C57.1501 56.823 57.443 56.1192 57.443 55.386V5.60804C57.443 4.87471 57.1502 4.17096 56.629 3.65253C56.1079 3.1341 55.4006 2.84265 54.6636 2.84265H32.4275V0.999023H54.6636C55.8917 1.00067 57.0692 1.48668 57.9378 2.35046C58.806 3.21465 59.2944 4.38624 59.2961 5.60809V55.386C59.2944 56.6079 58.806 57.7795 57.9378 58.6437C57.0692 59.5075 55.8917 59.9934 54.6636 59.9951Z" fill="url(#paint11_linear_438_280)"/>
<path d="M28.7207 0.999023H30.5737V2.84265H28.7207V0.999023Z" fill="url(#paint12_linear_438_280)"/>
<path d="M28.7199 10.2165H25.9404C25.4288 10.2165 25.0139 9.80374 25.0139 9.29469V5.60743C25.054 4.86257 24.774 4.13579 24.2438 3.6082C23.7135 3.08063 22.9831 2.80203 22.2344 2.84194V0.998316C23.4768 0.951403 24.6826 1.42218 25.5619 2.29665C26.4409 3.17155 26.9141 4.3711 26.8669 5.60739V8.37283H28.7199L28.7199 10.2165Z" fill="url(#paint13_linear_438_280)"/>
<path d="M30.5742 8.37305H58.3693V10.2167H30.5742V8.37305Z" fill="url(#paint14_linear_438_280)"/>
<path d="M3.70508 4.68555H19.4556V6.52917H3.70508V4.68555Z" fill="url(#paint15_linear_438_280)"/>
<path d="M21.3086 4.68555H23.1616V6.52917H21.3086V4.68555Z" fill="url(#paint16_linear_438_280)"/>
<path d="M53.7363 4.68555H55.5893V6.52917H53.7363V4.68555Z" fill="url(#paint17_linear_438_280)"/>
<path d="M50.0312 4.68555H51.8843V6.52917H50.0312V4.68555Z" fill="url(#paint18_linear_438_280)"/>
<path d="M46.3281 4.68555H48.1811V6.52917H46.3281V4.68555Z" fill="url(#paint19_linear_438_280)"/>
<path d="M0.925781 8.37305H25.9413V10.2167H0.925781V8.37305Z" fill="url(#paint20_linear_438_280)"/>
<defs>
<linearGradient id="paint0_linear_438_280" x1="18.5329" y1="32.3409" x2="40.7631" y2="32.3409" gradientUnits="userSpaceOnUse">
<stop stop-color="#11698E"/>
<stop offset="1" stop-color="#16C79A"/>
</linearGradient>
<linearGradient id="paint1_linear_438_280" x1="25.9432" y1="36.9443" x2="33.3534" y2="36.9443" gradientUnits="userSpaceOnUse">
<stop stop-color="#11698E"/>
<stop offset="1" stop-color="#16C79A"/>
</linearGradient>
<linearGradient id="paint2_linear_438_280" x1="28.7212" y1="26.7997" x2="30.5737" y2="26.7997" gradientUnits="userSpaceOnUse">
<stop stop-color="#11698E"/>
<stop offset="1" stop-color="#16C79A"/>
</linearGradient>
<linearGradient id="paint3_linear_438_280" x1="23.1653" y1="48.4664" x2="36.1331" y2="48.4664" gradientUnits="userSpaceOnUse">
<stop stop-color="#11698E"/>
<stop offset="1" stop-color="#16C79A"/>
</linearGradient>
<linearGradient id="paint4_linear_438_280" x1="9.26701" y1="19.4319" x2="14.8246" y2="19.4319" gradientUnits="userSpaceOnUse">
<stop stop-color="#11698E"/>
<stop offset="1" stop-color="#16C79A"/>
</linearGradient>
<linearGradient id="paint5_linear_438_280" x1="44.474" y1="19.4319" x2="50.0317" y2="19.4319" gradientUnits="userSpaceOnUse">
<stop stop-color="#11698E"/>
<stop offset="1" stop-color="#16C79A"/>
</linearGradient>
<linearGradient id="paint6_linear_438_280" x1="44.474" y1="38.7903" x2="50.0317" y2="38.7903" gradientUnits="userSpaceOnUse">
<stop stop-color="#11698E"/>
<stop offset="1" stop-color="#16C79A"/>
</linearGradient>
<linearGradient id="paint7_linear_438_280" x1="9.26701" y1="38.7903" x2="14.8246" y2="38.7903" gradientUnits="userSpaceOnUse">
<stop stop-color="#11698E"/>
<stop offset="1" stop-color="#16C79A"/>
</linearGradient>
<linearGradient id="paint8_linear_438_280" x1="13.9063" y1="19.4333" x2="45.3995" y2="19.4333" gradientUnits="userSpaceOnUse">
<stop stop-color="#11698E"/>
<stop offset="1" stop-color="#16C79A"/>
</linearGradient>
<linearGradient id="paint9_linear_438_280" x1="11.1264" y1="27.7191" x2="48.1773" y2="27.7191" gradientUnits="userSpaceOnUse">
<stop stop-color="#11698E"/>
<stop offset="1" stop-color="#16C79A"/>
</linearGradient>
<linearGradient id="paint10_linear_438_280" x1="0.0055238" y1="6.5229" x2="22.2361" y2="6.5229" gradientUnits="userSpaceOnUse">
<stop stop-color="#11698E"/>
<stop offset="1" stop-color="#16C79A"/>
</linearGradient>
<linearGradient id="paint11_linear_438_280" x1="0.0147301" y1="30.4597" x2="59.2961" y2="30.4597" gradientUnits="userSpaceOnUse">
<stop stop-color="#11698E"/>
<stop offset="1" stop-color="#16C79A"/>
</linearGradient>
<linearGradient id="paint12_linear_438_280" x1="28.7212" y1="1.91967" x2="30.5737" y2="1.91967" gradientUnits="userSpaceOnUse">
<stop stop-color="#11698E"/>
<stop offset="1" stop-color="#16C79A"/>
</linearGradient>
<linearGradient id="paint13_linear_438_280" x1="22.236" y1="5.59997" x2="28.7199" y2="5.59997" gradientUnits="userSpaceOnUse">
<stop stop-color="#11698E"/>
<stop offset="1" stop-color="#16C79A"/>
</linearGradient>
<linearGradient id="paint14_linear_438_280" x1="30.5811" y1="9.29369" x2="58.3693" y2="9.29369" gradientUnits="userSpaceOnUse">
<stop stop-color="#11698E"/>
<stop offset="1" stop-color="#16C79A"/>
</linearGradient>
<linearGradient id="paint15_linear_438_280" x1="3.70899" y1="5.60619" x2="19.4556" y2="5.60619" gradientUnits="userSpaceOnUse">
<stop stop-color="#11698E"/>
<stop offset="1" stop-color="#16C79A"/>
</linearGradient>
<linearGradient id="paint16_linear_438_280" x1="21.3091" y1="5.60619" x2="23.1616" y2="5.60619" gradientUnits="userSpaceOnUse">
<stop stop-color="#11698E"/>
<stop offset="1" stop-color="#16C79A"/>
</linearGradient>
<linearGradient id="paint17_linear_438_280" x1="53.7368" y1="5.60619" x2="55.5893" y2="5.60619" gradientUnits="userSpaceOnUse">
<stop stop-color="#11698E"/>
<stop offset="1" stop-color="#16C79A"/>
</linearGradient>
<linearGradient id="paint18_linear_438_280" x1="50.0317" y1="5.60619" x2="51.8843" y2="5.60619" gradientUnits="userSpaceOnUse">
<stop stop-color="#11698E"/>
<stop offset="1" stop-color="#16C79A"/>
</linearGradient>
<linearGradient id="paint19_linear_438_280" x1="46.3286" y1="5.60619" x2="48.1811" y2="5.60619" gradientUnits="userSpaceOnUse">
<stop stop-color="#11698E"/>
<stop offset="1" stop-color="#16C79A"/>
</linearGradient>
<linearGradient id="paint20_linear_438_280" x1="0.931996" y1="9.29369" x2="25.9413" y2="9.29369" gradientUnits="userSpaceOnUse">
<stop stop-color="#11698E"/>
<stop offset="1" stop-color="#16C79A"/>
</linearGradient>
</defs>
</svg>
