<svg width="106" height="74" viewBox="0 0 106 74" fill="none" xmlns="http://www.w3.org/2000/svg">
<rect x="46.8862" y="5.39795" width="3.01666" height="20.6721" transform="rotate(-28.8146 46.8862 5.39795)" fill="url(#paint0_linear_537_364)"/>
<rect x="49.5474" y="4.11792" width="3.23478" height="22.3162" transform="rotate(30 49.5474 4.11792)" fill="url(#paint1_linear_537_364)"/>
<path d="M41.2302 59.754C34.1995 56.3317 29.9051 51.754 29.9051 46.7299C29.9273 45.001 30.4026 43.3164 31.2733 41.8808H71.2276L63.9516 27.9289C66.7196 27.6751 69.5904 27.535 72.5245 27.535C76.34 27.5313 80.1527 27.7651 83.9446 28.2352L84.6722 28.3315C84.0395 28.1477 83.3831 27.9814 82.7187 27.8151C76.129 26.2369 69.4047 25.4504 62.6625 25.4693H62.536C60.8752 25.4693 59.2434 25.5102 57.6406 25.5919L56.0589 25.6881C51.3101 25.9991 46.5918 26.7338 41.9499 27.8851L40.8506 28.174C38.4613 28.8165 36.1105 29.6233 33.8119 30.5897C25.9033 33.942 21 38.6598 21 43.894C21.0158 50.6161 29.1221 56.498 41.2302 59.754ZM57.6484 28.7429L61.1362 35.43H38.0668C42.9543 32.384 49.7477 29.9945 57.6484 28.7079V28.7429Z" fill="url(#paint2_linear_537_364)"/>
<path d="M41.1442 45.0603H43.908L48.3793 55.8356H45.8004L45.061 54.05H39.9912L39.2518 55.8356H36.6729L41.1442 45.0603ZM40.8801 51.9257H44.172L42.5173 47.9773L40.8801 51.9257Z" fill="#061F33"/>
<path d="M49.8323 55.8356V45.0603H54.3741C55.0489 45.0603 55.6562 45.2091 56.1961 45.5067C56.7418 45.8043 57.176 46.202 57.4988 46.6997C57.8215 47.1923 57.9829 47.7362 57.9829 48.3314C57.9829 48.9368 57.8186 49.4884 57.49 49.9862C57.1614 50.4787 56.7213 50.8713 56.1697 51.1637C55.624 51.4562 55.0254 51.6024 54.3741 51.6024H52.2617V55.8356H49.8323ZM52.2617 49.4782H54.1012C54.3712 49.4782 54.6147 49.4217 54.8318 49.3088C55.0489 49.1908 55.222 49.0343 55.3511 48.8394C55.4861 48.6392 55.5536 48.4186 55.5536 48.1774C55.5536 47.9414 55.4861 47.7259 55.3511 47.5309C55.222 47.3308 55.0489 47.1717 54.8318 47.0537C54.6147 46.9357 54.3712 46.8767 54.1012 46.8767H52.2617V49.4782Z" fill="#061F33"/>
<path d="M59.5282 55.8356V45.0603H67.3266V47.1846H61.9575V49.001H66.1472V51.1253H61.9575V53.7113H67.3266V55.8356H59.5282Z" fill="#061F33"/>
<path d="M68.7302 55.8356L73.2368 50.4172L68.783 45.0603H71.7757L74.7419 48.6161L77.7081 45.0603H80.7008L76.247 50.4172L80.7536 55.8356H77.7434L74.7419 52.2336L71.7405 55.8356H68.7302Z" fill="#061F33"/>
<path d="M49.5447 13.0513L55.2571 23.9747C55.8998 23.9747 56.5505 23.9747 57.2013 23.9747C58.8724 23.9747 60.5194 24.0131 62.1423 24.09L49.5447 0L35.6938 26.4484C38.1041 25.8455 40.6509 25.3313 43.3183 24.9411L49.5447 13.0513ZM39.2851 23.6023L49.5447 4.0076L58.9286 21.962C58.3582 21.962 57.7717 21.962 57.2013 21.962H56.3015L51.1194 12.0671L49.5126 9.04371L47.9058 12.0671L42.1292 23.1147C41.2053 23.2477 40.2412 23.4161 39.2851 23.6023Z" fill="url(#paint3_linear_537_364)"/>
<path d="M0.75 71V64H1.59V71H0.75ZM7.36375 67.89V71H6.52375V68.075C6.52375 67.8217 6.46208 67.5917 6.33875 67.385C6.21542 67.1783 6.05042 67.015 5.84375 66.895C5.63708 66.7717 5.40708 66.71 5.15375 66.71C4.90375 66.71 4.67375 66.7717 4.46375 66.895C4.25708 67.015 4.09208 67.1783 3.96875 67.385C3.84542 67.5917 3.78375 67.8217 3.78375 68.075V71H2.94375V66H3.78375V66.625C3.96042 66.3917 4.18375 66.2067 4.45375 66.07C4.72375 65.93 5.01708 65.86 5.33375 65.86C5.70708 65.86 6.04708 65.9517 6.35375 66.135C6.66375 66.315 6.90875 66.5583 7.08875 66.865C7.27208 67.1717 7.36375 67.5133 7.36375 67.89ZM12.7837 67.89V71H11.9437V68.075C11.9437 67.8217 11.882 67.5917 11.7587 67.385C11.6353 67.1783 11.4703 67.015 11.2637 66.895C11.057 66.7717 10.827 66.71 10.5737 66.71C10.3237 66.71 10.0937 66.7717 9.88367 66.895C9.67701 67.015 9.51201 67.1783 9.38867 67.385C9.26534 67.5917 9.20367 67.8217 9.20367 68.075V71H8.36367V66H9.20367V66.625C9.38034 66.3917 9.60367 66.2067 9.87367 66.07C10.1437 65.93 10.437 65.86 10.7537 65.86C11.127 65.86 11.467 65.9517 11.7737 66.135C12.0837 66.315 12.3287 66.5583 12.5087 66.865C12.692 67.1717 12.7837 67.5133 12.7837 67.89ZM15.8859 71.13C15.4259 71.13 15.0059 71.0117 14.6259 70.775C14.2493 70.5383 13.9476 70.2217 13.7209 69.825C13.4976 69.425 13.3859 68.9833 13.3859 68.5C13.3859 68.1333 13.4509 67.7917 13.5809 67.475C13.7109 67.155 13.8893 66.875 14.1159 66.635C14.3459 66.3917 14.6126 66.2017 14.9159 66.065C15.2193 65.9283 15.5426 65.86 15.8859 65.86C16.3459 65.86 16.7643 65.9783 17.1409 66.215C17.5209 66.4517 17.8226 66.77 18.0459 67.17C18.2726 67.57 18.3859 68.0133 18.3859 68.5C18.3859 68.8633 18.3209 69.2033 18.1909 69.52C18.0609 69.8367 17.8809 70.1167 17.6509 70.36C17.4243 70.6 17.1593 70.7883 16.8559 70.925C16.5559 71.0617 16.2326 71.13 15.8859 71.13ZM15.8859 70.29C16.1993 70.29 16.4809 70.2083 16.7309 70.045C16.9843 69.8783 17.1826 69.66 17.3259 69.39C17.4726 69.1167 17.5459 68.82 17.5459 68.5C17.5459 68.1733 17.4709 67.8733 17.3209 67.6C17.1743 67.3267 16.9759 67.1083 16.7259 66.945C16.4759 66.7817 16.1959 66.7 15.8859 66.7C15.5726 66.7 15.2909 66.7833 15.0409 66.95C14.7909 67.1133 14.5926 67.3317 14.4459 67.605C14.2993 67.8783 14.2259 68.1767 14.2259 68.5C14.2259 68.8333 14.3009 69.1367 14.4509 69.41C14.6009 69.68 14.8026 69.895 15.0559 70.055C15.3093 70.2117 15.5859 70.29 15.8859 70.29ZM21.5887 71H20.5137L18.6887 65.99H19.5837L21.0487 70.025L22.5137 65.99H23.4087L21.5887 71ZM28.038 66H28.878V71H28.038L28.003 70.155C27.8463 70.445 27.6296 70.68 27.353 70.86C27.0796 71.04 26.753 71.13 26.373 71.13C26.0063 71.13 25.663 71.0617 25.343 70.925C25.023 70.785 24.7396 70.5933 24.493 70.35C24.2496 70.1033 24.0596 69.82 23.923 69.5C23.7863 69.18 23.718 68.835 23.718 68.465C23.718 68.1083 23.7846 67.7717 23.918 67.455C24.0513 67.1383 24.2363 66.8617 24.473 66.625C24.713 66.385 24.9896 66.1983 25.303 66.065C25.6163 65.9283 25.953 65.86 26.313 65.86C26.7063 65.86 27.0513 65.9533 27.348 66.14C27.6446 66.3233 27.8846 66.5617 28.068 66.855L28.038 66ZM26.358 70.315C26.688 70.315 26.973 70.235 27.213 70.075C27.4563 69.9117 27.643 69.6917 27.773 69.415C27.9063 69.1383 27.973 68.8333 27.973 68.5C27.973 68.16 27.9063 67.8533 27.773 67.58C27.6396 67.3033 27.4513 67.085 27.208 66.925C26.968 66.7617 26.6846 66.68 26.358 66.68C26.028 66.68 25.728 66.7617 25.458 66.925C25.188 67.0883 24.973 67.3083 24.813 67.585C24.6563 67.8583 24.578 68.1633 24.578 68.5C24.578 68.8367 24.6596 69.1433 24.823 69.42C24.9863 69.6933 25.203 69.9117 25.473 70.075C25.743 70.235 26.038 70.315 26.358 70.315ZM32.4673 66.84H31.3323L31.3273 71H30.4873L30.4923 66.84H29.6323V66H30.4923L30.4873 64.43H31.3273L31.3323 66H32.4673V66.84ZM33.3148 66H34.1548V71H33.3148V66ZM33.7448 65.185C33.6115 65.185 33.4998 65.1417 33.4098 65.055C33.3198 64.9683 33.2748 64.86 33.2748 64.73C33.2748 64.6 33.3198 64.4917 33.4098 64.405C33.4998 64.3183 33.6098 64.275 33.7398 64.275C33.8698 64.275 33.9798 64.3183 34.0698 64.405C34.1598 64.4917 34.2048 64.6 34.2048 64.73C34.2048 64.86 34.1598 64.9683 34.0698 65.055C33.9832 65.1417 33.8748 65.185 33.7448 65.185ZM37.4875 71.13C37.0275 71.13 36.6075 71.0117 36.2275 70.775C35.8508 70.5383 35.5492 70.2217 35.3225 69.825C35.0992 69.425 34.9875 68.9833 34.9875 68.5C34.9875 68.1333 35.0525 67.7917 35.1825 67.475C35.3125 67.155 35.4908 66.875 35.7175 66.635C35.9475 66.3917 36.2142 66.2017 36.5175 66.065C36.8208 65.9283 37.1442 65.86 37.4875 65.86C37.9475 65.86 38.3658 65.9783 38.7425 66.215C39.1225 66.4517 39.4242 66.77 39.6475 67.17C39.8742 67.57 39.9875 68.0133 39.9875 68.5C39.9875 68.8633 39.9225 69.2033 39.7925 69.52C39.6625 69.8367 39.4825 70.1167 39.2525 70.36C39.0258 70.6 38.7608 70.7883 38.4575 70.925C38.1575 71.0617 37.8342 71.13 37.4875 71.13ZM37.4875 70.29C37.8008 70.29 38.0825 70.2083 38.3325 70.045C38.5858 69.8783 38.7842 69.66 38.9275 69.39C39.0742 69.1167 39.1475 68.82 39.1475 68.5C39.1475 68.1733 39.0725 67.8733 38.9225 67.6C38.7758 67.3267 38.5775 67.1083 38.3275 66.945C38.0775 66.7817 37.7975 66.7 37.4875 66.7C37.1742 66.7 36.8925 66.7833 36.6425 66.95C36.3925 67.1133 36.1942 67.3317 36.0475 67.605C35.9008 67.8783 35.8275 68.1767 35.8275 68.5C35.8275 68.8333 35.9025 69.1367 36.0525 69.41C36.2025 69.68 36.4042 69.895 36.6575 70.055C36.9108 70.2117 37.1875 70.29 37.4875 70.29ZM45.2348 67.89V71H44.3948V68.075C44.3948 67.8217 44.3332 67.5917 44.2098 67.385C44.0865 67.1783 43.9215 67.015 43.7148 66.895C43.5082 66.7717 43.2782 66.71 43.0248 66.71C42.7748 66.71 42.5448 66.7717 42.3348 66.895C42.1282 67.015 41.9632 67.1783 41.8398 67.385C41.7165 67.5917 41.6548 67.8217 41.6548 68.075V71H40.8148V66H41.6548V66.625C41.8315 66.3917 42.0548 66.2067 42.3248 66.07C42.5948 65.93 42.8882 65.86 43.2048 65.86C43.5782 65.86 43.9182 65.9517 44.2248 66.135C44.5348 66.315 44.7798 66.5583 44.9598 66.865C45.1432 67.1717 45.2348 67.5133 45.2348 67.89ZM53.9321 64V64.84H51.6021V71H50.7621V64.84H48.4371V64H53.9321ZM56.3547 71.13C55.8947 71.13 55.4747 71.0117 55.0947 70.775C54.718 70.5383 54.4164 70.2217 54.1897 69.825C53.9664 69.425 53.8547 68.9833 53.8547 68.5C53.8547 68.1333 53.9197 67.7917 54.0497 67.475C54.1797 67.155 54.358 66.875 54.5847 66.635C54.8147 66.3917 55.0814 66.2017 55.3847 66.065C55.688 65.9283 56.0114 65.86 56.3547 65.86C56.7314 65.86 57.0764 65.9367 57.3897 66.09C57.7064 66.24 57.9764 66.45 58.1997 66.72C58.4264 66.99 58.5947 67.3033 58.7047 67.66C58.818 68.0167 58.8597 68.3983 58.8297 68.805H54.7497C54.7897 69.0883 54.883 69.3417 55.0297 69.565C55.1764 69.785 55.363 69.96 55.5897 70.09C55.8197 70.22 56.0747 70.2867 56.3547 70.29C56.6547 70.29 56.9264 70.2133 57.1697 70.06C57.413 69.9033 57.6097 69.69 57.7597 69.42L58.6147 69.62C58.4147 70.0633 58.113 70.4267 57.7097 70.71C57.3064 70.99 56.8547 71.13 56.3547 71.13ZM54.7247 68.145H57.9847C57.958 67.865 57.868 67.61 57.7147 67.38C57.5614 67.1467 57.3664 66.96 57.1297 66.82C56.893 66.68 56.6347 66.61 56.3547 66.61C56.0747 66.61 55.818 66.6783 55.5847 66.815C55.3514 66.9517 55.158 67.1367 55.0047 67.37C54.8547 67.6 54.7614 67.8583 54.7247 68.145ZM63.088 69.68L63.838 70.085C63.6113 70.4017 63.323 70.655 62.973 70.845C62.6263 71.035 62.2496 71.13 61.843 71.13C61.383 71.13 60.963 71.0117 60.583 70.775C60.2063 70.5383 59.9046 70.2217 59.678 69.825C59.4546 69.425 59.343 68.9833 59.343 68.5C59.343 68.1333 59.408 67.7917 59.538 67.475C59.668 67.155 59.8463 66.875 60.073 66.635C60.303 66.3917 60.5696 66.2017 60.873 66.065C61.1763 65.9283 61.4996 65.86 61.843 65.86C62.2496 65.86 62.6263 65.955 62.973 66.145C63.323 66.335 63.6113 66.59 63.838 66.91L63.088 67.315C62.928 67.1183 62.738 66.9667 62.518 66.86C62.298 66.7533 62.073 66.7 61.843 66.7C61.533 66.7 61.2513 66.7833 60.998 66.95C60.748 67.1133 60.5496 67.3317 60.403 67.605C60.2563 67.8783 60.183 68.1767 60.183 68.5C60.183 68.8233 60.2563 69.1217 60.403 69.395C60.553 69.665 60.753 69.8817 61.003 70.045C61.2563 70.2083 61.5363 70.29 61.843 70.29C62.0896 70.29 62.3213 70.2333 62.538 70.12C62.7546 70.0067 62.938 69.86 63.088 69.68ZM69.0727 67.89V71H68.2327V68.075C68.2327 67.8217 68.1711 67.5917 68.0477 67.385C67.9244 67.1783 67.7594 67.015 67.5527 66.895C67.3461 66.7717 67.1161 66.71 66.8627 66.71C66.6127 66.71 66.3827 66.7717 66.1727 66.895C65.9661 67.015 65.8011 67.1783 65.6777 67.385C65.5544 67.5917 65.4927 67.8217 65.4927 68.075V71H64.6527V63.5H65.4927V66.625C65.6694 66.3917 65.8927 66.2067 66.1627 66.07C66.4327 65.93 66.7261 65.86 67.0427 65.86C67.4161 65.86 67.7561 65.9517 68.0627 66.135C68.3727 66.315 68.6177 66.5583 68.7977 66.865C68.9811 67.1717 69.0727 67.5133 69.0727 67.89ZM74.4927 67.89V71H73.6527V68.075C73.6527 67.8217 73.591 67.5917 73.4677 67.385C73.3443 67.1783 73.1793 67.015 72.9727 66.895C72.766 66.7717 72.536 66.71 72.2827 66.71C72.0327 66.71 71.8027 66.7717 71.5927 66.895C71.386 67.015 71.221 67.1783 71.0977 67.385C70.9743 67.5917 70.9127 67.8217 70.9127 68.075V71H70.0727V66H70.9127V66.625C71.0893 66.3917 71.3127 66.2067 71.5827 66.07C71.8527 65.93 72.146 65.86 72.4627 65.86C72.836 65.86 73.176 65.9517 73.4827 66.135C73.7927 66.315 74.0377 66.5583 74.2177 66.865C74.401 67.1717 74.4927 67.5133 74.4927 67.89ZM77.5949 71.13C77.1349 71.13 76.7149 71.0117 76.3349 70.775C75.9583 70.5383 75.6566 70.2217 75.4299 69.825C75.2066 69.425 75.0949 68.9833 75.0949 68.5C75.0949 68.1333 75.1599 67.7917 75.2899 67.475C75.4199 67.155 75.5983 66.875 75.8249 66.635C76.0549 66.3917 76.3216 66.2017 76.6249 66.065C76.9283 65.9283 77.2516 65.86 77.5949 65.86C78.0549 65.86 78.4733 65.9783 78.8499 66.215C79.2299 66.4517 79.5316 66.77 79.7549 67.17C79.9816 67.57 80.0949 68.0133 80.0949 68.5C80.0949 68.8633 80.0299 69.2033 79.8999 69.52C79.7699 69.8367 79.5899 70.1167 79.3599 70.36C79.1333 70.6 78.8683 70.7883 78.5649 70.925C78.2649 71.0617 77.9416 71.13 77.5949 71.13ZM77.5949 70.29C77.9083 70.29 78.1899 70.2083 78.4399 70.045C78.6933 69.8783 78.8916 69.66 79.0349 69.39C79.1816 69.1167 79.2549 68.82 79.2549 68.5C79.2549 68.1733 79.1799 67.8733 79.0299 67.6C78.8833 67.3267 78.6849 67.1083 78.4349 66.945C78.1849 66.7817 77.9049 66.7 77.5949 66.7C77.2816 66.7 76.9999 66.7833 76.7499 66.95C76.4999 67.1133 76.3016 67.3317 76.1549 67.605C76.0083 67.8783 75.9349 68.1767 75.9349 68.5C75.9349 68.8333 76.0099 69.1367 76.1599 69.41C76.3099 69.68 76.5116 69.895 76.7649 70.055C77.0183 70.2117 77.2949 70.29 77.5949 70.29ZM80.8734 71V63.5H81.7134V71H80.8734ZM85.0656 71.13C84.6056 71.13 84.1856 71.0117 83.8056 70.775C83.429 70.5383 83.1273 70.2217 82.9006 69.825C82.6773 69.425 82.5656 68.9833 82.5656 68.5C82.5656 68.1333 82.6306 67.7917 82.7606 67.475C82.8906 67.155 83.069 66.875 83.2956 66.635C83.5256 66.3917 83.7923 66.2017 84.0956 66.065C84.399 65.9283 84.7223 65.86 85.0656 65.86C85.5256 65.86 85.944 65.9783 86.3206 66.215C86.7006 66.4517 87.0023 66.77 87.2256 67.17C87.4523 67.57 87.5656 68.0133 87.5656 68.5C87.5656 68.8633 87.5006 69.2033 87.3706 69.52C87.2406 69.8367 87.0606 70.1167 86.8306 70.36C86.604 70.6 86.339 70.7883 86.0356 70.925C85.7356 71.0617 85.4123 71.13 85.0656 71.13ZM85.0656 70.29C85.379 70.29 85.6606 70.2083 85.9106 70.045C86.164 69.8783 86.3623 69.66 86.5056 69.39C86.6523 69.1167 86.7256 68.82 86.7256 68.5C86.7256 68.1733 86.6506 67.8733 86.5006 67.6C86.354 67.3267 86.1556 67.1083 85.9056 66.945C85.6556 66.7817 85.3756 66.7 85.0656 66.7C84.7523 66.7 84.4706 66.7833 84.2206 66.95C83.9706 67.1133 83.7723 67.3317 83.6256 67.605C83.479 67.8783 83.4056 68.1767 83.4056 68.5C83.4056 68.8333 83.4806 69.1367 83.6306 69.41C83.7806 69.68 83.9823 69.895 84.2356 70.055C84.489 70.2117 84.7656 70.29 85.0656 70.29ZM92.2687 66H93.1087V71.16C93.1087 71.49 93.037 71.7967 92.8937 72.08C92.7537 72.3667 92.5637 72.615 92.3237 72.825C92.0837 73.0383 91.8103 73.2033 91.5037 73.32C91.197 73.44 90.877 73.5 90.5437 73.5C90.197 73.5 89.862 73.4217 89.5387 73.265C89.2153 73.1117 88.932 72.905 88.6887 72.645C88.4487 72.3883 88.2753 72.1 88.1687 71.78L88.9387 71.43C89.002 71.66 89.1153 71.8667 89.2787 72.05C89.4453 72.2367 89.6387 72.3833 89.8587 72.49C90.082 72.6 90.3103 72.655 90.5437 72.655C90.7637 72.655 90.9753 72.6167 91.1787 72.54C91.3853 72.4633 91.5703 72.3567 91.7337 72.22C91.9003 72.0867 92.0303 71.9283 92.1237 71.745C92.2203 71.565 92.2687 71.37 92.2687 71.16V70.165C92.0987 70.4517 91.8737 70.685 91.5937 70.865C91.317 71.0417 90.9937 71.13 90.6237 71.13C90.2703 71.13 89.9387 71.0617 89.6287 70.925C89.3187 70.7883 89.047 70.6 88.8137 70.36C88.5803 70.1167 88.397 69.8367 88.2637 69.52C88.1303 69.2033 88.0637 68.8633 88.0637 68.5C88.0637 68.1367 88.1303 67.7967 88.2637 67.48C88.397 67.16 88.5803 66.88 88.8137 66.64C89.047 66.3967 89.3187 66.2067 89.6287 66.07C89.9387 65.9333 90.2703 65.865 90.6237 65.865C90.9937 65.865 91.317 65.9533 91.5937 66.13C91.8737 66.3067 92.0987 66.54 92.2687 66.83V66ZM90.6287 70.315C90.952 70.315 91.232 70.2317 91.4687 70.065C91.7087 69.8983 91.8937 69.6767 92.0237 69.4C92.1537 69.1233 92.2187 68.8233 92.2187 68.5C92.2187 68.1667 92.152 67.8633 92.0187 67.59C91.8887 67.3133 91.7037 67.0933 91.4637 66.93C91.227 66.7633 90.9487 66.68 90.6287 66.68C90.3153 66.68 90.0287 66.7617 89.7687 66.925C89.5087 67.0883 89.302 67.3083 89.1487 67.585C88.9987 67.8583 88.9237 68.1633 88.9237 68.5C88.9237 68.8367 89.0003 69.1433 89.1537 69.42C89.3103 69.6933 89.517 69.9117 89.7737 70.075C90.0337 70.235 90.3187 70.315 90.6287 70.315ZM94.2426 66H95.0826V71H94.2426V66ZM94.6726 65.185C94.5392 65.185 94.4276 65.1417 94.3376 65.055C94.2476 64.9683 94.2026 64.86 94.2026 64.73C94.2026 64.6 94.2476 64.4917 94.3376 64.405C94.4276 64.3183 94.5376 64.275 94.6676 64.275C94.7976 64.275 94.9076 64.3183 94.9976 64.405C95.0876 64.4917 95.1326 64.6 95.1326 64.73C95.1326 64.86 95.0876 64.9683 94.9976 65.055C94.9109 65.1417 94.8026 65.185 94.6726 65.185ZM98.4152 71.13C97.9552 71.13 97.5352 71.0117 97.1552 70.775C96.7786 70.5383 96.4769 70.2217 96.2502 69.825C96.0269 69.425 95.9152 68.9833 95.9152 68.5C95.9152 68.1333 95.9802 67.7917 96.1102 67.475C96.2402 67.155 96.4186 66.875 96.6452 66.635C96.8752 66.3917 97.1419 66.2017 97.4452 66.065C97.7486 65.9283 98.0719 65.86 98.4152 65.86C98.7919 65.86 99.1369 65.9367 99.4502 66.09C99.7669 66.24 100.037 66.45 100.26 66.72C100.487 66.99 100.655 67.3033 100.765 67.66C100.879 68.0167 100.92 68.3983 100.89 68.805H96.8102C96.8502 69.0883 96.9436 69.3417 97.0902 69.565C97.2369 69.785 97.4236 69.96 97.6502 70.09C97.8802 70.22 98.1352 70.2867 98.4152 70.29C98.7152 70.29 98.9869 70.2133 99.2302 70.06C99.4736 69.9033 99.6702 69.69 99.8202 69.42L100.675 69.62C100.475 70.0633 100.174 70.4267 99.7702 70.71C99.3669 70.99 98.9152 71.13 98.4152 71.13ZM96.7852 68.145H100.045C100.019 67.865 99.9286 67.61 99.7752 67.38C99.6219 67.1467 99.4269 66.96 99.1902 66.82C98.9536 66.68 98.6952 66.61 98.4152 66.61C98.1352 66.61 97.8786 66.6783 97.6452 66.815C97.4119 66.9517 97.2186 67.1367 97.0652 67.37C96.9152 67.6 96.8219 67.8583 96.7852 68.145ZM103.277 71.095C103.007 71.085 102.744 71.035 102.487 70.945C102.234 70.8517 102.011 70.7267 101.817 70.57C101.627 70.41 101.489 70.2267 101.402 70.02L102.122 69.71C102.172 69.8233 102.262 69.93 102.392 70.03C102.522 70.13 102.672 70.21 102.842 70.27C103.012 70.33 103.184 70.36 103.357 70.36C103.541 70.36 103.712 70.3317 103.872 70.275C104.032 70.2183 104.162 70.135 104.262 70.025C104.366 69.9117 104.417 69.7767 104.417 69.62C104.417 69.4533 104.361 69.3233 104.247 69.23C104.137 69.1333 103.997 69.0583 103.827 69.005C103.661 68.9483 103.491 68.895 103.317 68.845C102.974 68.7583 102.667 68.655 102.397 68.535C102.127 68.4117 101.914 68.2567 101.757 68.07C101.604 67.88 101.527 67.6383 101.527 67.345C101.527 67.035 101.612 66.7667 101.782 66.54C101.956 66.3133 102.182 66.1383 102.462 66.015C102.742 65.8917 103.042 65.83 103.362 65.83C103.766 65.83 104.134 65.9167 104.467 66.09C104.801 66.2633 105.049 66.4983 105.212 66.795L104.537 67.19C104.481 67.07 104.394 66.965 104.277 66.875C104.161 66.7817 104.027 66.7083 103.877 66.655C103.727 66.6017 103.574 66.5733 103.417 66.57C103.224 66.5633 103.042 66.5883 102.872 66.645C102.706 66.7017 102.571 66.7883 102.467 66.905C102.367 67.0183 102.317 67.16 102.317 67.33C102.317 67.4967 102.371 67.6233 102.477 67.71C102.587 67.7967 102.729 67.8667 102.902 67.92C103.079 67.97 103.271 68.0283 103.477 68.095C103.781 68.1917 104.064 68.3033 104.327 68.43C104.591 68.5567 104.802 68.715 104.962 68.905C105.126 69.095 105.206 69.33 105.202 69.61C105.202 69.9167 105.111 70.185 104.927 70.415C104.744 70.6417 104.506 70.815 104.212 70.935C103.922 71.055 103.611 71.1083 103.277 71.095Z" fill="#061F33"/>
<defs>
<linearGradient id="paint0_linear_537_364" x1="46.887" y1="15.7209" x2="49.9029" y2="15.7209" gradientUnits="userSpaceOnUse">
<stop stop-color="#11698E"/>
<stop offset="1" stop-color="#16C79A"/>
</linearGradient>
<linearGradient id="paint1_linear_537_364" x1="49.5482" y1="15.2619" x2="52.7821" y2="15.2619" gradientUnits="userSpaceOnUse">
<stop stop-color="#11698E"/>
<stop offset="1" stop-color="#16C79A"/>
</linearGradient>
<linearGradient id="paint2_linear_537_364" x1="21.0158" y1="42.5898" x2="84.6722" y2="42.5898" gradientUnits="userSpaceOnUse">
<stop stop-color="#11698E"/>
<stop offset="1" stop-color="#16C79A"/>
</linearGradient>
<linearGradient id="paint3_linear_537_364" x1="35.7004" y1="13.2075" x2="62.1423" y2="13.2075" gradientUnits="userSpaceOnUse">
<stop stop-color="#11698E"/>
<stop offset="1" stop-color="#16C79A"/>
</linearGradient>
</defs>
</svg>
